<?xml version="1.0" standalone="no"?>
<!DOCTYPE svg PUBLIC "-//W3C//DTD SVG 20010904//EN"
 "http://www.w3.org/TR/2001/REC-SVG-20010904/DTD/svg10.dtd">
<svg version="1.0" xmlns="http://www.w3.org/2000/svg"
 width="219.000000pt" height="201.000000pt" viewBox="0 0 219.000000 201.000000"
 preserveAspectRatio="xMidYMid meet">
<metadata>
Created by potrace 1.10, written by Peter Selinger 2001-2011
</metadata>
<g transform="translate(0.000000,201.000000) scale(0.100000,-0.100000)"
fill="#000000" stroke="none">
<path d="M1011 1915 c-21 -26 -9 -187 16 -224 2 -2 14 8 27 22 29 31 48 35 40
10 -4 -13 -3 -14 3 -5 6 7 18 10 29 6 14 -4 15 -3 5 4 -9 7 1 10 34 10 l48 1
-6 -37 c-5 -27 -4 -33 4 -22 8 12 9 11 7 -5 -2 -12 -10 -19 -20 -17 -9 1 -18
-5 -22 -13 -3 -9 -10 -14 -15 -10 -14 8 -2 35 15 35 8 0 14 8 14 17 0 13 -3
14 -12 5 -17 -17 -38 -15 -55 6 -8 9 -12 11 -8 5 5 -10 0 -11 -22 -2 -23 8
-26 8 -15 -2 6 -7 12 -21 12 -30 0 -13 -6 -16 -22 -12 -13 3 -29 10 -35 16
-10 7 -13 3 -13 -16 0 -14 -6 -29 -12 -34 -29 -18 -220 -84 -226 -78 -3 3 -11
0 -19 -7 -11 -8 -12 -7 -7 6 3 9 1 16 -5 16 -6 0 -11 -9 -11 -20 0 -11 2 -20
4 -20 2 0 28 5 57 11 30 6 63 13 74 15 118 23 143 33 129 56 -3 4 -1 8 5 8 5
0 11 -3 14 -7 2 -5 2 -2 1 5 -2 6 1 12 6 12 6 0 10 7 10 15 0 16 9 19 34 9 20
-8 11 -24 -15 -24 -10 0 -19 -5 -19 -11 0 -6 7 -8 16 -5 8 3 13 2 10 -3 -3 -4
18 -6 47 -4 74 6 81 11 17 12 -39 1 -51 4 -40 11 8 5 30 7 49 5 24 -3 38 1 48
13 12 15 13 14 7 -10 -6 -27 -5 -28 42 -29 40 -1 44 -2 24 -9 -21 -7 -20 -8
13 -7 21 1 41 -4 45 -9 4 -6 14 -13 22 -16 22 -8 -135 -1 -159 7 -12 4 -21 2
-21 -4 0 -6 -7 -8 -15 -5 -8 4 -15 2 -15 -4 0 -5 50 -10 123 -11 142 -3 174
-6 242 -26 47 -13 105 -60 105 -83 0 -6 8 -18 17 -28 16 -16 14 -16 -37 -11
-30 4 -120 9 -200 12 -202 8 -243 13 -256 29 -7 10 -15 12 -25 5 -12 -8 -12
-9 1 -9 10 0 11 -3 3 -11 -9 -9 -19 -6 -41 9 -30 22 -280 97 -290 88 -6 -7 43
-26 66 -26 15 0 15 -2 2 -10 -8 -5 -10 -10 -5 -11 6 -1 19 -3 30 -4 110 -12
205 -42 205 -64 0 -17 -18 -13 -29 6 -5 10 -13 14 -17 10 -5 -5 -2 -12 6 -17
12 -8 11 -10 -5 -11 -19 0 -19 -1 -2 -8 16 -6 16 -9 5 -18 -7 -6 -22 -13 -33
-15 -11 -2 6 -5 37 -5 45 -1 56 2 51 13 -3 8 -12 14 -20 14 -8 0 -11 -4 -8
-10 3 -5 1 -10 -4 -10 -17 0 -13 18 7 29 13 7 24 4 42 -10 14 -10 21 -19 16
-19 -6 0 -2 -6 7 -13 11 -7 19 -29 21 -55 3 -37 0 -46 -22 -60 -14 -9 -45 -17
-68 -18 -25 -1 -50 -9 -59 -18 -14 -14 -14 -16 -1 -16 8 0 18 5 22 11 4 7 24
9 55 6 35 -4 49 -3 49 6 0 7 9 18 20 25 38 23 24 120 -23 164 -24 22 -14 40
16 29 12 -5 90 -11 172 -15 151 -6 284 -15 320 -20 13 -2 20 -11 20 -29 2 -28
-2 -35 -27 -55 -15 -12 -17 -11 -15 7 1 12 7 19 13 17 16 -6 25 32 11 41 -18
11 -37 12 -37 2 0 -5 7 -9 15 -9 8 0 15 -5 15 -11 0 -6 -7 -8 -16 -5 -13 5
-15 2 -11 -14 3 -11 1 -23 -4 -26 -5 -3 -7 -10 -4 -15 4 -5 2 -9 -4 -9 -5 0
-13 5 -16 11 -4 6 -16 14 -28 18 -19 7 -19 9 11 27 32 18 42 34 22 34 -5 0
-10 -4 -10 -10 0 -5 -6 -10 -14 -10 -8 0 -16 -7 -20 -15 -4 -13 -34 -15 -182
-15 -98 0 -175 -2 -172 -5 3 -3 66 -6 139 -7 74 0 143 -5 154 -9 11 -5 -50 -7
-137 -6 -86 1 -154 -1 -150 -5 4 -3 76 -8 160 -10 140 -3 152 -2 152 14 0 19
15 24 25 8 3 -5 12 -7 19 -4 8 3 17 1 20 -5 4 -6 -4 -9 -21 -8 -20 1 -29 -3
-31 -17 -4 -17 -2 -18 11 -5 15 15 87 15 87 -1 0 -4 -11 -5 -25 -2 -33 6 -97
-25 -93 -45 2 -9 9 -18 16 -19 7 -1 8 0 2 3 -13 6 -13 33 1 33 5 0 8 -4 5 -9
-9 -14 22 -21 33 -7 7 9 7 16 -2 25 -10 10 -6 12 18 9 28 -3 30 -6 30 -43 0
-29 4 -41 16 -43 13 -2 18 7 20 42 2 24 1 42 -3 39 -13 -7 -9 12 7 33 15 19
15 19 9 -1 -3 -11 2 -7 11 9 22 38 16 126 -12 164 -30 41 -103 86 -190 117
-43 15 -104 38 -136 50 -31 13 -60 19 -63 14 -7 -12 -44 -11 -44 1 0 5 6 8 13
6 6 -1 9 -1 5 1 -5 3 -8 9 -8 15 0 6 6 5 15 -2 21 -18 29 -6 15 20 -7 13 -9
37 -5 59 4 20 9 69 12 109 7 102 4 104 -125 100 -57 -2 -107 -7 -111 -13z m49
-19 c0 -9 8 -12 27 -8 25 5 26 6 8 13 -13 5 6 8 50 7 l70 -1 3 -65 c2 -52 -1
-67 -15 -78 -23 -17 -179 -19 -189 -2 -4 7 -3 8 4 4 9 -5 12 14 12 68 0 61 3
76 15 76 8 0 15 -6 15 -14z m167 -142 c-3 -3 -12 -4 -19 -1 -8 3 -5 6 6 6 11
1 17 -2 13 -5z m-88 -83 c14 -9 7 -31 -10 -31 -6 0 -7 5 -3 12 5 7 2 9 -9 5
-11 -4 -14 -2 -10 9 6 16 12 17 32 5z m-189 -91 c-8 -5 -19 -10 -25 -10 -5 0
-3 5 5 10 8 5 20 10 25 10 6 0 3 -5 -5 -10z"/>
<path d="M1128 1893 c6 -2 18 -2 25 0 6 3 1 5 -13 5 -14 0 -19 -2 -12 -5z"/>
<path d="M1060 1824 c0 -26 3 -45 6 -42 9 10 12 78 3 84 -5 3 -9 -16 -9 -42z"/>
<path d="M1098 1863 c7 -3 16 -2 19 1 4 3 -2 6 -13 5 -11 0 -14 -3 -6 -6z"/>
<path d="M1091 1834 c0 -11 3 -14 6 -6 3 7 2 16 -1 19 -3 4 -6 -2 -5 -13z"/>
<path d="M728 1903 c7 -3 16 -2 19 1 4 3 -2 6 -13 5 -11 0 -14 -3 -6 -6z"/>
<path d="M512 1848 c-15 -15 -17 -158 -2 -158 9 0 16 68 12 128 0 13 5 22 14
22 8 0 14 -6 14 -12 0 -9 3 -8 10 2 8 13 9 13 14 0 13 -42 14 -44 15 -21 1 14
6 21 14 19 6 -3 37 -2 68 1 l56 7 2 -78 2 -78 -116 0 -115 0 0 -53 c0 -29 6
-59 13 -66 10 -11 9 -13 -1 -7 -7 4 -24 -2 -39 -13 -24 -20 -232 -91 -264 -91
-8 0 -34 -12 -57 -27 -46 -30 -68 -73 -71 -140 l-2 -41 63 -6 c35 -3 85 -6
113 -6 43 -1 64 -11 65 -31 0 -3 -35 -9 -77 -12 -43 -3 -89 -9 -103 -12 -24
-6 -24 -6 -6 9 10 8 16 22 13 31 -7 17 -42 21 -52 5 -8 -13 26 -71 37 -64 7 5
12 -9 10 -27 -1 -4 -2 -39 -3 -78 -1 -39 -5 -68 -10 -66 -4 3 -5 -11 -2 -30 3
-21 1 -46 -7 -60 -11 -20 -11 -27 0 -40 10 -13 9 -15 -6 -16 -18 0 -18 -1 1
-8 25 -11 35 -5 35 19 0 13 -5 17 -15 14 -10 -4 -15 0 -15 11 0 9 4 13 10 10
20 -12 159 -32 172 -24 8 6 -5 9 -33 9 -25 0 -49 3 -53 7 -4 4 -15 8 -24 8
-15 0 -18 17 -22 138 -4 117 -3 137 10 139 31 3 35 4 45 10 6 3 26 5 45 4 19
-2 40 1 46 6 7 5 64 10 127 11 101 2 116 4 121 20 4 16 16 17 133 12 70 -2
161 -5 201 -5 40 0 72 -4 72 -10 0 -5 -12 -7 -27 -5 -49 9 -363 11 -363 3 0
-4 28 -8 63 -8 34 0 126 -2 203 -4 134 -5 142 -4 147 15 4 14 0 19 -16 21 -61
5 -140 6 -444 7 l-333 1 0 41 0 42 -50 -6 c-51 -6 -64 0 -51 22 6 9 11 10 15
2 4 -6 12 -11 18 -11 6 0 8 3 4 7 -3 4 8 22 26 40 17 18 27 33 21 33 -6 0 -13
-6 -16 -12 -2 -8 -8 -9 -13 -4 -5 5 -4 11 4 13 7 3 19 12 28 20 13 14 17 14
33 -1 10 -9 21 -16 26 -16 5 0 0 6 -10 14 -17 12 -10 15 61 32 43 10 89 18
102 18 12 -1 22 3 22 9 0 5 13 7 29 5 17 -2 29 0 28 5 -1 6 16 14 37 19 22 5
45 13 51 18 7 5 14 7 17 4 12 -12 137 -10 142 2 6 15 -3 24 -23 23 -12 0 -11
-3 4 -9 18 -8 16 -9 -10 -11 -47 -4 -67 -3 -107 5 -26 5 -40 2 -51 -9 -17 -16
-47 -20 -47 -6 0 5 11 12 25 15 14 4 24 12 22 19 -2 13 35 10 44 -4 3 -5 26
-8 51 -7 26 1 44 6 41 11 -3 4 -19 6 -36 3 l-32 -6 27 13 c18 8 24 17 19 26
-7 10 -10 9 -14 -3 -8 -20 -72 -21 -105 -3 -23 13 -23 13 -3 31 11 10 25 15
30 11 7 -3 11 3 11 15 0 12 5 18 10 15 6 -4 8 -10 5 -15 -3 -4 1 -11 7 -13 9
-4 9 -6 1 -6 -13 -1 -6 -41 8 -41 4 0 6 9 4 20 -2 11 0 20 6 20 5 0 9 -8 10
-17 0 -11 3 -13 6 -5 2 6 14 12 24 12 11 0 17 -4 14 -10 -4 -6 5 -10 19 -10
24 0 38 19 16 21 -5 1 -14 2 -19 3 -17 2 -25 16 -10 17 8 1 17 1 21 0 4 0 5 6
2 14 -4 8 -1 15 5 15 10 0 12 -11 15 -67 1 -12 -5 -17 -16 -15 -10 2 -18 -1
-18 -6 0 -10 57 -22 65 -14 3 3 0 11 -6 18 -7 9 -9 30 -4 56 14 94 17 189 5
204 -16 18 -210 20 -228 2z m45 -193 c5 -4 2 -5 -4 -1 -7 4 -13 2 -13 -4 0 -6
-4 -9 -9 -6 -5 4 -11 0 -14 -6 -3 -7 -4 -3 -4 9 1 22 27 27 44 8z m91 -4 c-2
-8 -7 -16 -13 -18 -16 -4 -38 14 -31 25 10 16 47 10 44 -7z m32 9 c0 -5 -5
-10 -11 -10 -5 0 -7 5 -4 10 3 6 8 10 11 10 2 0 4 -4 4 -10z m-201 -144 c-2
-2 -15 -7 -29 -10 l-25 -7 25 15 c21 12 42 14 29 2z m-329 -133 c0 -11 -32
-34 -38 -28 -4 4 -1 10 6 12 6 3 10 8 8 12 -3 4 1 8 9 8 8 0 15 -2 15 -4z m37
-104 c1 -11 -5 -19 -13 -19 -10 0 -12 5 -8 13 6 8 3 8 -9 -1 -14 -12 -16 -11
-12 8 3 18 2 20 -10 10 -8 -6 -11 -18 -8 -26 3 -8 0 -14 -6 -14 -6 0 -11 5
-11 11 0 5 -4 8 -8 5 -5 -3 -9 1 -9 9 0 8 4 12 9 9 4 -3 8 -1 8 5 0 27 75 17
77 -10z m363 -59 c0 -3 -44 -6 -97 -7 -60 0 -88 2 -73 7 29 9 170 9 170 0z
m-427 -27 c-5 -12 -7 -12 -14 -1 -13 20 -11 28 5 22 8 -3 12 -12 9 -21z"/>
<path d="M620 1650 c0 -5 5 -10 11 -10 5 0 7 5 4 10 -3 6 -8 10 -11 10 -2 0
-4 -4 -4 -10z"/>
<path d="M555 1746 c0 -37 15 -44 15 -8 0 18 -4 32 -8 32 -4 0 -8 -11 -7 -24z"/>
<path d="M1170 1719 c0 -5 -4 -8 -9 -4 -5 3 -12 1 -15 -4 -11 -18 19 -18 38 0
17 17 18 19 3 19 -9 0 -17 -5 -17 -11z"/>
<path d="M1047 1693 c-10 -9 -9 -23 1 -23 5 0 9 7 9 15 0 17 -1 18 -10 8z"/>
<path d="M977 1679 c7 -7 15 -10 18 -7 3 3 -2 9 -12 12 -14 6 -15 5 -6 -5z"/>
<path d="M530 1610 c0 -5 5 -10 10 -10 6 0 10 5 10 10 0 6 -4 10 -10 10 -5 0
-10 -4 -10 -10z"/>
<path d="M860 1606 c0 -2 7 -7 16 -10 8 -3 12 -2 9 4 -6 10 -25 14 -25 6z"/>
<path d="M1110 1580 l-25 -8 28 -1 c15 -1 27 4 27 9 0 6 -1 10 -2 9 -2 -1 -14
-5 -28 -9z"/>
<path d="M1185 1580 c3 -5 11 -10 16 -10 6 0 7 5 4 10 -3 6 -11 10 -16 10 -6
0 -7 -4 -4 -10z"/>
<path d="M1025 1555 c-28 -12 -27 -13 35 -13 40 -1 59 2 50 7 -30 17 -56 19
-85 6z"/>
<path d="M910 1520 c-42 -4 -52 -7 -28 -8 20 -1 40 -7 43 -12 5 -8 11 -8 20 0
14 12 495 11 495 -2 0 -4 -23 -8 -52 -10 -47 -3 -50 -4 -33 -18 11 -9 16 -10
11 -2 -5 9 3 12 31 12 21 0 45 5 53 10 23 15 -5 29 -60 31 -163 5 -425 4 -480
-1z"/>
<path d="M612 1499 c-12 -4 -28 -6 -35 -3 -7 2 -29 -2 -48 -10 -33 -15 -29
-15 81 -14 63 0 105 3 93 5 -13 2 -23 9 -23 14 0 5 -5 9 -11 9 -5 0 -7 -4 -4
-10 9 -15 -6 -12 -19 4 -8 10 -18 12 -34 5z m23 -9 c-3 -5 -14 -10 -23 -9 -14
0 -13 2 3 9 27 11 27 11 20 0z"/>
<path d="M733 1502 c-19 -12 -1 -30 32 -32 44 -3 57 -1 51 8 -3 5 -21 7 -40 6
-35 -3 -49 9 -23 19 6 3 8 6 2 6 -5 0 -15 -3 -22 -7z"/>
<path d="M987 1492 c-3 -4 7 -13 24 -19 16 -6 29 -8 29 -3 0 4 9 6 20 3 12 -3
20 0 20 7 0 9 -10 11 -31 6 -18 -3 -38 -1 -45 4 -7 6 -15 7 -17 2z"/>
<path d="M1300 1490 c-13 -8 -12 -10 3 -10 9 0 17 5 17 10 0 12 -1 12 -20 0z"/>
<path d="M1470 1486 c-9 -12 -5 -16 24 -22 20 -3 34 -10 31 -14 -3 -5 3 -6 14
-3 10 3 22 0 25 -6 5 -7 -2 -11 -18 -11 -14 0 -28 -4 -31 -10 -7 -12 31 -12
59 -1 17 7 16 10 -13 40 -25 26 -37 32 -57 27 -17 -5 -23 -3 -19 4 9 15 -1 12
-15 -4z m64 -15 c4 -5 -3 -7 -14 -4 -23 6 -26 13 -6 13 8 0 17 -4 20 -9z"/>
<path d="M218 1483 c7 -3 16 -2 19 1 4 3 -2 6 -13 5 -11 0 -14 -3 -6 -6z"/>
<path d="M1104 1482 c5 -8 76 -4 76 4 0 2 -18 4 -41 4 -22 0 -38 -4 -35 -8z"/>
<path d="M1193 1476 c-10 -11 -9 -15 4 -20 9 -4 18 -4 21 -1 3 3 0 5 -8 5 -10
0 -10 3 0 15 16 19 -1 19 -17 1z"/>
<path d="M1130 1450 c0 -5 5 -10 10 -10 6 0 10 5 10 10 0 6 -4 10 -10 10 -5 0
-10 -4 -10 -10z"/>
<path d="M1465 1450 c3 -5 8 -10 11 -10 2 0 4 5 4 10 0 6 -5 10 -11 10 -5 0
-7 -4 -4 -10z"/>
<path d="M350 1443 c-46 -9 -42 -20 4 -13 82 12 579 6 584 -8 2 -7 11 -12 19
-12 9 0 13 -6 9 -15 -5 -13 -2 -14 16 -4 l22 12 -22 8 c-29 11 -29 22 1 14 21
-6 21 -5 2 7 -15 9 -96 13 -315 14 -162 1 -306 0 -320 -3z"/>
<path d="M1238 1443 c7 -3 16 -2 19 1 4 3 -2 6 -13 5 -11 0 -14 -3 -6 -6z"/>
<path d="M1415 1440 c-3 -5 -1 -10 4 -10 6 0 11 5 11 10 0 6 -2 10 -4 10 -3 0
-8 -4 -11 -10z"/>
<path d="M1330 1429 c-18 -4 -12 -6 23 -7 26 0 47 1 47 3 0 7 -47 10 -70 4z"/>
<path d="M1248 1423 c6 -2 18 -2 25 0 6 3 1 5 -13 5 -14 0 -19 -2 -12 -5z"/>
<path d="M1460 1420 c8 -5 20 -10 25 -10 6 0 3 5 -5 10 -8 5 -19 10 -25 10 -5
0 -3 -5 5 -10z"/>
<path d="M213 1402 c10 -10 14 -22 10 -27 -5 -4 -2 -5 5 -1 11 6 10 12 -4 27
-9 10 -19 19 -22 19 -3 0 2 -8 11 -18z"/>
<path d="M367 1406 c-17 -13 -17 -14 0 -21 17 -6 17 -7 -1 -21 -11 -8 -25 -14
-30 -14 -6 0 -4 4 4 10 8 5 12 12 8 15 -3 4 -16 -3 -27 -14 -16 -16 -36 -21
-98 -24 -66 -3 -61 -3 28 -4 93 -1 108 2 123 18 9 11 16 26 16 34 0 8 7 15 16
15 8 0 12 5 9 10 -8 14 -26 12 -48 -4z"/>
<path d="M433 1403 c0 -7 4 -13 9 -13 4 0 8 4 8 9 0 5 11 9 25 9 14 0 25 -4
25 -9 0 -5 8 -9 18 -9 14 0 14 2 3 9 -11 7 -7 10 15 14 16 2 -1 4 -37 4 -46
-1 -66 -5 -66 -14z"/>
<path d="M608 1413 c23 -2 59 -2 80 0 20 2 1 4 -43 4 -44 0 -61 -2 -37 -4z"/>
<path d="M880 1411 c0 -6 6 -11 13 -11 6 0 23 -3 37 -6 18 -4 21 -3 10 4 -27
17 -60 24 -60 13z"/>
<path d="M268 1403 c7 -3 16 -2 19 1 4 3 -2 6 -13 5 -11 0 -14 -3 -6 -6z"/>
<path d="M403 1375 c4 -12 36 -13 59 -3 10 5 18 3 21 -5 4 -9 7 -9 18 1 14 13
15 13 -63 16 -22 0 -37 -3 -35 -9z"/>
<path d="M875 1381 c-6 -11 13 -26 22 -17 4 3 1 6 -6 6 -7 0 -9 5 -6 10 3 6 4
10 1 10 -3 0 -7 -4 -11 -9z"/>
<path d="M1168 1383 c12 -2 32 -2 45 0 12 2 2 4 -23 4 -25 0 -35 -2 -22 -4z"/>
<path d="M524 1369 c-4 -7 74 -4 82 3 3 3 -14 5 -36 4 -23 0 -43 -4 -46 -7z"/>
<path d="M628 1373 c7 -3 16 -2 19 1 4 3 -2 6 -13 5 -11 0 -14 -3 -6 -6z"/>
<path d="M1263 1373 c9 -2 25 -2 35 0 9 3 1 5 -18 5 -19 0 -27 -2 -17 -5z"/>
<path d="M1365 1370 c-3 -5 1 -10 9 -10 9 0 16 5 16 10 0 6 -4 10 -9 10 -6 0
-13 -4 -16 -10z"/>
<path d="M1418 1373 c7 -3 16 -2 19 1 4 3 -2 6 -13 5 -11 0 -14 -3 -6 -6z"/>
<path d="M808 1363 c6 -2 18 -2 25 0 6 3 1 5 -13 5 -14 0 -19 -2 -12 -5z"/>
<path d="M1160 1365 c0 -28 22 -32 180 -38 127 -4 147 -3 85 4 -44 5 -117 9
-162 10 -67 0 -85 4 -93 17 -5 9 -9 13 -10 7z"/>
<path d="M1450 1363 c0 -6 -10 -9 -22 -7 -16 3 -15 1 5 -7 31 -12 47 -5 29 13
-8 8 -12 9 -12 1z"/>
<path d="M1520 1360 c0 -5 7 -7 15 -4 8 4 15 8 15 10 0 2 -7 4 -15 4 -8 0 -15
-4 -15 -10z"/>
<path d="M428 1352 c-95 -6 -45 -17 77 -17 77 0 125 4 125 10 0 10 -103 13
-202 7z"/>
<path d="M1490 1351 c0 -5 7 -11 14 -14 10 -4 13 -1 9 9 -6 15 -23 19 -23 5z"/>
<path d="M640 1339 c0 -4 19 -10 43 -12 23 -2 -4 -4 -60 -5 -91 -2 -102 -4
-96 -19 4 -11 3 -14 -5 -9 -7 4 -12 2 -12 -3 0 -15 20 -14 26 2 3 9 31 14 92
16 48 1 92 7 99 12 8 7 63 7 163 0 188 -14 240 -14 240 -1 0 5 -6 7 -14 4 -7
-3 -80 0 -162 6 -205 15 -314 18 -314 9z"/>
<path d="M938 1343 c6 -2 18 -2 25 0 6 3 1 5 -13 5 -14 0 -19 -2 -12 -5z"/>
<path d="M230 1310 c-8 -5 -6 -9 5 -13 9 -4 14 -3 11 1 -3 5 17 8 44 7 27 -1
47 2 44 6 -5 9 -89 8 -104 -1z"/>
<path d="M360 1313 c8 -3 19 -12 23 -19 4 -8 17 -14 28 -14 11 0 17 5 14 10
-4 6 -10 8 -15 5 -5 -3 -12 0 -15 6 -5 7 10 10 49 8 31 -1 59 0 63 4 3 4 -32
7 -78 6 -46 0 -77 -3 -69 -6z"/>
<path d="M1560 1310 c0 -5 5 -10 10 -10 6 0 10 5 10 10 0 6 -4 10 -10 10 -5 0
-10 -4 -10 -10z"/>
<path d="M858 1303 c7 -3 16 -2 19 1 4 3 -2 6 -13 5 -11 0 -14 -3 -6 -6z"/>
<path d="M585 1291 c8 -8 63 -6 58 2 -2 4 -17 6 -33 5 -16 -1 -27 -4 -25 -7z"/>
<path d="M790 1289 c0 -5 5 -7 10 -4 6 3 10 8 10 11 0 2 -4 4 -10 4 -5 0 -10
-5 -10 -11z"/>
<path d="M1018 1293 c7 -3 16 -2 19 1 4 3 -2 6 -13 5 -11 0 -14 -3 -6 -6z"/>
<path d="M1105 1289 c-4 -6 -18 -8 -31 -5 -18 5 -22 3 -18 -9 8 -19 14 -19 44
2 22 16 23 16 17 -1 -4 -10 -7 -24 -7 -32 0 -8 -7 -14 -16 -14 -8 0 -12 5 -9
10 3 6 -3 10 -14 10 -11 0 -23 4 -26 10 -4 6 -11 5 -19 -2 -13 -12 -17 -37 -7
-39 36 -5 49 -4 45 3 -3 4 -12 8 -20 8 -8 0 -14 5 -14 10 0 6 13 4 30 -5 42
-22 67 -12 68 25 1 31 -12 48 -23 29z"/>
<path d="M265 1282 c4 -4 11 -8 16 -8 5 -1 17 -3 27 -4 12 -1 10 -4 -8 -10
-21 -7 -21 -8 -5 -9 11 0 26 3 33 8 11 6 10 10 -5 16 -25 10 -66 15 -58 7z"/>
<path d="M477 1270 c5 -18 15 -19 239 -19 129 0 238 -2 242 -5 4 -2 14 -1 22
5 10 6 -5 9 -45 9 -46 0 -56 3 -45 11 12 9 11 9 -5 3 -28 -11 -222 -18 -243
-8 -20 8 -20 8 -49 -1 -18 -5 -23 -2 -23 12 0 10 -3 14 -8 8 -10 -14 -72 -19
-72 -6 0 6 -4 11 -9 11 -5 0 -7 -9 -4 -20z"/>
<path d="M680 1282 c0 -4 9 -8 20 -9 11 -1 18 2 15 8 -7 11 -35 12 -35 1z"/>
<path d="M938 1283 c6 -2 18 -2 25 0 6 3 1 5 -13 5 -14 0 -19 -2 -12 -5z"/>
<path d="M996 1277 c3 -10 9 -15 12 -12 3 3 0 11 -7 18 -10 9 -11 8 -5 -6z"/>
<path d="M230 1270 c-9 -6 -10 -10 -3 -10 6 0 15 5 18 10 8 12 4 12 -15 0z"/>
<path d="M390 1260 c-45 -7 -44 -7 18 -8 36 -1 62 2 62 8 0 11 -11 11 -80 0z"/>
<path d="M1176 1252 c-4 -7 -4 -12 1 -13 4 0 29 -2 56 -5 31 -3 47 -1 47 7 0
7 -16 10 -45 7 -25 -2 -46 1 -48 6 -2 6 -7 5 -11 -2z"/>
<path d="M1395 1243 c45 -5 54 -14 47 -49 -5 -28 -8 -29 -42 -8 -23 14 -23 14
-2 9 12 -4 22 -4 22 0 0 13 -48 22 -90 15 l-45 -7 38 -2 c22 0 36 -5 32 -11
-3 -5 0 -7 9 -4 10 4 14 0 12 -13 -2 -13 -15 -20 -47 -25 -35 -5 -31 -6 21 -4
36 2 74 6 85 10 14 6 16 5 6 -2 -7 -5 -9 -12 -5 -14 5 -3 3 -3 -3 -2 -7 2 -13
-3 -13 -11 0 -8 9 -15 19 -15 17 0 20 7 19 51 0 28 3 53 6 56 15 16 -20 33
-63 31 l-46 -1 40 -4z m9 -69 c16 -6 12 -24 -5 -24 -6 0 -8 4 -5 9 4 5 0 12
-6 14 -7 3 -10 6 -6 6 3 1 13 -2 22 -5z"/>
<path d="M170 1220 c8 -5 20 -10 25 -10 6 0 3 5 -5 10 -8 5 -19 10 -25 10 -5
0 -3 -5 5 -10z"/>
<path d="M1155 1210 c-3 -6 1 -7 9 -4 18 7 21 14 7 14 -6 0 -13 -4 -16 -10z"/>
<path d="M1199 1207 c5 -5 26 -7 47 -5 l39 3 -47 5 c-26 3 -43 1 -39 -3z"/>
<path d="M1659 1203 c-13 -16 -12 -17 4 -4 16 13 21 21 13 21 -2 0 -10 -8 -17
-17z"/>
<path d="M461 1182 c-58 -1 -111 -8 -118 -14 -10 -8 -13 -47 -13 -149 0 -139
0 -139 23 -139 23 0 23 1 20 108 -2 59 -5 123 -6 142 -2 31 1 35 24 38 l27 3
1 -115 c1 -66 -2 -116 -8 -116 -5 0 -11 -6 -14 -14 -4 -10 -1 -11 16 -3 21 10
22 16 21 128 l-1 118 56 0 c30 0 62 -6 70 -12 8 -7 12 -7 9 -2 -4 6 8 10 27
11 23 1 32 -3 28 -11 -6 -17 14 -29 23 -14 5 8 3 9 -6 4 -8 -5 -11 -3 -8 6 2
8 17 15 31 17 15 2 27 6 27 10 0 8 -65 9 -229 4z m-104 -239 c-2 -16 -4 -5 -4
22 0 28 2 40 4 28 2 -13 2 -35 0 -50z"/>
<path d="M1536 1175 c-4 -12 -14 -15 -36 -11 l-30 4 0 -52 c0 -29 -3 -56 -7
-60 -4 -4 -6 -27 -4 -53 2 -41 -7 -62 -29 -63 -3 0 -6 28 -8 63 -3 82 -14 121
-36 125 -13 3 -16 0 -11 -9 5 -8 4 -10 -3 -5 -6 4 -65 9 -132 11 -115 4 -120
3 -120 -16 0 -19 6 -20 137 -18 l138 1 8 -43 c4 -24 6 -59 4 -76 -1 -18 2 -34
8 -36 6 -2 12 -55 16 -128 6 -126 13 -105 9 29 -1 40 3 72 8 72 6 0 10 -42 10
-97 1 -149 2 -167 8 -161 3 4 5 97 4 207 l-1 201 42 0 41 0 -4 55 c-4 45 -2
55 10 50 8 -3 12 0 10 7 -7 19 -25 20 -32 3z m-6 -35 c0 -5 -5 -10 -12 -10 -6
0 -4 -7 5 -18 23 -26 21 -37 -8 -40 -27 -2 -44 16 -25 28 9 6 9 12 1 29 -11
19 -9 21 14 21 14 0 25 -4 25 -10z"/>
<path d="M1500 1095 c-7 -9 -8 -15 -2 -15 5 0 12 7 16 15 3 8 4 15 2 15 -2 0
-9 -7 -16 -15z"/>
<path d="M700 1165 c-13 -16 0 -21 16 -6 5 5 25 11 44 14 34 4 34 4 -6 5 -26
1 -46 -4 -54 -13z"/>
<path d="M818 1173 c12 -2 30 -2 40 0 9 3 -1 5 -23 4 -22 0 -30 -2 -17 -4z"/>
<path d="M893 1173 c9 -2 23 -2 30 0 6 3 -1 5 -18 5 -16 0 -22 -2 -12 -5z"/>
<path d="M1026 1171 c-4 -5 0 -12 6 -15 7 -4 3 -4 -10 -2 -19 4 -21 2 -11 -10
8 -10 8 -14 0 -14 -6 0 -11 -4 -11 -9 0 -5 11 -4 24 2 15 8 23 18 20 30 -2 14
1 17 12 13 9 -3 19 -6 22 -6 4 0 6 -63 5 -140 -2 -118 0 -140 12 -140 9 0 15
10 16 23 0 12 1 59 2 105 1 45 -1 82 -5 82 -3 0 -4 17 -1 39 5 36 4 38 -27 45
-42 8 -48 8 -54 -3z"/>
<path d="M855 1149 c-20 -8 -20 -8 1 -8 11 -1 25 -6 31 -12 7 -7 12 -6 17 6 4
10 2 14 -5 9 -6 -4 -14 -2 -18 3 -3 6 -15 7 -26 2z"/>
<path d="M940 1047 c0 -77 -4 -117 -12 -126 -10 -11 -10 -13 0 -7 8 5 12 0 12
-13 0 -13 -7 -22 -17 -22 -10 -1 -27 -3 -38 -5 -11 -2 -66 -6 -123 -10 -98 -7
-102 -6 -96 12 6 15 4 17 -6 7 -7 -6 -18 -9 -25 -7 -7 3 -16 1 -20 -5 -3 -6
-11 -11 -17 -11 -7 0 -6 5 1 14 10 12 8 13 -9 9 -11 -3 -23 -16 -26 -29 -7
-26 -27 -30 -69 -14 -17 7 -24 7 -20 0 3 -6 0 -10 -9 -10 -8 0 -16 4 -18 9 -3
10 -38 14 -103 12 -31 -1 -41 -5 -42 -18 -1 -15 8 -18 60 -20 38 -1 65 3 69
10 4 7 8 8 8 2 0 -6 28 -9 69 -7 55 3 69 7 64 18 -4 12 16 14 123 14 140 0
243 13 255 31 11 18 10 279 -1 279 -6 0 -10 -48 -10 -113z m-572 -214 c-10 -2
-26 -2 -35 0 -10 3 -2 5 17 5 19 0 27 -2 18 -5z m52 3 c0 -2 -7 -7 -16 -10 -8
-3 -12 -2 -9 4 6 10 25 14 25 6z"/>
<path d="M254 1125 c-4 -14 -4 -29 0 -32 3 -4 6 3 6 13 0 11 5 25 12 32 9 9 9
12 0 12 -6 0 -14 -11 -18 -25z"/>
<path d="M284 1125 c-3 -13 -4 -30 -1 -37 3 -7 6 -1 6 14 1 15 9 32 19 37 16
10 16 10 0 11 -10 0 -20 -10 -24 -25z"/>
<path d="M580 1146 c0 -2 7 -7 16 -10 8 -3 12 -2 9 4 -6 10 -25 14 -25 6z"/>
<path d="M970 1139 c0 -5 5 -7 10 -4 6 3 10 8 10 11 0 2 -4 4 -10 4 -5 0 -10
-5 -10 -11z"/>
<path d="M1168 1143 c23 -2 59 -2 80 0 20 2 1 4 -43 4 -44 0 -61 -2 -37 -4z"/>
<path d="M1573 1143 c-7 -2 -13 -9 -13 -14 0 -6 3 -8 8 -5 4 2 16 -2 27 -10
17 -13 18 -16 5 -25 -13 -9 -12 -10 3 -5 14 4 24 -6 15 -17 -2 -1 4 -10 12
-18 13 -14 16 -15 26 -1 8 11 14 -3 28 -64 28 -122 58 -234 63 -234 2 0 2 15
-2 33 -5 29 -5 30 7 12 7 -11 13 -24 13 -30 0 -5 8 -9 18 -9 14 2 15 -1 6 -13
-9 -10 -14 -11 -19 -2 -8 12 -17 1 -14 -18 1 -7 3 -37 4 -65 3 -50 3 -51 10
-18 4 19 8 27 9 17 1 -16 7 -18 41 -14 47 5 51 2 39 -30 -8 -21 -7 -24 6 -19
19 7 20 -16 3 -47 -7 -12 -14 -24 -15 -26 -4 -6 -33 27 -33 38 0 16 -12 13
-40 -10 -24 -20 -24 -20 -2 -9 13 6 26 10 28 7 8 -8 -9 -38 -20 -34 -11 4 -36
-36 -36 -59 0 -8 -6 -11 -15 -8 -10 4 -15 20 -15 45 0 21 -4 39 -9 39 -5 0 -9
-20 -9 -45 0 -28 4 -44 11 -42 7 1 12 -13 13 -35 1 -21 -2 -35 -7 -33 -4 3 -5
14 -2 25 3 11 0 20 -6 20 -6 0 -11 -17 -11 -38 0 -77 -28 -154 -71 -196 -40
-39 -40 -39 -46 -15 l-7 24 -7 -25 c-7 -22 -3 183 6 340 3 58 22 113 36 104
10 -6 12 29 2 39 -3 4 -12 2 -20 -4 -10 -9 -13 -8 -13 4 0 8 6 18 13 20 10 4
10 6 0 6 -9 1 -13 19 -13 58 0 44 3 54 12 45 7 -7 17 -12 22 -12 6 0 0 7 -12
16 -19 13 -22 24 -22 80 0 39 4 63 10 59 5 -3 7 -12 3 -20 -3 -8 -1 -15 4 -15
16 0 12 34 -6 55 -12 14 -18 42 -20 90 -2 39 -5 72 -8 75 -3 3 -3 -53 1 -125
8 -166 10 -430 3 -441 -2 -5 -8 -92 -12 -194 -5 -121 -11 -187 -19 -192 -6 -4
-24 -5 -41 -2 -24 4 -27 3 -18 -7 17 -17 44 -20 60 -7 10 8 12 7 7 -6 -9 -23
-61 -21 -76 4 -17 27 -32 26 -18 -1 13 -24 10 -31 -9 -20 -10 6 -11 17 -6 37
5 16 7 35 6 43 -2 12 2 11 23 -2 35 -23 44 -21 16 3 -13 11 -27 20 -32 20 -4
0 -8 7 -8 15 0 8 6 12 14 9 13 -5 15 24 18 188 2 106 0 197 -4 202 -5 6 -8
-70 -8 -167 0 -97 -4 -177 -9 -177 -4 0 -8 63 -7 141 1 77 -2 143 -6 145 -7 4
-16 -277 -10 -296 2 -6 10 -10 18 -10 8 0 14 -4 14 -9 0 -4 -12 -6 -27 -4 -20
3 -24 2 -14 -5 16 -12 6 -112 -12 -112 -29 1 -37 16 -26 49 6 17 9 34 6 37 -3
3 -8 -8 -12 -25 -5 -25 -12 -31 -33 -32 -15 -1 -48 -3 -75 -4 -26 -1 -62 1
-80 4 -28 6 -37 2 -69 -30 -20 -20 -40 -34 -43 -31 -3 3 -5 0 -5 -7 0 -7 -4
-9 -10 -6 -5 3 -10 2 -10 -2 0 -12 -107 -33 -156 -32 l-39 2 40 7 40 7 -50 1
c-30 1 -58 -4 -69 -13 -11 -9 -38 -14 -60 -13 l-41 1 39 4 c21 3 46 11 54 20
15 14 14 15 -8 7 -28 -9 -321 -8 -417 2 -42 4 -63 3 -63 -4 0 -6 24 -13 53
-15 28 -2 17 -3 -26 -2 -89 4 -156 35 -182 85 -14 27 -50 48 -62 36 -7 -6 22
-54 48 -79 18 -17 24 -14 19 8 -1 6 2 6 7 2 4 -5 8 -14 8 -20 0 -7 25 -20 55
-30 48 -16 95 -19 390 -20 382 -2 439 4 480 52 25 30 27 30 137 32 97 1 116
-1 145 -19 64 -40 149 -19 250 62 40 31 54 62 104 218 37 119 39 120 195 112
97 -5 132 -4 144 6 12 10 15 36 15 126 l0 114 -88 0 c-58 0 -94 -5 -107 -14
-16 -11 -22 -11 -32 -1 -13 14 10 18 162 29 28 2 3 2 -55 1 -58 -2 -118 -5
-135 -8 -59 -9 -79 18 -131 181 -52 163 -76 204 -112 196 -15 -3 -21 -1 -17 6
7 11 6 11 -12 3z m56 -30 c23 -23 33 -51 21 -58 -9 -6 -14 8 -7 19 1 3 -9 16
-22 30 -27 29 -20 36 8 9z m239 -415 c-9 -5 -8 -8 5 -8 9 0 17 6 17 13 0 9 2
9 8 0 10 -15 3 -93 -8 -93 -5 0 -12 5 -16 12 -4 7 -3 8 4 4 17 -10 15 3 -5 28
-17 20 -60 25 -48 5 4 -5 1 -9 -5 -9 -6 0 -8 11 -5 25 3 14 7 37 11 51 l5 27
25 -24 c18 -17 21 -25 12 -31z m212 -63 l0 -105 -80 0 c-44 0 -80 3 -81 8 -3
26 -5 188 -2 194 2 3 39 7 83 7 l80 1 0 -105z m-274 73 c-3 -13 -6 -29 -6 -37
0 -20 -10 -8 -15 19 -5 26 1 40 17 40 6 0 8 -10 4 -22z m-210 -90 c-11 -15
-16 -18 -16 -7 0 16 21 42 28 34 2 -2 -3 -14 -12 -27z m307 -60 c-10 -18 -20
-6 -15 19 5 24 6 25 12 8 4 -11 6 -23 3 -27z m7 -29 c0 -5 -9 -9 -20 -9 -11 0
-20 4 -20 8 0 4 9 8 20 9 11 1 20 -2 20 -8z m-1756 -384 c9 -14 15 -25 13 -25
-2 0 -13 11 -25 25 -12 14 -18 25 -13 25 5 0 16 -11 25 -25z m1033 9 c-3 -3
-12 -4 -19 -1 -8 3 -5 6 6 6 11 1 17 -2 13 -5z m-504 -101 c-18 -2 -48 -2 -65
0 -18 2 -4 4 32 4 36 0 50 -2 33 -4z"/>
<path d="M1875 670 c-3 -5 -1 -10 4 -10 6 0 11 5 11 10 0 6 -2 10 -4 10 -3 0
-8 -4 -11 -10z"/>
<path d="M1950 683 c0 -29 12 -24 17 7 2 11 -2 20 -7 20 -6 0 -10 -12 -10 -27z"/>
<path d="M2000 702 c0 -5 14 -9 30 -10 17 0 30 4 30 9 0 5 -13 9 -30 9 -16 0
-30 -4 -30 -8z"/>
<path d="M1988 673 c7 -3 16 -2 19 1 4 3 -2 6 -13 5 -11 0 -14 -3 -6 -6z"/>
<path d="M2018 553 c7 -3 16 -2 19 1 4 3 -2 6 -13 5 -11 0 -14 -3 -6 -6z"/>
<path d="M120 1105 c0 -19 2 -35 4 -35 2 0 6 16 8 35 2 19 0 35 -4 35 -4 0 -8
-16 -8 -35z"/>
<path d="M190 1106 c0 -20 2 -36 4 -36 8 0 12 61 4 66 -4 3 -8 -11 -8 -30z"/>
<path d="M311 1114 c0 -11 3 -14 6 -6 3 7 2 16 -1 19 -3 4 -6 -2 -5 -13z"/>
<path d="M1033 1104 c-15 -16 -16 -24 -4 -24 8 0 24 30 19 35 -2 2 -9 -3 -15
-11z"/>
<path d="M1001 1073 c-1 -16 5 -23 17 -23 10 0 13 3 6 8 -6 4 -14 14 -17 22
-4 10 -6 8 -6 -7z"/>
<path d="M220 1070 c0 -5 5 -10 10 -10 6 0 10 5 10 10 0 6 -4 10 -10 10 -5 0
-10 -4 -10 -10z"/>
<path d="M1055 1071 c-3 -5 -1 -12 5 -16 5 -3 10 1 10 9 0 18 -6 21 -15 7z"/>
<path d="M1190 1060 c-18 -12 -2 -12 25 0 13 6 15 9 5 9 -8 0 -22 -4 -30 -9z"/>
<path d="M1280 1050 c0 -5 4 -10 9 -10 6 0 13 5 16 10 3 6 -1 10 -9 10 -9 0
-16 -4 -16 -10z"/>
<path d="M453 1003 c0 -30 5 -53 11 -53 6 0 3 -5 -6 -11 -15 -8 -15 -13 -5
-23 16 -19 25 -11 20 16 -2 13 -8 46 -12 73 l-9 50 1 -52z"/>
<path d="M978 1043 c10 -4 10 -8 1 -19 -8 -10 -8 -14 0 -14 7 0 9 -9 5 -25 -4
-15 -2 -25 5 -25 6 0 8 7 4 16 -4 11 -2 15 7 12 25 -8 22 -28 -6 -38 -15 -6
-24 -13 -21 -16 6 -6 77 22 77 31 0 3 -4 3 -10 0 -5 -3 -10 1 -10 9 0 8 9 18
20 21 11 3 20 11 20 16 0 5 -12 2 -26 -7 -24 -16 -26 -16 -42 0 -14 13 -14 18
-4 25 11 7 10 10 -3 15 -9 3 -20 6 -23 5 -4 0 -1 -3 6 -6z"/>
<path d="M893 1005 c0 -22 2 -30 4 -17 2 12 2 30 0 40 -3 9 -5 -1 -4 -23z"/>
<path d="M1020 1025 c-7 -9 -8 -15 -2 -15 5 0 12 7 16 15 3 8 4 15 2 15 -2 0
-9 -7 -16 -15z"/>
<path d="M1366 995 c9 -14 17 -25 18 -25 0 0 2 12 3 27 1 19 -1 22 -8 12 -6
-10 -9 -10 -9 -1 0 6 -5 12 -10 12 -6 0 -3 -11 6 -25z"/>
<path d="M1481 1004 c0 -11 3 -14 6 -6 3 7 2 16 -1 19 -3 4 -6 -2 -5 -13z"/>
<path d="M1540 995 c0 -14 -4 -25 -10 -25 -5 0 -10 -5 -10 -11 0 -5 5 -7 10
-4 6 3 10 0 10 -8 0 -10 -7 -13 -20 -10 -15 4 -20 0 -20 -13 0 -14 3 -16 9 -6
11 17 34 -9 26 -30 -3 -8 -2 -25 4 -39 6 -17 9 3 9 74 -1 53 -2 97 -4 97 -2 0
-4 -11 -4 -25z"/>
<path d="M1442 985 c0 -16 2 -22 5 -12 2 9 2 23 0 30 -3 6 -5 -1 -5 -18z"/>
<path d="M1062 960 c0 -14 2 -19 5 -12 2 6 2 18 0 25 -3 6 -5 1 -5 -13z"/>
<path d="M1331 971 c-10 -7 -7 -9 12 -8 14 1 23 5 20 10 -6 9 -15 9 -32 -2z"/>
<path d="M1629 963 c-13 -16 -12 -17 4 -4 16 13 21 21 13 21 -2 0 -10 -8 -17
-17z"/>
<path d="M1140 960 c0 -5 7 -7 15 -4 8 4 15 8 15 10 0 2 -7 4 -15 4 -8 0 -15
-4 -15 -10z"/>
<path d="M887 939 c3 -10 9 -16 14 -13 13 8 11 21 -5 27 -10 4 -12 0 -9 -14z"/>
<path d="M1233 953 c9 -2 25 -2 35 0 9 3 1 5 -18 5 -19 0 -27 -2 -17 -5z"/>
<path d="M231 934 c0 -11 3 -14 6 -6 3 7 2 16 -1 19 -3 4 -6 -2 -5 -13z"/>
<path d="M1030 930 c0 -5 5 -10 10 -10 6 0 10 5 10 10 0 6 -4 10 -10 10 -5 0
-10 -4 -10 -10z"/>
<path d="M1665 890 c5 -36 4 -50 -5 -50 -9 0 -10 -3 -1 -14 8 -9 11 -87 9
-262 -2 -201 -5 -244 -15 -224 l-12 25 0 -23 c-1 -13 -5 -20 -11 -17 -6 3 -7
-1 -4 -9 4 -11 0 -16 -15 -16 -12 0 -21 6 -21 16 0 8 5 12 10 9 6 -3 10 1 10
11 0 13 -3 14 -15 4 -8 -7 -15 -27 -14 -44 0 -17 3 -25 6 -18 7 19 29 14 46
-10 16 -23 16 -22 12 15 -2 20 0 37 5 37 6 0 10 -5 10 -12 0 -9 3 -9 12 0 10
10 13 76 13 255 0 283 -4 377 -17 377 -6 0 -7 -20 -3 -50z"/>
<path d="M991 921 c-12 -7 -12 -13 -3 -24 15 -18 3 -31 -15 -16 -10 9 -13 8
-13 -4 0 -19 23 -24 79 -17 39 4 42 7 28 19 -10 7 -17 9 -17 4 0 -5 -12 -10
-27 -11 l-28 -2 25 21 c21 17 22 19 3 10 -14 -7 -24 -8 -28 -1 -3 5 1 10 9 10
9 0 16 5 16 10 0 12 -10 13 -29 1z"/>
<path d="M1124 910 c0 -14 9 -21 31 -25 41 -7 176 -1 197 9 11 5 18 2 21 -11
4 -16 5 -16 6 0 2 28 21 19 21 -11 0 -27 -1 -27 -67 -29 -186 -5 -191 -6 -159
-32 10 -9 15 -8 19 2 3 9 30 13 98 12 l94 0 12 -45 c11 -45 11 -44 12 41 1 54
-3 89 -11 97 -8 8 -54 12 -143 12 -124 0 -131 -1 -131 -20z m181 -10 c-36 -7
-154 -4 -162 4 -4 3 38 5 93 4 55 -1 86 -4 69 -8z"/>
<path d="M410 907 c-39 -31 -2 -50 89 -49 73 2 75 22 2 22 -34 0 -60 4 -57 9
10 16 -18 30 -34 18z m20 -17 c0 -5 -4 -10 -10 -10 -5 0 -10 5 -10 10 0 6 5
10 10 10 6 0 10 -4 10 -10z"/>
<path d="M1626 891 c-4 -6 0 -18 8 -27 12 -12 16 -12 16 -2 0 22 -17 42 -24
29z"/>
<path d="M690 879 c0 -5 5 -7 10 -4 6 3 10 8 10 11 0 2 -4 4 -10 4 -5 0 -10
-5 -10 -11z"/>
<path d="M828 883 c7 -3 16 -2 19 1 4 3 -2 6 -13 5 -11 0 -14 -3 -6 -6z"/>
<path d="M1496 875 c-9 -26 -7 -32 5 -12 6 10 9 21 6 23 -2 3 -7 -2 -11 -11z"/>
<path d="M1601 870 c-11 -62 0 -87 33 -74 16 6 13 24 -5 24 -6 0 -7 -4 -4 -10
3 -5 2 -10 -4 -10 -5 0 -12 19 -14 43 -2 23 -5 35 -6 27z"/>
<path d="M1103 843 c3 -28 1 -32 -22 -32 -14 0 -105 -3 -201 -7 -126 -5 -178
-11 -188 -20 -11 -12 -11 -14 0 -14 8 0 18 4 23 9 6 5 96 10 200 11 226 3 211
4 219 -15 4 -12 0 -14 -22 -10 -22 4 -23 4 -7 -3 16 -7 17 -10 5 -14 -10 -3
-9 -4 3 -3 23 4 22 -7 -5 -30 -15 -12 -18 -20 -10 -23 38 -12 74 117 37 132
-9 3 -20 16 -25 28 -9 21 -10 20 -7 -9z"/>
<path d="M1160 860 c-13 -8 -12 -10 3 -10 9 0 17 5 17 10 0 12 -1 12 -20 0z"/>
<path d="M190 857 c0 -23 23 -47 45 -47 14 0 25 4 25 9 0 6 -9 8 -20 6 -12 -2
-26 5 -35 18 -8 12 -15 18 -15 14z"/>
<path d="M1198 853 c7 -3 16 -2 19 1 4 3 -2 6 -13 5 -11 0 -14 -3 -6 -6z"/>
<path d="M1308 853 c7 -3 16 -2 19 1 4 3 -2 6 -13 5 -11 0 -14 -3 -6 -6z"/>
<path d="M1510 846 c0 -8 4 -17 9 -20 5 -4 7 3 4 14 -6 23 -13 26 -13 6z"/>
<path d="M935 840 c4 -6 -13 -10 -44 -10 -28 0 -51 -3 -51 -7 0 -5 31 -8 70
-8 38 0 70 3 70 8 0 4 -8 7 -17 7 -15 0 -16 2 -3 10 12 8 10 10 -8 10 -13 0
-20 -4 -17 -10z"/>
<path d="M270 831 c0 -6 4 -12 8 -15 5 -3 9 1 9 9 0 8 -4 15 -9 15 -4 0 -8 -4
-8 -9z"/>
<path d="M990 831 c0 -10 78 -7 88 3 3 3 -16 6 -41 6 -26 0 -47 -4 -47 -9z"/>
<path d="M1493 775 c0 -38 2 -53 4 -32 2 20 2 52 0 70 -2 17 -4 1 -4 -38z"/>
<path d="M669 819 c-9 -6 19 -8 73 -7 48 1 85 4 83 6 -8 9 -143 9 -156 1z"/>
<path d="M95 781 l0 -39 48 -6 c26 -4 47 -11 47 -16 0 -6 24 -10 54 -10 85 0
75 -17 -13 -23 -44 -3 -85 -9 -93 -13 -17 -12 -19 -315 -2 -326 7 -4 50 -11
98 -14 84 -7 86 -7 80 -30 -6 -23 -4 -24 45 -24 58 0 71 19 14 21 l-38 2 35 7
c30 6 32 8 10 10 -14 2 -31 3 -37 3 -7 -1 -11 2 -8 6 2 4 -19 9 -47 10 -29 1
-56 5 -62 9 -6 3 -22 5 -36 4 l-25 -2 3 158 3 158 37 -1 c20 0 53 5 72 11 38
11 70 8 70 -7 0 -5 -4 -9 -10 -9 -6 0 -10 -56 -10 -149 0 -176 1 -178 94 -173
31 2 56 7 56 11 0 4 -15 6 -32 5 -30 -3 -31 -3 -8 5 15 6 19 9 9 10 -19 1 -33
38 -17 43 7 3 8 30 3 76 -4 42 -11 69 -17 66 -5 -3 -6 -20 -3 -36 4 -17 3 -28
-1 -25 -5 3 -8 -28 -6 -68 3 -72 3 -72 -22 -72 -14 0 -23 3 -21 8 8 12 9 279
1 286 -3 3 -6 -31 -6 -77 0 -105 -8 -101 -11 5 -2 79 -2 80 24 83 17 2 24 8
21 17 -3 7 -1 16 5 20 6 3 11 -2 11 -12 1 -17 1 -17 11 0 5 9 15 17 20 17 6 0
7 -4 4 -10 -3 -5 1 -10 10 -10 9 0 13 5 10 10 -3 6 -2 10 4 10 5 0 12 -6 14
-12 3 -7 6 -4 6 7 1 19 -6 20 -142 23 -79 1 -143 7 -145 12 -2 6 -10 10 -18
10 -8 0 -14 6 -14 13 0 8 -4 7 -10 -3 -5 -8 -10 -10 -10 -3 0 6 -9 9 -20 6
-11 -3 -20 0 -20 6 0 10 14 15 34 12 5 -1 18 6 29 16 20 18 20 17 15 -4 -4
-13 -2 -26 3 -29 5 -3 9 9 9 25 0 28 -3 31 -32 31 -18 0 -42 3 -53 6 -18 4
-20 0 -20 -35z m65 12 c0 -5 -11 -9 -25 -9 -14 -1 -25 2 -25 7 0 5 11 9 25 9
14 0 25 -3 25 -7z m224 -108 c-7 -18 -5 -18 -40 0 l-29 15 37 0 c29 0 36 -3
32 -15z m-27 -237 c-3 -8 -6 -5 -6 6 -1 11 2 17 5 13 3 -3 4 -12 1 -19z"/>
<path d="M1356 807 c3 -10 9 -15 12 -12 3 3 0 11 -7 18 -10 9 -11 8 -5 -6z"/>
<path d="M1830 806 c0 -2 7 -7 16 -10 8 -3 12 -2 9 4 -6 10 -25 14 -25 6z"/>
<path d="M271 796 c3 -4 46 -9 94 -11 68 -4 91 -9 101 -22 11 -13 13 -14 9 -3
-4 12 3 16 29 18 19 1 37 -2 41 -8 8 -13 45 -13 45 0 0 17 43 4 46 -13 3 -19
-12 -23 -18 -6 -3 9 -10 9 -27 0 -12 -7 -20 -15 -17 -18 3 -3 12 0 21 7 10 8
15 9 15 1 0 -6 9 -11 20 -11 11 0 20 7 20 16 0 8 5 12 10 9 6 -3 10 -1 10 4 0
6 -7 11 -15 11 -8 0 -15 5 -15 11 0 6 6 9 13 6 8 -3 20 -1 28 4 9 6 -4 9 -39
9 -35 0 -59 -5 -69 -16 -10 -10 -18 -12 -22 -5 -4 6 -68 13 -146 17 -77 4
-137 4 -134 0z"/>
<path d="M1538 775 c2 -14 6 -25 8 -25 2 0 4 11 4 25 0 14 -4 25 -9 25 -4 0
-6 -11 -3 -25z"/>
<path d="M1635 780 c-3 -5 -1 -10 4 -10 6 0 11 5 11 10 0 6 -2 10 -4 10 -3 0
-8 -4 -11 -10z"/>
<path d="M720 764 c0 -8 5 -14 11 -14 5 0 7 5 4 10 -4 6 10 10 35 10 34 0 41
-3 36 -16 -3 -9 -2 -12 5 -9 5 4 21 0 34 -9 31 -21 33 -20 31 7 -1 20 4 22 42
21 23 0 42 2 42 6 0 4 -54 7 -120 8 -96 0 -120 -3 -120 -14z m140 -9 c14 -16
10 -18 -14 -9 -9 3 -16 10 -16 15 0 14 16 11 30 -6z"/>
<path d="M1055 770 c18 -8 17 -9 -8 -9 -20 -1 -26 -5 -20 -13 16 -26 10 -36
-21 -35 -61 1 -87 -3 -81 -13 3 -5 1 -10 -4 -10 -6 0 -11 5 -11 11 0 7 -10 9
-27 5 -16 -4 -53 -9 -83 -11 -54 -4 -55 -4 -25 11 l30 14 -35 -6 c-19 -3 -42
-11 -50 -18 -12 -9 -13 -8 -3 4 10 13 -1 15 -87 15 -54 1 -96 -3 -94 -7 3 -4
12 -8 20 -8 8 0 14 -4 14 -9 0 -4 -12 -6 -26 -3 -21 4 -25 9 -21 29 4 21 3 23
-10 11 -20 -21 -6 -45 30 -52 23 -5 35 -2 43 9 12 16 69 22 59 5 -3 -5 -12 -7
-20 -3 -8 3 -15 0 -15 -6 0 -18 38 -13 50 7 11 16 11 16 6 -1 -4 -12 -2 -17 6
-14 7 2 12 10 11 16 -2 6 2 11 8 11 6 0 9 -6 6 -14 -5 -12 15 -13 118 -10 83
3 132 1 146 -7 17 -9 20 -8 14 2 -6 9 -1 11 21 7 16 -3 43 -2 59 2 23 6 25 8
8 9 -18 1 -22 7 -20 29 1 15 10 30 20 34 21 9 13 28 -11 27 -14 0 -13 -2 3 -9z
m-30 -70 c4 -6 -6 -10 -22 -10 -22 0 -25 2 -13 10 19 12 27 12 35 0z m-128 -6
c-3 -3 -12 -4 -19 -1 -8 3 -5 6 6 6 11 1 17 -2 13 -5z"/>
<path d="M1184 772 c3 -5 0 -13 -6 -16 -10 -5 -10 -7 1 -12 11 -5 11 -8 0 -16
-12 -8 -12 -9 0 -6 17 5 22 46 8 55 -6 3 -7 1 -3 -5z"/>
<path d="M303 763 c9 -2 23 -2 30 0 6 3 -1 5 -18 5 -16 0 -22 -2 -12 -5z"/>
<path d="M388 763 c7 -3 16 -2 19 1 4 3 -2 6 -13 5 -11 0 -14 -3 -6 -6z"/>
<path d="M439 749 c11 -12 25 -19 33 -16 9 4 8 6 -3 6 -9 1 -19 8 -23 16 -3 8
-10 15 -16 15 -6 0 -2 -9 9 -21z"/>
<path d="M490 755 c0 -8 5 -15 11 -15 5 0 7 5 3 12 -5 8 -2 9 12 4 43 -18 48
-18 29 -3 -25 21 -55 22 -55 2z"/>
<path d="M1703 728 c1 -26 5 -46 10 -45 5 1 12 -4 14 -11 3 -8 -1 -10 -11 -6
-9 3 -16 1 -16 -5 0 -6 6 -11 14 -11 8 0 16 -3 19 -7 2 -5 2 -3 1 4 -2 6 2 13
8 15 7 3 5 10 -5 20 -9 8 -14 18 -11 20 2 3 -2 20 -10 39 l-15 34 2 -47z"/>
<path d="M682 740 c0 -14 2 -19 5 -12 2 6 2 18 0 25 -3 6 -5 1 -5 -13z"/>
<path d="M700 745 c0 -8 4 -15 10 -15 5 0 7 7 4 15 -4 8 -8 15 -10 15 -2 0 -4
-7 -4 -15z"/>
<path d="M1625 750 c3 -5 -3 -10 -15 -10 -17 0 -18 -3 -9 -13 11 -11 16 -10
29 2 17 16 17 31 -1 31 -6 0 -7 -4 -4 -10z"/>
<path d="M375 740 c-3 -5 -1 -10 4 -10 6 0 11 5 11 10 0 6 -2 10 -4 10 -3 0
-8 -4 -11 -10z"/>
<path d="M402 738 c2 -6 10 -13 16 -14 7 -1 8 0 2 3 -5 2 -8 9 -4 14 3 5 0 9
-6 9 -7 0 -10 -5 -8 -12z"/>
<path d="M1517 735 c-5 -11 0 -15 16 -15 12 0 18 4 12 8 -5 4 -13 11 -16 15
-4 4 -9 1 -12 -8z"/>
<path d="M738 733 c7 -3 16 -2 19 1 4 3 -2 6 -13 5 -11 0 -14 -3 -6 -6z"/>
<path d="M1066 725 c4 -8 10 -15 15 -15 4 0 6 7 3 15 -4 8 -10 15 -15 15 -4 0
-6 -7 -3 -15z"/>
<path d="M110 715 c0 -8 2 -15 4 -15 2 0 11 -3 20 -6 10 -4 16 -1 16 9 0 8 -7
18 -16 21 -22 9 -24 8 -24 -9z"/>
<path d="M1380 715 c-19 -22 -8 -25 13 -3 9 10 13 18 8 18 -5 0 -14 -7 -21
-15z"/>
<path d="M830 710 c0 -5 5 -10 10 -10 6 0 10 5 10 10 0 6 -4 10 -10 10 -5 0
-10 -4 -10 -10z"/>
<path d="M1403 695 c-7 -8 -10 -21 -7 -30 4 -9 3 -15 -2 -14 -22 4 -33 -2 -28
-16 4 -8 10 -15 15 -15 4 0 5 7 2 17 -4 11 -3 14 6 9 7 -4 11 -18 10 -29 -2
-34 0 -47 9 -47 4 0 8 32 9 70 1 39 1 70 0 70 -1 -1 -8 -7 -14 -15z"/>
<path d="M1529 693 c-1 -10 -1 -29 -1 -43 0 -14 -5 -28 -12 -32 -8 -6 -7 -11
3 -17 12 -8 13 -12 1 -25 -7 -9 -10 -19 -7 -23 4 -3 10 3 14 13 6 15 9 11 15
-21 4 -28 5 -20 3 27 -2 37 0 69 3 72 2 3 6 19 7 36 2 20 -2 30 -11 30 -8 0
-15 -8 -15 -17z"/>
<path d="M1635 700 c3 -5 8 -10 11 -10 2 0 4 5 4 10 0 6 -5 10 -11 10 -5 0 -7
-4 -4 -10z"/>
<path d="M1490 658 c0 -42 1 -42 13 -18 9 17 10 27 3 33 -7 4 -6 10 4 17 13 8
12 10 -2 10 -14 0 -18 -9 -18 -42z"/>
<path d="M1065 670 c-35 -6 -36 -7 -10 -9 l30 -1 0 -155 c0 -119 -3 -156 -13
-160 -16 -6 -52 12 -52 26 0 6 6 7 13 2 19 -12 37 -12 37 -1 0 6 -7 8 -15 4
-16 -6 -19 3 -15 44 2 25 -10 24 -14 -2 -3 -22 -17 -39 -40 -48 -20 -8 -19 -9
6 -9 15 -1 31 -8 36 -18 7 -12 17 -14 41 -10 24 5 31 3 31 -9 0 -10 -6 -14
-15 -10 -8 3 -15 1 -15 -4 0 -6 9 -10 19 -10 11 0 22 -4 26 -9 6 -11 -92 -17
-295 -17 l-145 -1 137 6 c75 3 140 10 144 14 5 4 -51 5 -123 1 -124 -6 -131
-5 -130 12 1 11 12 22 27 25 21 6 18 7 -13 8 -21 0 -36 4 -33 9 2 4 -25 5 -60
2 -36 -3 -68 -11 -72 -17 -4 -6 -21 -13 -37 -16 -29 -4 -28 -4 6 -6 19 0 40 4
45 9 15 15 101 15 119 0 14 -12 14 -15 -3 -30 -19 -18 -88 -20 -114 -4 -6 4
-33 7 -60 7 -26 -1 -48 3 -48 8 0 6 4 7 10 4 5 -3 10 -2 10 3 0 5 -16 9 -35
10 -36 1 -41 -3 -26 -27 6 -9 29 -13 77 -12 39 0 71 -4 75 -10 7 -12 414 -14
444 -3 8 4 15 1 15 -4 0 -6 -15 -13 -32 -15 -25 -3 -23 -4 10 -4 30 1 41 5 38
14 -4 9 9 12 49 10 59 -2 66 3 34 24 -21 15 -22 21 -17 137 2 36 -1 62 -7 62
-5 0 -3 5 5 10 11 7 12 10 2 10 -11 0 -13 16 -7 77 3 42 9 81 11 85 3 4 2 7
-3 7 -4 -1 -26 -5 -48 -9z m-615 -370 c0 -5 -4 -10 -10 -10 -5 0 -10 5 -10 10
0 6 5 10 10 10 6 0 10 -4 10 -10z"/>
<path d="M1430 635 c0 -25 5 -45 10 -45 6 0 10 20 10 45 0 25 -4 45 -10 45 -5
0 -10 -20 -10 -45z"/>
<path d="M1642 667 c-6 -7 -7 -19 -3 -26 6 -9 10 -5 13 13 6 30 5 31 -10 13z"/>
<path d="M470 660 c0 -5 5 -10 11 -10 5 0 7 5 4 10 -3 6 -8 10 -11 10 -2 0 -4
-4 -4 -10z"/>
<path d="M510 660 c8 -5 20 -10 25 -10 6 0 3 5 -5 10 -8 5 -19 10 -25 10 -5 0
-3 -5 5 -10z"/>
<path d="M1000 661 c0 -6 5 -11 11 -11 5 0 7 -4 4 -10 -3 -5 -1 -10 4 -10 16
0 13 16 -4 30 -10 9 -15 9 -15 1z"/>
<path d="M598 653 c7 -3 16 -2 19 1 4 3 -2 6 -13 5 -11 0 -14 -3 -6 -6z"/>
<path d="M688 653 c7 -3 16 -2 19 1 4 3 -2 6 -13 5 -11 0 -14 -3 -6 -6z"/>
<path d="M932 598 c-2 -35 -5 -71 -8 -80 -3 -10 -1 -18 5 -18 6 0 11 7 11 17
0 9 2 14 4 12 2 -2 1 -43 -3 -91 -5 -67 -4 -88 6 -88 16 0 14 301 -2 307 -6 2
-11 -23 -13 -59z"/>
<path d="M280 640 c0 -5 5 -10 10 -10 6 0 10 5 10 10 0 6 -4 10 -10 10 -5 0
-10 -4 -10 -10z"/>
<path d="M892 630 c0 -14 2 -19 5 -12 2 6 2 18 0 25 -3 6 -5 1 -5 -13z"/>
<path d="M912 625 c0 -16 2 -22 5 -12 2 9 2 23 0 30 -3 6 -5 -1 -5 -18z"/>
<path d="M1062 613 c-2 -35 -5 -41 -18 -36 -14 5 -13 2 2 -16 l19 -22 3 25 c2
14 1 40 -1 58 -3 29 -4 28 -5 -9z"/>
<path d="M2141 634 c0 -11 3 -14 6 -6 3 7 2 16 -1 19 -3 4 -6 -2 -5 -13z"/>
<path d="M416 625 c-3 -8 -1 -25 4 -37 8 -20 9 -18 9 15 1 39 -3 47 -13 22z"/>
<path d="M1702 610 c1 -18 6 -30 15 -30 13 0 17 -11 14 -40 -1 -13 0 -13 8 1
12 18 3 61 -10 53 -5 -3 -9 6 -9 20 0 14 -4 26 -9 26 -5 0 -9 -13 -9 -30z"/>
<path d="M987 623 c-8 -14 -7 -133 0 -133 5 0 8 32 9 70 0 70 -1 77 -9 63z"/>
<path d="M1780 620 c0 -5 9 -10 21 -10 11 0 17 5 14 10 -3 6 -13 10 -21 10 -8
0 -14 -4 -14 -10z"/>
<path d="M1020 605 c-8 -9 -8 -15 -2 -15 12 0 26 19 19 26 -2 2 -10 -2 -17
-11z"/>
<path d="M1830 600 c0 -30 15 -56 24 -42 3 5 -1 23 -9 38 l-15 29 0 -25z"/>
<path d="M892 585 c0 -11 3 -29 8 -40 11 -25 11 1 0 35 -6 20 -8 21 -8 5z"/>
<path d="M1490 509 c0 -104 7 -126 30 -101 13 14 12 15 -3 9 -17 -6 -18 1 -16
83 1 50 -1 93 -5 97 -3 3 -6 -36 -6 -88z"/>
<path d="M1630 590 c0 -5 7 -7 15 -4 8 4 15 8 15 10 0 2 -7 4 -15 4 -8 0 -15
-4 -15 -10z"/>
<path d="M1760 589 c0 -5 9 -9 20 -9 11 0 20 2 20 4 0 2 -9 6 -20 9 -11 3 -20
1 -20 -4z"/>
<path d="M280 580 c0 -5 7 -10 16 -10 8 0 12 5 9 10 -3 6 -10 10 -16 10 -5 0
-9 -4 -9 -10z"/>
<path d="M1271 574 c0 -11 3 -14 6 -6 3 7 2 16 -1 19 -3 4 -6 -2 -5 -13z"/>
<path d="M1597 576 c-4 -10 -3 -15 3 -11 6 3 11 -6 11 -22 1 -23 2 -24 6 -6 2
12 0 30 -5 39 -8 15 -10 15 -15 0z"/>
<path d="M460 559 c0 -5 5 -7 10 -4 6 3 10 8 10 11 0 2 -4 4 -10 4 -5 0 -10
-5 -10 -11z"/>
<path d="M1700 560 c0 -5 5 -10 10 -10 6 0 10 5 10 10 0 6 -4 10 -10 10 -5 0
-10 -4 -10 -10z"/>
<path d="M1521 514 c0 -11 3 -14 6 -6 3 7 2 16 -1 19 -3 4 -6 -2 -5 -13z"/>
<path d="M1361 504 c0 -11 3 -14 6 -6 3 7 2 16 -1 19 -3 4 -6 -2 -5 -13z"/>
<path d="M1390 506 c0 -8 6 -16 14 -19 10 -4 12 0 9 14 -6 22 -23 26 -23 5z"/>
<path d="M1055 500 c-3 -5 -1 -10 4 -10 6 0 11 5 11 10 0 6 -2 10 -4 10 -3 0
-8 -4 -11 -10z"/>
<path d="M910 452 l5 -47 3 39 c2 21 0 42 -5 47 -4 4 -6 -13 -3 -39z"/>
<path d="M1268 483 c7 -3 16 -2 19 1 4 3 -2 6 -13 5 -11 0 -14 -3 -6 -6z"/>
<path d="M1541 474 c0 -11 3 -14 6 -6 3 7 2 16 -1 19 -3 4 -6 -2 -5 -13z"/>
<path d="M1056 464 c-3 -9 -2 -23 4 -32 7 -14 9 -10 10 16 0 35 -5 41 -14 16z"/>
<path d="M885 460 c-3 -5 -1 -10 4 -10 6 0 11 5 11 10 0 6 -2 10 -4 10 -3 0
-8 -4 -11 -10z"/>
<path d="M1010 460 c0 -5 5 -10 10 -10 6 0 10 5 10 10 0 6 -4 10 -10 10 -5 0
-10 -4 -10 -10z"/>
<path d="M1602 450 c0 -14 2 -19 5 -12 2 6 2 18 0 25 -3 6 -5 1 -5 -13z"/>
<path d="M450 426 c0 -8 4 -17 9 -20 5 -4 7 3 4 14 -6 23 -13 26 -13 6z"/>
<path d="M977 420 c-6 -24 10 -37 26 -21 9 9 7 11 -8 5 -16 -6 -18 -5 -7 7 14
15 16 29 3 29 -5 0 -11 -9 -14 -20z"/>
<path d="M1632 406 c7 -8 15 -12 17 -11 5 6 -10 25 -20 25 -5 0 -4 -6 3 -14z"/>
<path d="M203 403 c-7 -3 -13 -10 -13 -16 0 -8 3 -8 11 0 6 6 18 9 25 6 8 -3
14 -3 14 0 0 8 -24 14 -37 10z"/>
<path d="M278 403 c7 -3 16 -2 19 1 4 3 -2 6 -13 5 -11 0 -14 -3 -6 -6z"/>
<path d="M570 400 c-9 -6 -10 -10 -3 -10 6 0 15 5 18 10 8 12 4 12 -15 0z"/>
<path d="M1281 394 c0 -11 3 -14 6 -6 3 7 2 16 -1 19 -3 4 -6 -2 -5 -13z"/>
<path d="M1402 385 c0 -16 2 -22 5 -12 2 9 2 23 0 30 -3 6 -5 -1 -5 -18z"/>
<path d="M608 388 c7 -7 20 -7 39 0 28 9 27 9 -10 10 -26 0 -36 -3 -29 -10z"/>
<path d="M557 369 c7 -7 15 -10 18 -7 3 3 -2 9 -12 12 -14 6 -15 5 -6 -5z"/>
<path d="M705 360 c-3 -5 -1 -10 4 -10 6 0 11 5 11 10 0 6 -2 10 -4 10 -3 0
-8 -4 -11 -10z"/>
<path d="M1501 354 c0 -11 3 -14 6 -6 3 7 2 16 -1 19 -3 4 -6 -2 -5 -13z"/>
<path d="M880 340 c0 -13 11 -13 30 0 12 8 11 10 -7 10 -13 0 -23 -4 -23 -10z"/>
<path d="M116 324 c-9 -23 -8 -24 14 -24 11 0 20 6 20 14 0 20 -27 28 -34 10z"/>
<path d="M964 324 c3 -9 6 -20 6 -25 0 -5 5 -9 10 -9 6 0 10 8 8 18 -2 11 3
16 15 14 9 -2 17 2 17 8 0 5 -14 10 -31 10 -24 0 -30 -3 -25 -16z"/>
<path d="M1520 330 c0 -5 5 -10 11 -10 5 0 7 5 4 10 -3 6 -8 10 -11 10 -2 0
-4 -4 -4 -10z"/>
<path d="M1120 318 c0 -10 2 -10 152 -12 71 0 128 2 128 6 0 4 -63 8 -140 10
-77 2 -140 0 -140 -4z"/>
<path d="M1480 310 c0 -11 2 -20 4 -20 2 0 6 9 9 20 3 11 1 20 -4 20 -5 0 -9
-9 -9 -20z"/>
<path d="M620 310 c-12 -7 -10 -9 8 -7 12 0 22 5 22 9 0 11 -12 10 -30 -2z"/>
<path d="M827 313 c18 -2 50 -2 70 0 21 2 7 4 -32 4 -38 0 -55 -2 -38 -4z"/>
<path d="M217 304 c9 -4 10 -11 3 -25 -8 -13 -7 -19 0 -19 6 0 8 -4 5 -10 -3
-6 1 -7 9 -4 9 3 16 10 16 16 0 5 -4 6 -10 3 -5 -3 -10 1 -10 10 0 14 6 16 28
10 17 -4 23 -3 17 3 -5 5 -23 12 -40 15 -16 4 -24 4 -18 1z"/>
<path d="M1000 301 c0 -5 11 -8 25 -7 38 4 43 16 7 16 -18 0 -32 -4 -32 -9z"/>
<path d="M1505 276 c5 -24 3 -28 -12 -22 -14 6 -16 5 -5 -5 19 -20 35 2 22 32
-10 23 -10 23 -5 -5z"/>
<path d="M1520 290 c0 -5 5 -10 11 -10 5 0 7 5 4 10 -3 6 -8 10 -11 10 -2 0
-4 -4 -4 -10z"/>
<path d="M100 247 c0 -42 2 -45 31 -51 69 -14 75 -10 71 39 -4 41 -6 45 -31
45 -14 0 -36 3 -48 6 -21 6 -23 3 -23 -39z m35 12 c-4 -5 1 -9 10 -9 9 0 13
-5 10 -10 -4 -6 -11 -8 -16 -5 -5 4 -9 1 -9 -4 0 -17 15 -13 34 8 17 18 17 19
-1 24 -14 4 -14 5 5 6 18 1 22 -4 22 -28 0 -26 -3 -29 -34 -29 -32 0 -34 2
-34 34 0 19 4 31 9 28 5 -3 7 -10 4 -15z"/>
<path d="M1168 278 c9 -9 15 -9 24 0 9 9 7 12 -12 12 -19 0 -21 -3 -12 -12z"/>
<path d="M1378 283 c7 -3 16 -2 19 1 4 3 -2 6 -13 5 -11 0 -14 -3 -6 -6z"/>
<path d="M325 261 c-6 -5 -19 -11 -30 -13 -11 -2 19 -10 67 -17 48 -7 93 -11
100 -8 7 2 -19 7 -59 11 -55 6 -70 11 -66 22 6 16 1 18 -12 5z"/>
<path d="M1376 263 c-11 -11 -7 -20 9 -20 8 0 15 4 15 8 0 11 -16 20 -24 12z"/>
<path d="M1587 256 c-18 -14 -17 -15 3 -21 14 -5 18 -10 12 -18 -5 -7 -9 -19
-9 -29 0 -15 2 -15 24 -1 39 26 29 60 -16 53 -13 -1 -13 1 -2 14 16 19 12 20
-12 2z m33 -51 c-7 -9 -15 -13 -17 -11 -7 7 7 26 19 26 6 0 6 -6 -2 -15z"/>
<path d="M373 253 c9 -2 25 -2 35 0 9 3 1 5 -18 5 -19 0 -27 -2 -17 -5z"/>
<path d="M457 247 c12 -5 24 -17 26 -26 2 -9 3 -6 2 7 -2 17 3 22 19 22 12 0
27 -5 34 -12 9 -9 12 -9 12 -1 0 15 -25 22 -75 21 -35 0 -37 -2 -18 -11z"/>
<path d="M1110 252 c0 -7 -11 -12 -25 -12 -14 0 -25 -4 -25 -10 0 -5 6 -10 13
-10 19 0 53 27 44 36 -4 4 -7 2 -7 -4z"/>
<path d="M1166 248 c7 -11 34 -10 34 1 0 6 -9 9 -19 8 -11 0 -17 -5 -15 -9z"/>
<path d="M1278 248 c6 -6 18 -8 28 -6 14 3 12 5 -9 10 -19 3 -25 2 -19 -4z"/>
<path d="M560 233 c0 -11 3 -14 8 -7 4 6 14 14 22 17 10 4 8 6 -7 6 -16 1 -23
-5 -23 -16z"/>
<path d="M615 240 c3 -5 8 -10 11 -10 2 0 4 5 4 10 0 6 -5 10 -11 10 -5 0 -7
-4 -4 -10z"/>
<path d="M848 243 c6 -2 18 -2 25 0 6 3 1 5 -13 5 -14 0 -19 -2 -12 -5z"/>
<path d="M1527 229 c-5 -19 -8 -20 -21 -9 -9 7 -16 8 -16 2 0 -5 7 -13 16 -16
9 -4 14 -13 10 -21 -3 -8 -1 -15 5 -15 6 0 9 8 8 18 -1 9 1 25 6 35 4 10 5 20
3 23 -3 3 -8 -5 -11 -17z"/>
<path d="M506 225 c-3 -9 0 -15 9 -15 16 0 20 16 6 24 -5 3 -11 -1 -15 -9z"/>
<path d="M319 214 c18 -13 27 -14 44 -5 21 10 20 10 -4 5 -15 -3 -30 -1 -33 5
-4 6 -12 11 -19 11 -6 0 -1 -7 12 -16z"/>
<path d="M920 220 c44 -7 44 -7 10 -10 -20 -1 -27 -4 -17 -7 10 -3 30 -2 45 2
37 9 9 25 -43 23 l-40 -1 45 -7z"/>
<path d="M1403 217 c3 -9 2 -19 -3 -22 -6 -4 -10 -16 -10 -28 0 -27 15 -11 24
25 4 16 1 30 -6 34 -8 5 -9 2 -5 -9z"/>
<path d="M590 210 c0 -5 5 -10 10 -10 6 0 10 5 10 10 0 6 -4 10 -10 10 -5 0
-10 -4 -10 -10z"/>
<path d="M1018 208 c16 -16 94 -16 100 0 3 11 1 11 -17 0 -17 -10 -25 -10 -41
0 -26 16 -59 17 -42 0z"/>
<path d="M548 203 c7 -3 16 -2 19 1 4 3 -2 6 -13 5 -11 0 -14 -3 -6 -6z"/>
<path d="M763 203 c9 -2 23 -2 30 0 6 3 -1 5 -18 5 -16 0 -22 -2 -12 -5z"/>
<path d="M1727 203 c-4 -3 -7 -11 -7 -17 0 -6 5 -5 12 2 6 6 9 14 7 17 -3 3
-9 2 -12 -2z"/>
<path d="M290 196 c0 -2 7 -6 15 -10 8 -3 15 -1 15 4 0 6 -7 10 -15 10 -8 0
-15 -2 -15 -4z"/>
<path d="M510 190 c-104 -5 -90 -6 85 -6 199 -1 233 2 100 8 -34 2 -117 1
-185 -2z"/>
<path d="M978 193 c6 -2 18 -2 25 0 6 3 1 5 -13 5 -14 0 -19 -2 -12 -5z"/>
<path d="M220 182 c-31 -11 -40 -41 -11 -39 11 0 17 5 15 9 -3 5 -11 5 -17 2
-7 -4 -8 -3 -4 1 9 10 189 7 197 -4 3 -3 20 -8 39 -10 24 -2 31 1 26 9 -5 8
-2 10 11 7 28 -9 267 -10 452 -3 128 5 162 4 162 -6 1 -8 5 -7 14 4 7 10 17
14 21 10 5 -4 5 -2 2 4 -4 7 -37 10 -94 7 -200 -9 -759 -6 -778 4 -11 6 -27 8
-35 5z"/>
<path d="M338 183 c7 -3 16 -2 19 1 4 3 -2 6 -13 5 -11 0 -14 -3 -6 -6z"/>
<path d="M1664 156 c1 -8 5 -18 8 -22 4 -3 5 1 4 10 -1 8 -5 18 -8 22 -4 3 -5
-1 -4 -10z"/>
<path d="M321 133 c-1 -18 -8 -22 -43 -26 l-43 -4 43 -1 c43 -2 60 12 49 40
-3 7 -6 3 -6 -9z"/>
<path d="M368 133 c7 -3 16 -2 19 1 4 3 -2 6 -13 5 -11 0 -14 -3 -6 -6z"/>
<path d="M498 133 c12 -2 30 -2 40 0 9 3 -1 5 -23 4 -22 0 -30 -2 -17 -4z"/>
<path d="M568 133 c6 -2 18 -2 25 0 6 3 1 5 -13 5 -14 0 -19 -2 -12 -5z"/>
<path d="M1010 133 c14 -3 29 -10 33 -17 6 -7 7 -6 4 4 -2 8 -16 16 -33 17
-25 1 -26 0 -4 -4z"/>
<path d="M1589 103 c-12 -16 -12 -17 2 -6 9 7 20 9 24 5 5 -4 5 -1 1 6 -9 16
-11 15 -27 -5z"/>
<path d="M493 103 c9 -2 23 -2 30 0 6 3 -1 5 -18 5 -16 0 -22 -2 -12 -5z"/>
<path d="M918 103 c7 -3 16 -2 19 1 4 3 -2 6 -13 5 -11 0 -14 -3 -6 -6z"/>
<path d="M990 100 c0 -5 9 -10 21 -10 11 0 17 5 14 10 -3 6 -13 10 -21 10 -8
0 -14 -4 -14 -10z"/>
<path d="M678 93 c7 -3 16 -2 19 1 4 3 -2 6 -13 5 -11 0 -14 -3 -6 -6z"/>
<path d="M858 93 c7 -3 16 -2 19 1 4 3 -2 6 -13 5 -11 0 -14 -3 -6 -6z"/>
<path d="M1090 36 l-25 -14 26 1 c14 1 26 8 26 15 0 6 -1 12 -1 12 -1 -1 -12
-7 -26 -14z"/>
</g>
</svg>
