<?xml version="1.0" standalone="no"?>
<!DOCTYPE svg PUBLIC "-//W3C//DTD SVG 20010904//EN"
 "http://www.w3.org/TR/2001/REC-SVG-20010904/DTD/svg10.dtd">
<svg version="1.0" xmlns="http://www.w3.org/2000/svg"
 width="300.000000pt" height="300.000000pt" viewBox="0 0 300.000000 300.000000"
 preserveAspectRatio="xMidYMid meet">
<metadata>
Created by potrace 1.10, written by Peter Selinger 2001-2011
</metadata>
<g transform="translate(0.000000,300.000000) scale(0.100000,-0.100000)"
fill="#000000" stroke="none">
<path d="M2275 2895 c-119 -30 -144 -43 -169 -93 -13 -26 -33 -74 -46 -107
-19 -53 -30 -67 -96 -118 -41 -31 -74 -61 -74 -66 0 -6 8 -12 19 -16 16 -5 17
-11 11 -39 -9 -41 2 -116 21 -148 23 -37 13 -68 -21 -68 -16 0 -32 -4 -35 -10
-9 -14 -193 -13 -288 2 -53 8 -84 8 -95 2 -10 -6 -35 -9 -57 -9 -22 1 -137 5
-256 10 -118 4 -228 5 -242 1 -15 -3 -45 -22 -67 -42 -109 -99 -87 -297 53
-482 84 -112 131 -192 119 -204 -15 -15 -15 -117 0 -232 13 -103 36 -140 86
-134 22 2 30 -3 44 -32 10 -19 18 -38 18 -44 0 -5 12 -25 26 -43 21 -27 28
-53 35 -114 8 -73 7 -86 -17 -157 -14 -42 -26 -87 -26 -99 0 -18 -5 -22 -22
-18 -11 2 -187 23 -390 46 l-368 42 -85 -44 c-68 -34 -82 -44 -67 -50 17 -7
17 -8 -3 -8 -13 -1 -48 -18 -79 -38 l-56 -38 7 -65 c4 -36 8 -73 8 -82 1 -21
-50 -14 687 -98 758 -86 700 -78 700 -96 0 -27 32 -64 55 -64 12 0 41 13 63
30 52 37 75 39 66 6 -10 -42 50 -45 84 -4 9 12 73 6 389 -33 l378 -46 60 42
c33 24 89 69 124 102 l64 59 -2 69 c-1 39 -5 73 -9 77 -4 4 -98 15 -210 25
l-202 17 0 42 c0 24 -4 54 -10 68 -9 25 -7 28 90 76 121 61 163 97 186 158 10
26 29 56 42 68 14 11 22 26 18 32 -4 6 10 43 30 82 32 63 35 75 30 127 -3 32
-10 177 -15 323 -6 146 -12 298 -14 339 -3 69 -1 78 30 129 26 44 33 67 33
108 0 29 -5 65 -10 80 -8 19 -6 62 6 153 9 69 14 142 11 161 -10 77 -40 153
-73 190 -23 26 -34 47 -34 68 0 39 -44 85 -132 138 -34 21 -66 42 -69 47 -7
10 -67 22 -149 32 -25 2 -72 -2 -105 -10z m170 -19 c94 -25 248 -119 261 -160
13 -38 5 -100 -23 -178 l-28 -78 -56 0 c-36 0 -99 -13 -174 -36 -161 -49 -173
-48 -291 20 -88 50 -104 56 -156 56 -31 0 -59 4 -62 9 -3 5 27 33 67 64 62 48
75 63 91 109 10 29 29 77 43 105 24 51 26 53 91 72 118 35 160 38 237 17z
m341 -354 c15 -55 15 -61 -6 -159 -18 -88 -20 -120 -14 -218 6 -96 4 -122 -10
-160 -10 -24 -15 -53 -12 -62 5 -17 -9 -53 -16 -43 -2 3 -16 20 -31 38 -14 18
-24 38 -21 45 2 7 -2 32 -11 56 -8 24 -15 72 -15 107 0 75 -15 85 -25 16 -6
-47 6 -127 26 -163 7 -14 6 -19 -2 -19 -8 0 -7 -6 2 -19 8 -10 34 -47 58 -82
l45 -63 3 -246 c2 -135 8 -275 13 -312 18 -121 14 -162 -24 -234 -19 -36 -33
-71 -30 -79 10 -26 -15 -24 -133 13 -79 25 -118 41 -115 50 6 19 42 15 42 -5
0 -16 2 -16 10 -3 9 13 12 13 23 -1 6 -9 18 -14 25 -11 7 2 20 -4 27 -14 8
-11 15 -14 15 -7 0 9 9 8 35 -3 19 -8 35 -10 35 -5 0 10 -114 54 -207 81 -35
9 -63 14 -63 9 0 -4 11 -11 25 -16 16 -5 22 -12 16 -21 -13 -21 -39 -3 -62 45
l-21 44 50 102 c49 99 80 192 69 203 -3 3 -17 -34 -32 -81 l-26 -87 -28 26
c-38 37 -54 95 -46 168 5 45 3 64 -9 83 -15 23 -14 30 38 147 62 142 151 324
172 352 14 19 15 19 44 -9 32 -31 54 -28 26 4 -25 27 -29 77 -13 154 12 61 12
66 -2 53 -14 -13 -16 -11 -18 15 -5 59 -5 75 2 115 6 35 4 45 -14 63 -30 30
-56 26 -99 -17 -60 -60 -76 -182 -27 -204 22 -10 22 -11 9 -67 -7 -31 -13 -77
-14 -102 0 -61 -24 -137 -55 -179 l-26 -35 6 36 c4 23 3 39 -4 44 -7 4 -9 20
-5 41 10 56 -9 38 -43 -39 -122 -281 -133 -302 -150 -300 -10 1 -99 26 -198
56 l-180 54 3 32 c3 45 34 132 84 241 38 83 43 90 51 69 5 -13 9 -65 8 -116
-1 -63 3 -104 14 -129 21 -52 30 -36 11 20 -9 26 -16 67 -16 92 0 38 3 45 16
40 10 -4 14 -2 10 6 -2 7 -12 37 -21 66 -16 51 -16 62 0 107 5 16 5 17 -4 5
-9 -12 -11 -9 -10 15 0 17 4 48 8 70 l9 40 1 -53 c1 -50 18 -98 46 -132 7 -8
15 -27 19 -42 16 -67 121 -122 196 -101 l38 10 -24 -45 c-26 -48 -30 -72 -14
-72 6 0 10 4 10 8 0 13 72 94 78 87 6 -6 42 44 42 59 0 5 -10 1 -21 -10 -12
-10 -20 -14 -17 -9 2 6 12 28 22 50 10 22 21 54 23 70 3 17 16 63 29 104 27
84 32 178 10 187 -8 3 -23 7 -33 8 -21 3 -20 19 1 22 21 3 86 24 121 38 17 7
53 14 80 16 28 1 61 3 75 4 19 1 30 12 48 49 12 26 27 47 32 47 5 0 12 16 16
35 9 48 28 31 50 -43z m-66 55 c0 -7 -7 -22 -15 -33 -13 -17 -13 -16 -3 14 13
34 18 40 18 19z m-665 -107 c38 -19 35 -19 -27 -4 -16 3 -28 2 -28 -4 0 -5 18
-12 39 -16 22 -3 47 -9 57 -13 13 -5 15 -3 9 8 -5 9 -5 11 2 4 16 -15 26 -55
14 -55 -6 0 -7 -14 -4 -34 3 -22 -2 -49 -16 -81 -26 -58 -21 -69 8 -22 14 22
21 52 21 83 l1 49 20 -38 c25 -47 34 -42 20 10 -16 55 -14 57 23 34 18 -12 50
-21 70 -21 29 0 43 -7 62 -29 14 -17 34 -33 44 -36 23 -7 21 -31 -12 -142 -21
-70 -22 -72 -75 -98 -81 -39 -131 -55 -176 -55 -34 0 -46 6 -77 39 -51 53 -61
103 -56 276 2 77 4 146 5 153 1 17 30 15 76 -8z m761 -157 c-9 -65 -17 -134
-19 -153 -2 -19 -5 -1 -5 40 -1 41 5 110 13 153 8 43 15 81 15 85 0 3 3 3 6
-1 4 -3 -1 -59 -10 -124z m-857 2 c-1 -21 -28 51 -28 75 0 18 5 12 15 -20 7
-25 13 -49 13 -55z m611 50 c15 -18 -1 -72 -38 -127 -19 -29 -31 -38 -53 -38
-26 0 -29 3 -29 34 0 46 16 85 48 119 29 30 53 34 72 12z m-180 -47 c0 -5 -9
-4 -20 2 -11 6 -20 12 -20 14 0 2 9 2 20 -1 11 -3 20 -9 20 -15z m-1093 -104
l142 -6 -5 -32 c-3 -17 -16 -81 -30 -143 -13 -62 -24 -115 -24 -118 0 -7 -73
-6 -137 1 -47 6 -53 10 -63 38 -14 40 -60 110 -67 102 -3 -3 6 -24 21 -46 14
-22 33 -70 42 -106 8 -37 23 -88 34 -115 10 -27 14 -49 10 -49 -5 0 -20 -10
-34 -23 -23 -22 -25 -30 -31 -182 -6 -141 -4 -172 14 -262 12 -55 21 -109 21
-120 -1 -29 -48 55 -55 99 -4 21 -11 38 -16 38 -4 0 -6 -8 -2 -17 5 -15 2 -14
-17 3 -20 20 -22 33 -26 139 -4 133 -4 133 -119 293 -116 163 -151 270 -121
374 18 64 51 108 95 130 31 14 60 15 368 2z m307 1 c57 -11 106 -13 169 -9 53
4 88 3 85 -2 -64 -133 -87 -187 -127 -297 -27 -73 -52 -151 -56 -173 -5 -35
-11 -43 -34 -47 -20 -4 -39 -23 -70 -71 -39 -62 -61 -81 -61 -55 0 6 17 52 38
102 48 114 58 151 40 144 -7 -2 -22 4 -33 14 -12 10 -38 25 -60 32 -55 19 -61
34 -47 114 6 37 19 106 27 153 10 54 21 90 32 98 9 6 17 12 17 12 1 0 37 -7
80 -15z m331 -13 c-3 -15 -6 -50 -7 -76 0 -37 -13 -76 -54 -160 -59 -124 -88
-207 -107 -311 -8 -39 -19 -81 -26 -93 -16 -31 -52 -25 -69 10 -11 24 -9 43
16 145 30 123 126 376 170 451 22 38 48 59 75 61 5 1 6 -12 2 -27z m630 -13
c-8 -23 -15 -57 -15 -75 0 -39 -6 -41 -38 -16 -22 17 -22 19 -7 56 15 36 50
75 67 76 4 0 1 -19 -7 -41z m-1093 -1 c-3 -13 -10 -26 -16 -30 -8 -6 -8 -8 1
-8 6 0 9 -9 6 -20 -3 -11 -9 -20 -14 -20 -12 0 -11 42 1 74 12 32 30 35 22 4z
m1347 -147 c1 -36 -40 -134 -47 -113 -2 7 3 31 12 53 9 21 16 63 17 92 1 41 3
47 9 27 4 -14 8 -40 9 -59z m-1363 42 c-6 -21 -36 -169 -36 -178 0 -3 -4 -3
-10 0 -12 8 -13 55 -1 55 4 0 6 11 4 23 -3 14 2 31 11 40 9 8 12 17 7 19 -15
5 0 58 16 58 9 0 12 -7 9 -17z m1044 8 c0 -5 14 -14 30 -21 37 -15 37 -29 5
-80 -36 -57 -175 -356 -220 -473 -21 -54 -44 -105 -52 -113 -23 -22 -60 -17
-79 11 -16 24 -15 30 11 108 38 113 122 298 146 322 l20 20 -7 -30 c-3 -16
-16 -52 -27 -78 -11 -26 -17 -50 -14 -53 3 -3 26 15 52 40 59 59 105 155 105
217 0 66 11 139 21 139 5 0 9 -4 9 -9z m-170 -52 c-15 -52 -47 -98 -76 -109
-61 -23 -139 -8 -186 37 -32 30 -28 47 7 31 33 -15 110 3 195 45 36 18 66 32
67 31 1 0 -2 -16 -7 -35z m-890 -173 c19 -13 49 -29 67 -35 17 -7 40 -22 52
-35 l20 -21 -35 -80 c-19 -44 -39 -98 -45 -120 -6 -22 -20 -45 -30 -53 -10 -7
-22 -31 -25 -53 -4 -22 -8 -38 -9 -37 -2 2 -8 53 -14 113 -16 150 -19 165 -41
165 -9 0 -23 7 -30 15 -8 9 -30 15 -60 15 l-47 0 -27 80 c-14 43 -26 81 -26
82 0 2 48 0 108 -5 86 -6 114 -13 142 -31z m-166 -213 c3 -21 6 -100 6 -175 0
-92 4 -138 11 -138 7 0 8 53 3 175 l-7 175 44 -1 44 -1 -34 -9 c-18 -6 -31
-13 -28 -16 9 -9 67 8 68 20 1 7 5 -4 9 -23 5 -21 4 -42 -2 -54 -13 -24 -1
-225 14 -244 6 -7 11 -55 10 -109 -1 -81 -4 -98 -18 -106 -27 -15 -161 -14
-176 1 -22 22 -39 139 -43 292 -5 167 2 174 14 14 l8 -109 2 105 c1 76 -3 113
-14 134 -15 29 -20 87 -8 99 3 4 25 7 48 7 41 0 43 -1 49 -37z m379 -18 c-7
-56 11 -103 44 -111 35 -9 60 19 74 82 7 30 15 54 18 54 5 0 102 -28 314 -90
76 -23 78 -24 71 -49 -5 -14 -8 -46 -8 -70 -1 -36 4 -47 26 -64 38 -29 80 -10
107 49 12 24 21 49 21 54 0 6 5 8 10 5 6 -3 10 -45 10 -92 0 -94 23 -163 61
-184 19 -10 19 -11 -1 -39 -28 -40 -53 -111 -41 -123 5 -5 4 -28 -3 -55 -12
-44 -17 -50 -89 -92 -42 -25 -126 -87 -186 -139 -60 -51 -125 -104 -144 -118
l-35 -25 -89 17 c-48 10 -115 28 -148 41 -33 12 -90 34 -127 48 -117 43 -115
41 -120 159 -2 64 1 120 9 152 8 30 13 108 13 200 -1 90 5 172 12 205 12 48
18 57 49 72 24 11 51 39 80 82 24 36 51 67 59 69 8 3 16 5 17 6 2 0 0 -19 -4
-44z m-239 -175 c4 -59 3 -89 -2 -80 -5 8 -12 60 -14 115 -7 124 7 95 16 -35z
m-299 -246 c19 -46 19 -47 -5 -34 -13 7 -20 21 -20 40 0 39 6 38 25 -6z m184
-259 c-1 -11 -7 -2 -14 21 -7 22 -22 59 -34 82 -11 23 -21 49 -21 59 1 10 16
-18 35 -62 19 -44 34 -89 34 -100z m102 103 c-6 -29 -13 -66 -15 -83 -3 -16
-3 2 -1 40 3 68 13 111 22 101 3 -2 0 -28 -6 -58z m-106 40 c4 -3 8 -23 11
-44 5 -44 4 -43 -25 13 -16 32 -17 41 -6 39 8 -1 17 -5 20 -8z m48 -88 c7 -89
-7 -56 -17 40 -4 39 -3 59 3 50 4 -8 11 -49 14 -90z m27 70 c0 -16 -2 -30 -4
-30 -2 0 -6 14 -8 30 -3 17 -1 30 4 30 4 0 8 -13 8 -30z m1014 -101 c-12 -20
-20 -7 -16 23 5 31 5 31 13 9 5 -12 7 -27 3 -32z m116 -31 c36 -11 89 -27 119
-36 29 -9 55 -21 57 -27 3 -6 -4 -33 -15 -58 -28 -65 -67 -90 -379 -242 -212
-103 -277 -139 -314 -176 -45 -42 -107 -130 -143 -199 -15 -30 -59 -59 -71
-48 -8 9 44 109 74 140 43 47 17 42 -45 -7 -32 -26 -63 -53 -69 -61 -25 -32
-88 -74 -110 -74 -33 0 -30 10 12 51 20 18 56 59 80 90 25 32 54 59 69 63 14
4 25 11 25 16 0 30 -65 -15 -113 -77 -54 -69 -104 -119 -113 -110 -3 3 15 39
40 80 25 40 46 79 46 84 0 6 14 23 30 36 36 30 39 41 8 26 -13 -6 -49 -42 -81
-80 -32 -37 -71 -74 -87 -82 -26 -14 -88 -8 -667 59 -351 41 -645 74 -654 74
-13 0 -18 15 -23 66 -4 37 -5 68 -3 70 2 3 307 -32 677 -76 370 -44 677 -80
682 -80 4 0 -5 -19 -22 -42 -30 -41 -39 -78 -19 -78 5 0 8 4 5 9 -3 5 16 43
43 84 53 80 128 146 197 171 36 13 37 15 11 15 -16 1 -50 -14 -82 -35 -53 -36
-85 -40 -85 -10 0 7 19 21 42 31 24 9 61 30 82 46 34 25 49 29 101 29 55 0 68
4 121 39 32 21 95 71 139 110 112 100 330 244 355 235 8 -4 44 -15 80 -26z
m-1098 -90 c-3 -40 -9 -76 -16 -80 -15 -10 -58 -10 -74 1 -12 7 -46 131 -38
138 1 1 18 -3 38 -9 28 -8 41 -7 64 5 16 8 29 15 29 16 1 1 -1 -32 -3 -71z
m-120 -100 c-2 -10 -9 -18 -14 -18 -6 0 -7 7 -4 16 3 9 6 25 7 37 0 21 1 21 8
2 4 -11 6 -28 3 -37z m311 -62 c65 -25 157 -54 203 -63 56 -12 78 -20 67 -25
-10 -4 -37 -4 -59 -1 -28 3 -52 -1 -72 -11 -29 -15 -45 -15 -197 1 l-165 18 0
35 c0 19 -3 51 -6 70 -5 32 -3 36 23 46 22 8 34 6 58 -7 17 -10 83 -38 148
-63z m-293 9 c-7 -23 -9 -51 -6 -62 5 -17 2 -18 -29 -15 -25 3 -35 9 -35 22 0
23 20 80 28 79 21 -3 30 3 37 24 12 42 18 -3 5 -48z m52 -15 c2 -59 1 -70 -13
-70 -9 0 -22 6 -28 14 -12 14 -10 24 15 114 10 34 23 4 26 -58z m-462 -35
c491 -55 470 -52 471 -73 1 -15 2 -15 6 1 5 20 -12 21 213 -7 l105 -13 -56
-26 c-63 -29 -77 -49 -51 -75 18 -18 18 -20 -7 -49 l-26 -30 -683 81 -683 81
46 33 c39 28 54 32 107 32 66 0 71 16 8 22 l-35 3 69 36 c38 20 78 34 90 32
12 -1 203 -23 426 -48z m1494 -61 c3 -9 6 -36 6 -60 0 -43 -1 -45 -27 -42 -14
2 -28 9 -31 16 -2 8 2 10 14 5 12 -4 15 -2 12 8 -7 21 -33 17 -36 -6 -3 -19
-9 -21 -70 -17 -97 5 -101 6 -74 21 18 10 26 10 38 0 11 -9 14 -8 14 8 0 15
17 28 68 51 79 37 78 36 86 16z m115 -132 l305 -27 -68 -43 c-68 -42 -68 -43
-124 -32 -99 18 -123 7 -43 -20 23 -7 41 -16 41 -19 0 -3 -12 -14 -25 -24 -24
-17 -35 -17 -312 8 -159 14 -303 28 -322 31 l-34 5 54 51 c69 63 133 97 184
97 22 0 177 -12 344 -27z m319 -104 l-3 -62 -85 -74 c-47 -40 -99 -82 -116
-93 l-32 -19 -328 40 c-181 22 -348 42 -371 45 l-43 6 20 37 c11 20 28 48 38
61 l19 23 319 -28 319 -29 3 -47 c2 -27 8 -48 13 -48 7 0 8 17 4 48 -6 47 -5
49 31 77 l37 28 -24 14 c-14 9 -16 12 -6 9 10 -3 22 -6 27 -6 5 0 12 -25 15
-55 4 -30 12 -55 17 -55 5 0 7 8 4 18 -11 38 -11 85 1 89 7 3 14 -13 18 -41 4
-25 11 -46 16 -46 5 0 7 10 5 23 -15 71 -15 85 -1 91 12 4 15 -4 15 -34 0 -22
5 -40 11 -40 6 0 8 15 4 43 -6 42 -5 45 27 65 18 12 37 22 41 22 4 0 7 -28 5
-62z m-1205 -48 c-30 -51 -59 -84 -70 -77 -7 5 72 105 85 107 2 0 -5 -14 -15
-30z m158 -65 c-10 -21 -23 -34 -35 -35 -17 0 -15 5 14 35 19 19 35 35 36 35
1 0 -6 -16 -15 -35z"/>
<path d="M2220 2833 c0 -5 71 -32 158 -61 152 -50 242 -65 242 -41 0 7 -11 9
-31 5 -22 -4 -74 8 -187 45 -87 29 -163 54 -169 56 -7 3 -13 1 -13 -4z"/>
<path d="M2239 2773 c-24 -7 -54 -13 -65 -13 -28 0 -47 -24 -39 -49 3 -10 36
-38 73 -60 62 -37 75 -41 134 -41 47 0 71 5 82 16 9 8 16 18 16 20 0 16 -115
133 -134 136 -13 3 -43 -1 -67 -9z m130 -63 c29 -33 49 -64 46 -70 -3 -5 -38
-10 -77 -10 -64 0 -75 3 -129 38 -64 41 -75 68 -31 77 15 3 41 10 57 14 66 19
79 14 134 -49z"/>
<path d="M2640 2681 c0 -22 -7 -59 -16 -81 -9 -23 -14 -44 -10 -47 9 -9 36 61
42 111 4 27 2 46 -5 50 -7 5 -11 -6 -11 -33z"/>
<path d="M2510 2641 c0 -6 4 -13 10 -16 6 -3 7 1 4 9 -7 18 -14 21 -14 7z"/>
<path d="M2070 2631 c0 -6 15 -11 33 -11 39 0 150 -36 222 -72 51 -26 185 -45
185 -27 0 5 -24 9 -52 9 -56 1 -76 7 -203 63 -84 38 -185 58 -185 38z"/>
<path d="M2550 2596 c7 -7 13 -7 20 0 6 6 3 10 -10 10 -13 0 -16 -4 -10 -10z"/>
<path d="M2095 2549 c-11 -16 -1 -19 13 -3 7 8 8 14 3 14 -5 0 -13 -5 -16 -11z"/>
<path d="M2160 2556 c0 -2 7 -7 16 -10 8 -3 12 -2 9 4 -6 10 -25 14 -25 6z"/>
<path d="M1965 2530 c-17 -7 -15 -9 11 -9 17 -1 47 -4 65 -7 23 -4 29 -2 19 4
-24 15 -73 21 -95 12z"/>
<path d="M2124 2519 c-3 -6 -2 -15 3 -20 5 -5 9 -1 9 11 0 23 -2 24 -12 9z"/>
<path d="M2257 2499 c7 -7 15 -10 18 -7 3 3 -2 9 -12 12 -14 6 -15 5 -6 -5z"/>
<path d="M2302 2471 c-11 -6 -9 -9 6 -13 15 -4 19 -2 15 8 -6 16 -4 16 -21 5z"/>
<path d="M2350 2470 c0 -6 7 -10 15 -10 8 0 15 2 15 4 0 2 -7 6 -15 10 -8 3
-15 1 -15 -4z"/>
<path d="M2150 2466 c0 -8 91 -48 96 -43 3 3 -12 15 -35 26 -38 20 -61 26 -61
17z"/>
<path d="M2108 1813 c-10 -2 -18 -9 -18 -15 0 -5 7 -7 16 -4 9 3 22 6 30 6 8
0 14 5 14 10 0 10 -12 11 -42 3z"/>
<path d="M2670 1785 c-45 -29 -78 -72 -124 -162 -39 -79 -41 -83 -27 -83 5 0
17 21 27 47 28 74 91 160 136 187 22 13 36 26 31 29 -4 2 -24 -6 -43 -18z"/>
<path d="M2569 1415 c-20 -19 37 -179 71 -200 15 -9 13 -2 -17 51 -15 27 -32
73 -38 102 -6 29 -13 50 -16 47z"/>
<path d="M2068 2354 c-5 -4 -8 -19 -8 -33 0 -18 3 -22 11 -14 6 6 9 21 7 33
-1 12 -6 18 -10 14z"/>
<path d="M2197 2293 c-6 -32 -3 -38 12 -28 13 8 15 55 2 55 -5 0 -11 -12 -14
-27z"/>
<path d="M2050 2148 c0 -4 34 -8 75 -8 41 0 75 4 75 8 0 4 -34 8 -75 8 -41 0
-75 -4 -75 -8z"/>
<path d="M2505 2313 c-31 -34 -31 -43 -2 -43 15 0 18 3 9 9 -10 6 -6 15 18 35
20 16 26 26 16 26 -8 0 -27 -12 -41 -27z"/>
<path d="M1768 2128 c-42 -65 -108 -198 -99 -198 6 0 29 35 50 78 22 42 50 92
62 110 11 17 17 32 11 32 -5 0 -16 -10 -24 -22z"/>
<path d="M1638 2004 c-16 -8 -28 -17 -28 -19 0 -12 30 -3 51 15 28 23 15 25
-23 4z"/>
<path d="M1835 2029 c-11 -16 -1 -19 13 -3 7 8 8 14 3 14 -5 0 -13 -5 -16 -11z"/>
<path d="M1700 1641 c-13 -25 -13 -58 0 -66 14 -9 40 13 40 34 -1 14 -2 14
-11 -1 -15 -26 -32 -22 -23 5 3 12 11 24 15 25 12 5 11 22 -1 22 -5 0 -14 -9
-20 -19z"/>
<path d="M2286 1642 c-2 -4 4 -8 14 -8 10 0 16 4 14 8 -3 4 -9 8 -14 8 -5 0
-11 -4 -14 -8z"/>
<path d="M2217 1482 c-19 -21 -22 -48 -7 -57 6 -3 10 4 10 18 0 14 10 31 23
40 16 12 18 16 6 16 -9 1 -23 -7 -32 -17z"/>
<path d="M1200 1670 c20 -13 63 -13 55 0 -3 6 -21 10 -38 10 -24 0 -28 -3 -17
-10z"/>
<path d="M1290 1265 c0 -8 5 -15 10 -15 6 0 10 7 10 15 0 8 -4 15 -10 15 -5 0
-10 -7 -10 -15z"/>
<path d="M1220 1172 c0 -20 85 -29 149 -16 17 4 31 10 31 14 0 4 -21 3 -47 -2
-44 -8 -67 -6 -115 8 -10 3 -18 1 -18 -4z"/>
<path d="M1867 1589 c7 -7 15 -10 18 -7 3 3 -2 9 -12 12 -14 6 -15 5 -6 -5z"/>
<path d="M1830 1573 c0 -19 21 -27 33 -13 9 10 9 11 -2 5 -8 -4 -17 -2 -22 6
-6 9 -9 10 -9 2z"/>
<path d="M1826 1516 c2 -6 13 -12 24 -12 23 0 17 12 -9 19 -12 3 -18 0 -15 -7z"/>
<path d="M1576 1512 c-2 -4 4 -8 14 -8 10 0 16 4 14 8 -3 4 -9 8 -14 8 -5 0
-11 -4 -14 -8z"/>
<path d="M2026 1512 c-2 -4 4 -8 14 -8 10 0 16 4 14 8 -3 4 -9 8 -14 8 -5 0
-11 -4 -14 -8z"/>
<path d="M1544 1479 c-3 -6 -2 -15 3 -20 5 -5 9 -1 9 11 0 23 -2 24 -12 9z"/>
<path d="M1624 1470 c0 -13 4 -16 10 -10 7 7 7 13 0 20 -6 6 -10 3 -10 -10z"/>
<path d="M1735 1480 c-3 -6 1 -7 9 -4 18 7 21 14 7 14 -6 0 -13 -4 -16 -10z"/>
<path d="M1865 1480 c-3 -6 1 -7 9 -4 18 7 21 14 7 14 -6 0 -13 -4 -16 -10z"/>
<path d="M1994 1479 c-5 -8 -3 -9 6 -4 7 4 16 2 22 -6 8 -12 9 -12 6 0 -6 20
-24 25 -34 10z"/>
<path d="M1510 1441 c0 -6 4 -13 10 -16 6 -3 7 1 4 9 -7 18 -14 21 -14 7z"/>
<path d="M1665 1440 c-13 -21 -75 -300 -75 -337 0 -74 72 -189 142 -224 51
-26 104 -21 180 17 100 51 124 72 151 132 35 79 69 190 64 205 -2 6 -19 -33
-37 -88 -47 -144 -60 -165 -122 -202 -107 -65 -186 -78 -244 -42 -40 24 -111
127 -119 173 -4 21 6 88 31 192 20 87 38 160 39 161 2 4 164 -41 315 -86 74
-23 140 -41 148 -41 23 0 3 17 -25 22 -16 3 -82 22 -148 42 -172 54 -295 85
-300 76z"/>
<path d="M1960 1441 c0 -6 4 -13 10 -16 6 -3 7 1 4 9 -7 18 -14 21 -14 7z"/>
<path d="M2046 1433 c-6 -14 -5 -15 5 -6 7 7 10 15 7 18 -3 3 -9 -2 -12 -12z"/>
<path d="M2090 1441 c0 -10 19 -25 25 -20 1 2 -3 10 -11 17 -8 7 -14 8 -14 3z"/>
<path d="M1496 1347 c3 -10 9 -15 12 -12 3 3 0 11 -7 18 -10 9 -11 8 -5 -6z"/>
<path d="M1540 1341 c0 -6 4 -13 10 -16 6 -3 7 1 4 9 -7 18 -14 21 -14 7z"/>
<path d="M1735 1342 c6 -5 64 -22 130 -36 66 -15 144 -33 173 -40 28 -8 52
-11 52 -6 0 9 -86 34 -212 59 -53 11 -109 23 -125 27 -19 4 -25 3 -18 -4z"/>
<path d="M2220 1311 c0 -6 4 -13 10 -16 6 -3 7 1 4 9 -7 18 -14 21 -14 7z"/>
<path d="M1710 1296 c7 -7 13 -7 20 0 6 6 3 10 -10 10 -13 0 -16 -4 -10 -10z"/>
<path d="M1718 1260 c-16 -15 -16 -16 2 -16 10 0 16 4 14 8 -3 4 2 8 10 8 8 0
17 4 20 8 9 14 -30 8 -46 -8z"/>
<path d="M1835 1250 c-3 -6 1 -7 9 -4 18 7 21 14 7 14 -6 0 -13 -4 -16 -10z"/>
<path d="M2160 1256 c0 -2 7 -7 16 -10 8 -3 12 -2 9 4 -6 10 -25 14 -25 6z"/>
<path d="M2225 1250 c-3 -6 1 -7 9 -4 18 7 21 14 7 14 -6 0 -13 -4 -16 -10z"/>
<path d="M1496 1217 c3 -10 9 -15 12 -12 3 3 0 11 -7 18 -10 9 -11 8 -5 -6z"/>
<path d="M1545 1219 c-4 -6 -5 -12 -2 -15 2 -3 7 2 10 11 7 17 1 20 -8 4z"/>
<path d="M1674 1219 c-3 -6 -2 -15 3 -20 5 -5 9 -1 9 11 0 23 -2 24 -12 9z"/>
<path d="M2206 1217 c3 -10 9 -15 12 -12 3 3 0 11 -7 18 -10 9 -11 8 -5 -6z"/>
<path d="M2329 1221 c8 -5 10 -14 6 -22 -6 -11 -5 -11 5 -2 14 12 6 33 -13 33
-8 0 -7 -3 2 -9z"/>
<path d="M2250 1211 c0 -6 4 -13 10 -16 6 -3 7 1 4 9 -7 18 -14 21 -14 7z"/>
<path d="M2183 1184 c-3 -8 -2 -19 3 -24 5 -5 9 1 9 16 0 28 -3 30 -12 8z"/>
<path d="M1830 1181 c0 -6 4 -13 10 -16 6 -3 7 1 4 9 -7 18 -14 21 -14 7z"/>
<path d="M1960 1181 c0 -10 19 -25 25 -20 1 2 -3 10 -11 17 -8 7 -14 8 -14 3z"/>
<path d="M2220 1181 c0 -6 4 -13 10 -16 6 -3 7 1 4 9 -7 18 -14 21 -14 7z"/>
<path d="M1652 1165 c3 -3 16 -8 28 -10 12 -2 20 -1 16 2 -4 4 -16 8 -28 10
-12 2 -19 1 -16 -2z"/>
<path d="M2315 1151 c-3 -5 -2 -12 3 -15 5 -3 9 1 9 9 0 17 -3 19 -12 6z"/>
<path d="M1495 1084 c10 -97 49 -210 91 -267 47 -65 56 -53 10 13 -42 61 -75
159 -83 248 -3 34 -10 65 -16 69 -6 4 -7 -19 -2 -63z"/>
<path d="M2257 1139 c7 -7 15 -10 18 -7 3 3 -2 9 -12 12 -14 6 -15 5 -6 -5z"/>
<path d="M1660 1130 c-9 -6 -10 -10 -3 -10 6 0 15 5 18 10 8 12 4 12 -15 0z"/>
<path d="M1706 1122 c-2 -4 4 -8 14 -8 10 0 16 4 14 8 -3 4 -9 8 -14 8 -5 0
-11 -4 -14 -8z"/>
<path d="M2156 1122 c-2 -4 4 -8 14 -8 10 0 16 4 14 8 -3 4 -9 8 -14 8 -5 0
-11 -4 -14 -8z"/>
<path d="M1544 1089 c-3 -6 -2 -15 3 -20 5 -5 9 -1 9 11 0 23 -2 24 -12 9z"/>
<path d="M1722 1075 c-23 -24 -22 -46 1 -44 9 0 9 2 0 6 -7 2 -13 9 -13 15 0
6 7 8 15 4 8 -3 14 -2 14 2 -3 19 2 32 12 32 6 0 8 -7 4 -17 -5 -14 -3 -15 6
-6 11 11 5 33 -9 33 -4 0 -17 -11 -30 -25z"/>
<path d="M1865 1090 c-3 -6 1 -7 9 -4 18 7 21 14 7 14 -6 0 -13 -4 -16 -10z"/>
<path d="M2190 1096 c0 -2 7 -7 16 -10 8 -3 12 -2 9 4 -6 10 -25 14 -25 6z"/>
<path d="M2255 1089 c-4 -6 -5 -12 -2 -15 2 -3 7 2 10 11 7 17 1 20 -8 4z"/>
<path d="M2185 1060 c-3 -6 1 -7 9 -4 18 7 21 14 7 14 -6 0 -13 -4 -16 -10z"/>
<path d="M2224 1059 c-3 -6 -2 -15 3 -20 5 -5 9 -1 9 11 0 23 -2 24 -12 9z"/>
<path d="M2253 1025 c-3 -9 -3 -18 -1 -21 3 -3 8 4 11 16 6 23 -1 27 -10 5z"/>
<path d="M1740 1006 c7 -7 13 -7 20 0 6 6 3 10 -10 10 -13 0 -16 -4 -10 -10z"/>
<path d="M1870 1006 c7 -7 13 -7 20 0 6 6 3 10 -10 10 -13 0 -16 -4 -10 -10z"/>
<path d="M2130 1006 c7 -7 13 -7 20 0 6 6 3 10 -10 10 -13 0 -16 -4 -10 -10z"/>
<path d="M1706 992 c-2 -4 4 -8 14 -8 10 0 16 4 14 8 -3 4 -9 8 -14 8 -5 0
-11 -4 -14 -8z"/>
<path d="M1836 992 c-2 -4 4 -8 14 -8 10 0 16 4 14 8 -3 4 -9 8 -14 8 -5 0
-11 -4 -14 -8z"/>
<path d="M2177 979 c4 -13 8 -18 11 -10 2 7 -1 18 -6 23 -8 8 -9 4 -5 -13z"/>
<path d="M1735 959 c-11 -16 -1 -19 13 -3 7 8 8 14 3 14 -5 0 -13 -5 -16 -11z"/>
<path d="M1866 962 c-2 -4 4 -8 14 -8 10 0 16 4 14 8 -3 4 -9 8 -14 8 -5 0
-11 -4 -14 -8z"/>
<path d="M2126 962 c-2 -4 4 -8 14 -8 10 0 16 4 14 8 -3 4 -9 8 -14 8 -5 0
-11 -4 -14 -8z"/>
<path d="M2204 950 c0 -13 4 -16 10 -10 7 7 7 13 0 20 -6 6 -10 3 -10 -10z"/>
<path d="M2255 959 c-4 -6 -5 -12 -2 -15 2 -3 7 2 10 11 7 17 1 20 -8 4z"/>
<path d="M2046 913 c-6 -14 -5 -15 5 -6 7 7 10 15 7 18 -3 3 -9 -2 -12 -12z"/>
<path d="M2090 921 c0 -6 4 -13 10 -16 6 -3 7 1 4 9 -7 18 -14 21 -14 7z"/>
<path d="M2176 913 c-6 -14 -5 -15 5 -6 7 7 10 15 7 18 -3 3 -9 -2 -12 -12z"/>
<path d="M2000 876 c7 -7 13 -7 20 0 6 6 3 10 -10 10 -13 0 -16 -4 -10 -10z"/>
<path d="M1966 862 c-2 -4 4 -8 14 -8 10 0 16 4 14 8 -3 4 -9 8 -14 8 -5 0
-11 -4 -14 -8z"/>
<path d="M1492 826 c7 -8 15 -12 17 -11 5 6 -10 25 -20 25 -5 0 -4 -6 3 -14z"/>
<path d="M1674 829 c-3 -6 -2 -15 3 -20 5 -5 9 -1 9 11 0 23 -2 24 -12 9z"/>
<path d="M1866 832 c-2 -4 4 -8 14 -8 10 0 16 4 14 8 -3 4 -9 8 -14 8 -5 0
-11 -4 -14 -8z"/>
<path d="M1996 832 c-2 -4 4 -8 14 -8 10 0 16 4 14 8 -3 4 -9 8 -14 8 -5 0
-11 -4 -14 -8z"/>
<path d="M1716 810 c-18 -19 -15 -41 7 -39 9 0 9 2 0 6 -7 2 -13 9 -13 15 0 6
6 8 13 5 8 -3 14 3 14 14 2 23 3 23 -21 -1z"/>
<path d="M1830 791 c0 -6 4 -13 10 -16 6 -3 7 1 4 9 -7 18 -14 21 -14 7z"/>
<path d="M1967 779 c7 -7 15 -10 18 -7 3 3 -2 9 -12 12 -14 6 -15 5 -6 -5z"/>
<path d="M1840 727 c-35 -17 -59 -32 -54 -34 14 -5 139 53 128 59 -5 3 -38 -9
-74 -25z"/>
<path d="M1952 736 c7 -8 17 -12 22 -9 4 3 2 9 -5 14 -22 13 -31 11 -17 -5z"/>
<path d="M1706 732 c-2 -4 4 -8 14 -8 10 0 16 4 14 8 -3 4 -9 8 -14 8 -5 0
-11 -4 -14 -8z"/>
<path d="M337 466 c-4 -10 -5 -21 -2 -24 9 -9 17 6 13 25 -3 17 -4 17 -11 -1z"/>
<path d="M361 444 c0 -11 3 -14 6 -6 3 7 2 16 -1 19 -3 4 -6 -2 -5 -13z"/>
<path d="M518 420 c-3 -17 -1 -33 4 -36 4 -3 8 11 8 30 0 44 -6 47 -12 6z"/>
<path d="M1060 371 c0 -17 5 -31 10 -31 6 0 10 -7 10 -15 0 -8 5 -15 10 -15 6
0 10 14 10 31 0 17 -4 28 -10 24 -5 -3 -10 1 -10 9 0 8 -4 18 -10 21 -6 4 -10
-7 -10 -24z"/>
<path d="M936 371 c-4 -7 -5 -15 -2 -18 9 -9 19 4 14 18 -4 11 -6 11 -12 0z"/>
<path d="M1230 350 c0 -5 5 -10 10 -10 6 0 10 5 10 10 0 6 -4 10 -10 10 -5 0
-10 -4 -10 -10z"/>
<path d="M1300 808 c0 -12 37 -19 64 -12 40 10 31 20 -19 19 -25 0 -45 -3 -45
-7z"/>
<path d="M510 652 c0 -9 161 -25 169 -16 9 8 -6 12 -86 18 -49 5 -83 4 -83 -2z"/>
<path d="M440 623 c-28 -6 -50 -21 -50 -35 0 -16 64 -36 140 -43 41 -4 121
-15 178 -26 57 -10 131 -18 165 -18 59 1 58 2 -38 14 -55 8 -122 18 -149 25
-27 6 -91 15 -142 20 -51 4 -102 14 -115 20 -21 12 -21 13 -4 23 16 9 229 0
408 -17 20 -2 37 0 37 5 0 5 -10 9 -22 9 -24 0 -257 16 -338 24 -25 2 -56 2
-70 -1z"/>
<path d="M1042 558 c-7 -7 -12 -16 -12 -20 0 -15 15 -8 28 12 13 22 3 27 -16
8z"/>
<path d="M1290 562 c0 -6 15 -14 33 -17 55 -9 222 -23 226 -19 10 10 -13 15
-115 23 -60 5 -117 12 -126 16 -11 4 -18 3 -18 -3z"/>
<path d="M1182 540 c13 -20 28 -27 28 -12 0 10 -22 32 -32 32 -5 0 -3 -9 4
-20z"/>
<path d="M1180 482 c0 -4 62 -8 138 -9 102 0 123 1 82 7 -73 11 -220 12 -220
2z"/>
<path d="M2154 459 c-3 -5 -2 -9 3 -9 30 0 287 -42 305 -50 18 -8 13 -8 -22
-4 -160 19 -282 30 -285 24 -5 -8 143 -27 283 -37 54 -4 82 -2 82 5 0 19 -68
34 -338 76 -12 2 -25 -1 -28 -5z"/>
<path d="M2100 400 c0 -5 7 -10 15 -10 8 0 15 5 15 10 0 6 -7 10 -15 10 -8 0
-15 -4 -15 -10z"/>
<path d="M2052 250 c0 -14 2 -19 5 -12 2 6 2 18 0 25 -3 6 -5 1 -5 -13z"/>
<path d="M2291 228 c-1 -27 3 -48 7 -48 4 0 6 17 4 38 -5 58 -10 62 -11 10z"/>
<path d="M2323 225 c0 -27 2 -38 4 -22 2 15 2 37 0 50 -2 12 -4 0 -4 -28z"/>
<path d="M2075 240 c-3 -5 -1 -10 4 -10 6 0 11 5 11 10 0 6 -2 10 -4 10 -3 0
-8 -4 -11 -10z"/>
</g>
</svg>
