<?xml version="1.0" standalone="no"?>
<!DOCTYPE svg PUBLIC "-//W3C//DTD SVG 20010904//EN"
 "http://www.w3.org/TR/2001/REC-SVG-20010904/DTD/svg10.dtd">
<svg version="1.0" xmlns="http://www.w3.org/2000/svg"
 width="300.000000pt" height="300.000000pt" viewBox="0 0 300.000000 300.000000"
 preserveAspectRatio="xMidYMid meet">
<metadata>
Created by potrace 1.10, written by Peter Selinger 2001-2011
</metadata>
<g transform="translate(0.000000,300.000000) scale(0.100000,-0.100000)"
fill="#000000" stroke="none">
<path d="M2392 2610 l3 -310 -21 0 c-39 0 -46 -23 -45 -139 2 -100 0 -110 -18
-116 -25 -8 -34 -31 -21 -56 8 -14 21 -19 55 -19 l45 0 0 -323 c0 -320 0 -324
-23 -368 -34 -63 -93 -102 -165 -107 -102 -7 -158 19 -213 98 -8 13 -24 23
-33 23 -36 0 -58 78 -67 232 -4 77 -13 158 -19 180 -20 66 -87 187 -135 242
-55 62 -174 144 -244 168 -41 13 -51 21 -56 46 -23 105 -262 187 -376 128 -36
-18 -41 -24 -37 -50 5 -34 -17 -41 -27 -9 -7 22 -44 27 -63 8 -7 -7 -12 -28
-12 -47 l0 -36 -380 3 -380 3 0 -168 0 -168 380 3 380 3 0 -58 c0 -44 -3 -54
-12 -45 -18 18 -46 14 -58 -8 -14 -27 36 -83 88 -98 47 -14 131 -15 186 -2 36
8 44 6 82 -22 41 -29 44 -36 109 -221 36 -106 68 -201 69 -212 2 -11 4 -23 5
-27 0 -5 7 -8 14 -8 12 0 37 -39 37 -59 0 -4 -16 -15 -35 -24 -67 -32 -53
-101 24 -112 121 -18 161 -39 161 -87 0 -49 -55 -86 -83 -55 -36 38 -39 45
-26 69 7 13 14 31 16 41 7 41 -41 0 -52 -45 -6 -22 -1 -32 23 -55 21 -19 32
-40 34 -63 2 -27 10 -38 33 -50 21 -10 30 -21 27 -33 -5 -24 23 -66 52 -77 17
-6 33 -33 61 -102 20 -51 44 -101 52 -110 27 -31 79 -20 93 18 9 24 -3 59
-184 530 -25 67 -46 123 -46 125 0 3 18 3 41 1 23 -3 51 1 64 8 12 7 43 11 68
9 54 -5 53 6 -1 15 -45 7 -59 21 -100 96 -47 89 -47 90 2 143 25 26 50 47 56
47 6 0 8 -5 5 -10 -3 -6 -1 -10 4 -10 16 0 13 16 -5 30 -13 11 -23 6 -68 -39
-46 -46 -54 -50 -66 -36 -7 8 -43 42 -80 75 l-68 60 5 -42 c3 -24 16 -70 29
-102 13 -33 23 -60 21 -61 -9 -8 -89 -46 -91 -43 -6 8 -83 225 -122 343 -59
181 -78 335 -55 444 6 30 9 63 5 73 -3 11 0 18 7 18 7 0 9 3 6 7 -4 3 -2 12 4
19 18 22 -1 55 -44 75 -23 11 -53 26 -67 34 -14 8 -39 15 -57 15 -46 0 -62 32
-27 55 40 26 87 29 168 10 86 -20 141 -49 170 -88 20 -27 21 -40 18 -185 -1
-86 0 -153 4 -150 3 4 6 32 5 62 l0 56 37 -16 c150 -62 273 -210 302 -364 6
-30 13 -98 16 -150 3 -52 7 -101 10 -109 3 -8 -1 -11 -11 -7 -8 3 -15 1 -15
-3 0 -5 14 -14 30 -20 29 -10 30 -9 19 11 -6 12 -15 80 -19 152 -10 170 -33
239 -113 344 -49 65 -142 136 -208 159 l-50 18 7 55 c6 50 23 102 24 73 0 -6
9 -15 21 -18 19 -6 20 -8 4 -26 -18 -19 -14 -69 4 -69 25 0 137 -78 177 -124
77 -85 105 -141 144 -295 10 -40 14 -43 40 -39 l28 4 4 -91 c3 -71 9 -99 26
-128 l21 -37 -34 0 c-35 0 -46 -12 -23 -26 7 -5 8 -3 3 6 -6 10 1 11 31 6 22
-3 45 -7 52 -8 8 -1 20 -11 28 -22 16 -26 162 -177 149 -156 -5 8 -20 30 -34
49 l-26 34 24 -12 c40 -22 143 -16 200 12 50 24 50 24 53 3 2 -13 12 -22 27
-24 31 -5 73 37 103 102 22 50 23 58 23 354 0 286 -1 304 -19 317 -13 10 -24
11 -36 5 -13 -7 -20 -5 -24 6 -11 30 -6 34 49 34 l55 0 0 -325 c0 -195 -4
-344 -11 -375 -15 -68 -64 -139 -117 -169 -38 -20 -56 -23 -148 -23 -57 1
-104 -2 -104 -6 0 -4 18 -29 40 -57 71 -89 94 -127 96 -154 2 -27 23 -71 35
-71 3 0 41 -39 84 -88 42 -48 111 -122 151 -164 41 -42 74 -84 74 -92 0 -59
-229 -325 -280 -326 -9 0 -24 15 -34 32 -11 18 -41 66 -68 106 -26 40 -48 75
-48 78 0 3 -22 38 -50 79 l-49 73 -88 21 c-48 11 -112 30 -141 41 -57 22 -82
25 -82 11 0 -11 131 -56 210 -72 30 -6 64 -17 76 -24 12 -8 74 -97 138 -199
65 -102 120 -186 123 -186 3 0 27 16 52 35 75 54 192 184 239 264 l43 73 -67
72 c-37 39 -122 127 -188 195 l-121 123 70 26 c168 60 283 177 340 346 25 74
25 78 25 415 l0 341 49 0 c59 0 80 18 63 55 -7 14 -16 25 -22 25 -6 0 -10 39
-10 103 0 114 -12 147 -56 147 l-24 0 0 310 0 310 -165 0 -166 0 3 -310z m127
-22 l1 -288 -56 0 c-47 0 -55 3 -50 16 3 9 6 20 6 25 0 5 10 7 23 4 48 -12 52
8 49 244 -3 171 -7 219 -18 231 -12 12 -18 12 -34 2 -19 -11 -20 -10 -20 32
l0 45 43 3 c30 2 44 -1 49 -12 4 -8 7 -144 7 -302z m176 7 l0 -295 -81 0 -81
0 -1 295 -1 295 82 0 82 0 0 -295z m-217 -9 c2 -224 -2 -252 -35 -224 -10 8
-13 62 -13 223 0 116 3 215 7 219 4 4 14 5 23 4 13 -3 15 -34 18 -222z m186
-321 c-13 -20 -16 -46 -15 -108 1 -45 6 -86 11 -91 5 -5 33 -11 62 -14 29 -2
59 -9 66 -14 20 -17 14 -44 -10 -45 -13 -1 -36 -4 -53 -7 l-30 -6 -3 -342 c-3
-324 -6 -389 -20 -413 -4 -5 -7 -17 -9 -25 -6 -40 -61 -125 -120 -184 -100
-102 -251 -167 -261 -113 -2 10 -19 34 -39 55 -50 53 -67 82 -57 92 5 5 47 10
94 11 93 2 122 14 178 72 18 18 42 60 55 93 21 57 22 71 22 401 0 188 -3 344
-7 348 -7 7 -65 14 -144 16 -57 2 -69 11 -53 37 15 23 38 32 90 32 20 0 41 6
46 13 11 14 9 163 -2 190 -6 14 -2 17 19 17 23 0 25 -2 16 -19 -14 -27 -13
-188 1 -197 16 -10 110 -6 123 5 18 15 13 164 -7 195 l-17 26 40 0 40 0 -16
-25z m-224 -5 c17 -17 20 -33 20 -105 l0 -85 -55 0 -55 0 0 89 c0 82 2 91 22
105 30 21 44 20 68 -4z m146 12 c24 -15 34 -54 34 -126 l0 -76 -57 0 -58 0 3
87 c3 62 8 93 19 106 17 18 40 22 59 9z m162 -8 c20 -14 22 -23 22 -105 l0
-89 -52 0 -53 0 3 87 c5 114 27 144 80 107z m-1759 -58 c6 -7 14 -38 17 -67 3
-29 10 -59 15 -66 6 -7 40 -14 77 -16 l67 -3 -72 -2 c-45 -1 -75 -7 -80 -14
-11 -19 -5 -108 8 -124 6 -8 21 -15 33 -15 21 -2 21 -2 -1 -6 -32 -6 -43 -24
-47 -77 -3 -46 -30 -90 -50 -83 -14 5 -19 75 -18 242 1 224 13 277 51 231z
m165 -35 c10 -11 31 -23 47 -26 35 -8 37 -28 7 -49 -16 -11 -46 -16 -105 -16
l-83 0 0 55 0 55 58 0 c46 0 63 -4 76 -19z m-234 -96 l0 -65 -369 0 -369 0 5
48 c6 63 10 72 28 72 11 0 14 -6 9 -25 -14 -54 -9 -55 337 -55 275 0 320 2
333 16 9 8 16 21 16 27 0 7 -5 4 -11 -5 -9 -17 -36 -18 -333 -18 -271 0 -325
2 -329 14 -13 34 16 37 342 34 252 -2 321 0 321 10 0 6 5 12 10 12 6 0 10 -28
10 -65z m310 -2 c-1 -21 -19 -35 -36 -29 -18 7 -18 8 0 22 22 15 36 18 36 7z
m349 -50 c81 -48 179 -153 220 -237 40 -82 70 -211 53 -228 -19 -19 -38 9 -51
77 -26 138 -135 287 -260 354 -43 22 -61 38 -61 52 0 29 28 24 99 -18z m-370
-7 c13 -15 4 -77 -13 -88 -6 -4 -48 -8 -93 -8 l-83 0 0 55 0 55 89 0 c62 0 92
-4 100 -14z m-289 -90 l0 -75 -362 2 -363 2 -3 67 -3 68 358 3 c197 1 361 3
366 5 4 1 7 -31 7 -72z m1555 -321 l0 -310 -29 -52 c-16 -29 -37 -60 -48 -70
-17 -15 -20 -15 -35 -1 -14 15 -13 19 15 55 49 63 52 84 52 393 0 158 3 290 7
294 4 4 14 5 23 4 13 -3 15 -41 15 -313z m-1320 295 c14 -5 5 -8 -30 -7 -38 0
-44 2 -25 7 32 10 31 10 55 0z m52 -80 c4 -52 20 -164 29 -199 l7 -23 -40 26
c-37 25 -42 26 -99 15 -76 -14 -155 -6 -199 21 -39 24 -51 59 -14 39 15 -8 19
-8 15 0 -4 6 -4 11 1 12 56 4 88 10 91 19 2 5 21 10 41 10 21 0 60 3 87 8 l49
7 -75 5 -75 5 -2 53 -2 53 92 -3 92 -3 2 -45z m397 -590 c11 -25 37 -71 58
-104 21 -32 38 -59 38 -60 0 0 -27 -1 -60 -1 l-60 0 -23 60 c-18 48 -21 62
-11 70 10 8 10 13 1 26 -7 9 -16 16 -21 17 -7 1 -66 135 -66 151 0 2 28 -23
63 -55 37 -35 70 -77 81 -104z m-88 -36 c-7 -19 22 -105 54 -155 18 -31 45
-108 40 -118 -1 -2 2 -7 8 -10 12 -8 33 -71 27 -82 -9 -14 -36 2 -32 20 4 19
-55 81 -77 81 -23 0 -43 37 -61 110 -9 36 -26 78 -37 93 -11 17 -16 33 -11 38
7 7 74 35 92 38 2 1 0 -6 -3 -15z m-41 -213 l14 -40 -47 15 c-26 7 -48 14 -49
14 -2 0 -3 8 -3 17 0 10 12 27 28 39 30 25 33 23 57 -45z m189 -184 c12 -9 17
-23 14 -42 -2 -19 4 -37 15 -47 25 -26 21 -46 -17 -84 -31 -31 -37 -33 -55
-22 -23 14 -40 47 -34 66 3 6 15 12 27 12 12 0 31 7 42 16 18 15 18 15 -3 5
-25 -13 -83 -15 -83 -3 0 4 -10 12 -22 17 -30 13 -37 55 -10 55 10 0 27 9 37
20 21 23 63 26 89 7z m75 -199 c7 -24 22 -70 33 -103 26 -80 27 -88 15 -102
-25 -32 -43 -13 -84 87 l-41 99 26 30 c15 17 30 30 33 31 3 0 11 -19 18 -42z"/>
<path d="M1011 1721 c-20 -13 -4 -31 27 -30 l27 1 -25 8 c-23 7 -23 8 -3 9 12
1 25 6 28 11 8 12 -35 13 -54 1z"/>
<path d="M1092 1714 c-7 -8 -8 -14 -3 -14 10 0 25 19 20 25 -2 1 -10 -3 -17
-11z"/>
<path d="M968 1683 c6 -2 18 -2 25 0 6 3 1 5 -13 5 -14 0 -19 -2 -12 -5z"/>
<path d="M1611 754 c0 -11 3 -14 6 -6 3 7 2 16 -1 19 -3 4 -6 -2 -5 -13z"/>
<path d="M1098 2253 c7 -3 16 -2 19 1 4 3 -2 6 -13 5 -11 0 -14 -3 -6 -6z"/>
<path d="M1136 2237 c3 -10 9 -15 12 -12 3 3 0 11 -7 18 -10 9 -11 8 -5 -6z"/>
<path d="M1332 2127 c-20 -24 -33 -71 -36 -132 -2 -33 -1 -47 1 -32 3 18 10
27 19 25 18 -4 18 -6 10 -80 -8 -68 -32 -81 -39 -20 l-4 37 -1 -42 c-1 -23 -6
-45 -12 -48 -5 -3 -10 -17 -10 -29 0 -29 26 -82 32 -65 2 7 11 10 21 6 21 -8
23 -27 3 -27 -20 0 -46 -28 -46 -50 0 -24 26 -50 50 -50 42 0 65 54 35 84 -32
32 -17 270 24 378 8 21 7 31 -5 43 -19 18 -28 19 -42 2z m37 -19 c0 -7 -8 -34
-17 -59 -13 -35 -21 -45 -33 -40 -14 5 -15 11 -1 59 11 39 19 52 33 52 11 0
19 -6 18 -12z m-65 -284 c9 -3 16 -17 16 -31 0 -19 -4 -24 -16 -19 -9 3 -18 6
-20 6 -2 0 -4 11 -4 25 0 27 1 28 24 19z m45 -136 c11 -29 -5 -50 -33 -46 -13
2 -22 12 -24 27 -6 41 43 57 57 19z"/>
<path d="M1400 1812 c0 -10 -5 -23 -11 -29 -7 -7 -9 -31 -5 -65 3 -29 10 -90
14 -135 10 -103 21 -119 15 -21 l-5 73 62 -67 c34 -38 69 -68 78 -68 9 0 45
-28 81 -62 41 -41 56 -52 42 -30 -12 17 -27 32 -32 32 -6 0 -7 5 -4 10 3 6 0
10 -8 10 -25 0 -38 27 -41 87 -3 66 -40 159 -78 195 -44 42 -97 88 -103 88 -3
0 -5 -8 -5 -18z m74 -75 c58 -58 90 -130 84 -190 l-3 -34 -73 78 -74 79 -1 60
c-1 33 2 60 6 60 5 0 32 -24 61 -53z"/>
<path d="M1420 1475 c0 -5 5 -17 10 -25 5 -8 10 -10 10 -5 0 6 -5 17 -10 25
-5 8 -10 11 -10 5z"/>
<path d="M1714 1298 c-11 -35 -5 -54 31 -98 31 -38 66 -57 117 -62 44 -5 53
-12 189 -145 79 -77 179 -173 222 -214 79 -75 95 -109 60 -127 -31 -15 -60 1
-144 78 -44 41 -96 89 -114 105 -18 17 -118 112 -221 212 -104 100 -192 183
-195 185 -18 10 405 -404 504 -495 94 -85 124 -107 147 -107 34 0 65 38 56 68
-4 11 -108 117 -232 237 -200 193 -223 219 -211 234 8 9 17 23 21 31 5 8 -4 0
-19 -17 -42 -52 -111 -41 -169 27 -35 42 -44 80 -23 95 9 7 14 15 10 18 -12
13 -20 7 -29 -25z"/>
<path d="M1875 980 c21 -22 41 -40 44 -40 3 0 -13 18 -34 40 -21 22 -41 40
-44 40 -3 0 13 -18 34 -40z"/>
<path d="M1725 969 c-4 -6 -5 -12 -2 -15 2 -3 7 2 10 11 7 17 1 20 -8 4z"/>
<path d="M1832 925 c0 -16 2 -22 5 -12 2 9 2 23 0 30 -3 6 -5 -1 -5 -18z"/>
<path d="M1685 930 l-30 -8 33 -1 c17 0 32 4 32 9 0 6 -1 9 -2 9 -2 -1 -16 -5
-33 -9z"/>
<path d="M1970 888 c24 -27 45 -48 47 -48 8 0 0 9 -44 50 l-48 45 45 -47z"/>
<path d="M1842 860 c0 -19 2 -27 5 -17 2 9 2 25 0 35 -3 9 -5 1 -5 -18z"/>
<path d="M1792 850 c0 -14 2 -19 5 -12 2 6 2 18 0 25 -3 6 -5 1 -5 -13z"/>
<path d="M1501 834 c0 -11 3 -14 6 -6 3 7 2 16 -1 19 -3 4 -6 -2 -5 -13z"/>
<path d="M1802 745 c-1 -44 -5 -91 -7 -105 l-6 -25 11 24 c6 14 9 61 7 105
l-3 81 -2 -80z"/>
<path d="M1851 808 c-1 -23 20 -120 25 -115 2 2 -2 33 -10 68 -8 35 -14 56
-15 47z"/>
<path d="M2140 728 c24 -27 45 -48 47 -48 8 0 0 9 -44 50 l-48 45 45 -47z"/>
<path d="M2054 721 c3 -5 20 -14 38 -20 38 -13 26 0 -15 17 -16 7 -26 8 -23 3z"/>
<path d="M2200 677 c0 -2 15 -16 33 -33 l32 -29 -29 33 c-28 30 -36 37 -36 29z"/>
<path d="M2175 611 c-3 -17 -18 -47 -32 -68 -21 -31 -22 -35 -5 -19 22 19 59
103 49 112 -3 3 -8 -8 -12 -25z"/>
</g>
</svg>
