<?xml version="1.0" standalone="no"?>
<!DOCTYPE svg PUBLIC "-//W3C//DTD SVG 20010904//EN"
 "http://www.w3.org/TR/2001/REC-SVG-20010904/DTD/svg10.dtd">
<svg version="1.0" xmlns="http://www.w3.org/2000/svg"
 width="300.000000pt" height="300.000000pt" viewBox="0 0 300.000000 300.000000"
 preserveAspectRatio="xMidYMid meet">
<metadata>
Created by potrace 1.10, written by Peter Selinger 2001-2011
</metadata>
<g transform="translate(0.000000,300.000000) scale(0.100000,-0.100000)"
fill="#000000" stroke="none">
<path d="M371 2396 c-52 -29 -50 -7 -51 -813 0 -413 2 -757 5 -765 4 -11 88
-12 455 -10 398 2 451 1 456 -13 5 -13 42 -15 269 -15 227 0 264 2 269 15 5
14 60 15 447 15 354 -1 444 1 450 12 14 22 11 1502 -3 1533 -26 58 29 55
-1170 55 -896 -1 -1107 -3 -1127 -14z m2256 -37 c19 -16 20 -1469 1 -1469 -10
0 -12 145 -10 701 2 646 1 703 -14 720 -16 18 -58 19 -1104 19 l-1087 0 -19
-21 c-18 -20 -19 -46 -19 -693 0 -369 3 -683 8 -698 6 -24 4 -28 -13 -28 -20
0 -20 4 -20 723 0 687 1 725 18 740 16 15 60 17 373 19 765 6 1872 -2 1886
-13z m-37 -749 l0 -690 -1090 0 -1090 0 0 690 0 690 1090 0 1090 0 0 -690z
m53 -742 c15 -3 16 -5 5 -19 -12 -15 -78 -17 -713 -20 -1099 -6 -1571 -1
-1585 16 -6 8 -10 18 -7 22 4 7 2254 8 2300 1z m-893 -68 c0 -6 -88 -10 -245
-10 -157 0 -245 4 -245 10 0 6 88 10 245 10 157 0 245 -4 245 -10z"/>
<path d="M1238 2014 c-15 -14 -8 -21 52 -53 55 -30 60 -34 54 -59 -11 -43 -33
-81 -54 -92 -17 -9 -31 -4 -80 24 -52 31 -60 33 -60 17 0 -29 54 -96 91 -113
19 -9 56 -19 82 -23 41 -5 58 -15 114 -69 l67 -63 42 45 43 44 -68 79 c-56 65
-69 87 -74 124 -9 64 -33 104 -71 120 -41 17 -129 29 -138 19z m149 -67 c14
-12 25 -37 29 -66 7 -54 20 -76 87 -154 49 -56 50 -58 32 -77 -25 -27 -36 -25
-71 11 -43 47 -114 89 -148 89 -17 1 -44 7 -61 15 l-30 14 28 -6 c36 -7 72 17
97 67 26 51 25 88 -2 117 -21 22 -21 24 -3 17 11 -4 30 -16 42 -27z"/>
<path d="M1888 1950 c-31 -22 -58 -50 -62 -62 -3 -13 -79 -97 -169 -187 l-164
-163 -25 16 c-25 17 -26 16 -47 -28 -22 -47 -48 -70 -92 -81 -14 -3 -67 -48
-117 -98 l-91 -92 18 -40 c17 -38 63 -75 93 -75 20 0 195 180 203 210 13 44
35 68 76 84 40 16 48 33 27 54 -10 10 24 49 157 182 93 94 177 170 186 170 9
0 35 26 57 59 40 56 41 59 23 75 -16 15 -21 13 -73 -24z m33 -27 c-18 -31 -35
-49 -53 -56 -33 -12 -19 19 19 46 45 32 47 32 34 10z m-419 -427 c12 -18 9
-36 -6 -36 -18 0 -86 -76 -86 -96 0 -18 -167 -194 -184 -194 -18 0 -66 50 -66
68 0 27 134 154 193 182 34 16 60 38 76 63 19 29 29 36 45 31 12 -4 24 -12 28
-18z"/>
<path d="M1617 1562 l-46 -46 79 -83 c71 -73 80 -87 80 -120 0 -51 28 -103 67
-126 35 -20 144 -29 149 -12 2 6 -23 25 -57 44 -58 32 -61 35 -55 65 7 33 32
73 57 89 10 6 32 -1 74 -26 33 -20 62 -31 63 -26 2 5 -8 29 -23 54 -30 51 -76
79 -149 90 -47 7 -108 50 -172 120 l-21 23 -46 -46z m69 -23 c10 -12 45 -41
77 -65 44 -33 68 -44 95 -44 21 -1 48 -7 62 -16 23 -14 23 -14 2 -9 -25 7 -66
-20 -94 -63 -23 -35 -23 -100 0 -125 17 -20 17 -20 -16 -3 -35 18 -52 49 -52
95 0 34 -44 103 -99 156 -46 44 -48 51 -24 77 21 23 26 23 49 -3z"/>
<path d="M55 790 c3 -4 35 -14 72 -21 98 -20 2669 -21 2755 -1 75 17 83 32 16
26 -29 -2 -289 -6 -578 -8 -354 -2 -534 -7 -553 -15 -39 -15 -486 -15 -524 0
-19 8 -194 13 -553 15 -289 2 -551 6 -583 8 -31 2 -55 1 -52 -4z"/>
</g>
</svg>
