<?xml version="1.0" standalone="no"?>
<!DOCTYPE svg PUBLIC "-//W3C//DTD SVG 20010904//EN"
 "http://www.w3.org/TR/2001/REC-SVG-20010904/DTD/svg10.dtd">
<svg version="1.0" xmlns="http://www.w3.org/2000/svg"
 width="300.000000pt" height="300.000000pt" viewBox="0 0 300.000000 300.000000"
 preserveAspectRatio="xMidYMid meet">
<metadata>
Created by potrace 1.10, written by Peter Selinger 2001-2011
</metadata>
<g transform="translate(0.000000,300.000000) scale(0.100000,-0.100000)"
fill="#000000" stroke="none">
<path d="M51 2236 c-8 -10 -12 -108 -12 -333 0 -176 2 -326 5 -334 2 -8 7 -26
10 -41 7 -33 82 -125 136 -168 22 -18 63 -41 90 -51 48 -18 97 -19 1220 -19
1151 0 1170 0 1224 20 78 29 177 124 216 205 l30 63 0 314 c0 267 -2 317 -16
336 l-15 22 -1438 0 c-1211 0 -1440 -2 -1450 -14z m535 -10 c258 -2 474 -4
479 -4 390 0 1815 8 1828 12 31 8 18 -12 -40 -59 -69 -56 -137 -92 -192 -101
-22 -4 -39 -10 -36 -14 8 -13 94 8 144 35 25 14 74 50 108 81 40 35 64 50 69
43 4 -7 -9 -25 -32 -44 -21 -18 -36 -37 -31 -41 4 -4 21 5 37 21 l30 29 0
-307 c0 -176 -4 -308 -9 -312 -5 -3 -12 -19 -16 -36 -4 -18 -33 -56 -73 -97
-87 -87 -105 -99 -166 -112 -35 -7 -425 -9 -1211 -8 -1153 3 -1160 3 -1205 24
-51 23 -168 135 -189 180 -7 16 -17 37 -22 46 -5 10 -9 156 -9 325 l0 307 35
-34 c19 -18 37 -31 40 -29 2 3 -11 21 -30 39 -29 28 -46 60 -32 60 2 0 28 -23
58 -50 67 -62 178 -120 228 -119 33 0 30 2 -25 18 -34 10 -84 32 -110 49 -51
33 -141 118 -113 107 9 -3 227 -8 485 -9z"/>
<path d="M130 2114 c0 -17 40 -42 151 -95 20 -9 181 -11 1431 -11 670 -1 982
2 990 10 7 5 29 13 48 17 35 6 136 72 127 82 -3 3 -21 -7 -41 -22 -19 -14 -59
-36 -88 -48 l-53 -22 -1169 -3 c-1298 -3 -1239 -5 -1343 63 -29 20 -53 32 -53
29z"/>
<path d="M943 2073 c306 -2 808 -2 1115 0 306 1 55 2 -558 2 -613 0 -864 -1
-557 -2z"/>
<path d="M1670 1930 c0 -5 5 -10 11 -10 5 0 7 5 4 10 -3 6 -8 10 -11 10 -2 0
-4 -4 -4 -10z"/>
<path d="M1720 1926 c0 -2 9 -6 20 -9 11 -3 18 -1 14 4 -5 9 -34 13 -34 5z"/>
<path d="M1288 1903 c7 -3 16 -2 19 1 4 3 -2 6 -13 5 -11 0 -14 -3 -6 -6z"/>
<path d="M1433 1904 c7 -7 168 -6 176 1 2 3 -38 5 -89 5 -51 0 -91 -3 -87 -6z"/>
<path d="M1767 1895 c-4 -8 -1 -14 6 -12 15 3 22 -62 8 -76 -6 -6 -11 -15 -11
-21 0 -5 7 -1 15 10 18 24 19 73 1 97 -12 15 -14 15 -19 2z"/>
<path d="M1212 1888 c-7 -7 -11 -26 -11 -42 l2 -31 4 30 c3 17 9 36 15 43 13
15 6 16 -10 0z"/>
<path d="M2023 1873 c-25 -10 -7 -63 21 -63 5 0 1 6 -10 14 -16 13 -17 18 -6
35 7 12 11 21 10 20 -2 0 -9 -3 -15 -6z"/>
<path d="M2110 1870 c-8 -5 -12 -11 -10 -14 3 -2 14 2 24 10 22 15 10 19 -14
4z"/>
<path d="M1225 1860 c-3 -5 -1 -10 4 -10 6 0 11 5 11 10 0 6 -2 10 -4 10 -3 0
-8 -4 -11 -10z"/>
<path d="M2066 1857 c3 -10 9 -15 12 -12 3 3 0 11 -7 18 -10 9 -11 8 -5 -6z"/>
<path d="M2035 1851 c-3 -5 -2 -12 3 -15 5 -3 9 1 9 9 0 17 -3 19 -12 6z"/>
<path d="M2136 1825 c-11 -8 -15 -15 -9 -15 6 0 16 7 23 15 16 19 11 19 -14 0z"/>
<path d="M2189 1828 c15 -20 36 -23 46 -8 3 6 -1 7 -10 4 -8 -4 -23 0 -33 7
-15 13 -16 12 -3 -3z"/>
<path d="M1230 1821 c0 -6 4 -13 10 -16 6 -3 7 1 4 9 -7 18 -14 21 -14 7z"/>
<path d="M1225 1790 c10 -11 20 -20 23 -20 3 0 -3 9 -13 20 -10 11 -20 20 -23
20 -3 0 3 -9 13 -20z"/>
<path d="M1735 1770 c-16 -7 -17 -9 -3 -9 9 -1 20 4 23 9 7 11 7 11 -20 0z"/>
<path d="M1303 1763 c26 -2 67 -2 90 0 23 2 2 3 -48 3 -49 0 -68 -1 -42 -3z"/>
<path d="M1478 1763 c6 -2 18 -2 25 0 6 3 1 5 -13 5 -14 0 -19 -2 -12 -5z"/>
<path d="M487 1639 c-108 -25 -169 -102 -165 -206 1 -40 2 -42 5 -13 12 105
63 178 140 199 21 6 135 11 256 11 143 0 216 3 212 10 -8 12 -394 12 -448 -1z"/>
<path d="M1328 1633 c210 -2 554 -2 765 0 210 1 38 2 -383 2 -421 0 -593 -1
-382 -2z"/>
<path d="M955 1592 c-2 -2 -107 -3 -233 -3 -127 1 -233 -3 -236 -8 -5 -8 1986
-4 2009 4 6 2 -233 4 -530 5 -297 1 -645 2 -773 3 -129 1 -235 1 -237 -1z"/>
<path d="M2600 1586 c0 -2 8 -10 18 -17 15 -13 16 -12 3 4 -13 16 -21 21 -21
13z"/>
<path d="M480 1549 c0 -7 10 -24 23 -38 12 -14 18 -23 13 -19 -12 10 -46 -10
-46 -27 0 -7 11 -26 24 -42 22 -26 30 -29 78 -27 29 1 181 3 338 4 250 3 270
4 160 11 -69 4 -220 5 -336 2 l-210 -6 -22 28 c-12 15 -22 32 -22 36 0 5 451
10 1013 11 556 1 904 5 772 8 l-240 5 225 5 c137 3 -60 7 -500 10 -399 3 -838
3 -976 2 l-251 -4 -22 28 c-11 14 -21 21 -21 13z m677 -55 c-3 -3 -12 -4 -19
-1 -8 3 -5 6 6 6 11 1 17 -2 13 -5z m46 -1 c-7 -2 -19 -2 -25 0 -7 3 -2 5 12
5 14 0 19 -2 13 -5z m50 0 c-7 -2 -19 -2 -25 0 -7 3 -2 5 12 5 14 0 19 -2 13
-5z m50 0 c-7 -2 -19 -2 -25 0 -7 3 -2 5 12 5 14 0 19 -2 13 -5z m50 0 c-7 -2
-19 -2 -25 0 -7 3 -2 5 12 5 14 0 19 -2 13 -5z m50 0 c-7 -2 -19 -2 -25 0 -7
3 -2 5 12 5 14 0 19 -2 13 -5z m165 0 c-26 -2 -71 -2 -100 0 -29 2 -8 3 47 3
55 0 79 -1 53 -3z"/>
<path d="M1495 1539 c-425 -17 -434 -17 -160 -13 160 3 315 7 345 9 30 2 163
6 295 10 132 4 242 9 244 11 8 7 -277 1 -724 -17z"/>
<path d="M2258 1463 c12 -2 30 -2 40 0 9 3 -1 5 -23 4 -22 0 -30 -2 -17 -4z"/>
<path d="M2666 1457 c3 -10 9 -15 12 -12 3 3 0 11 -7 18 -10 9 -11 8 -5 -6z"/>
<path d="M1545 1444 c-516 -18 -567 -22 -220 -17 165 3 336 7 380 8 44 2 166
7 270 11 105 3 192 8 194 10 7 7 -235 2 -624 -12z"/>
<path d="M1263 1403 c37 -2 96 -2 130 0 34 2 4 3 -68 3 -71 0 -99 -1 -62 -3z"/>
<path d="M1488 1403 c6 -2 18 -2 25 0 6 3 1 5 -13 5 -14 0 -19 -2 -12 -5z"/>
<path d="M1653 1403 c53 -2 141 -2 195 0 53 1 9 3 -98 3 -107 0 -151 -2 -97
-3z"/>
<path d="M1958 1403 c6 -2 18 -2 25 0 6 3 1 5 -13 5 -14 0 -19 -2 -12 -5z"/>
<path d="M2038 1403 c12 -2 32 -2 45 0 12 2 2 4 -23 4 -25 0 -35 -2 -22 -4z"/>
<path d="M2208 1403 c6 -2 18 -2 25 0 6 3 1 5 -13 5 -14 0 -19 -2 -12 -5z"/>
<path d="M2258 1403 c7 -3 16 -2 19 1 4 3 -2 6 -13 5 -11 0 -14 -3 -6 -6z"/>
<path d="M2338 1403 c23 -2 61 -2 85 0 23 2 4 4 -43 4 -47 0 -66 -2 -42 -4z"/>
<path d="M692 1353 c175 -2 461 -2 635 0 175 1 32 2 -317 2 -349 0 -492 -1
-318 -2z"/>
<path d="M1658 1353 c6 -2 18 -2 25 0 6 3 1 5 -13 5 -14 0 -19 -2 -12 -5z"/>
<path d="M1783 1353 c48 -2 126 -2 175 0 48 1 8 3 -88 3 -96 0 -136 -2 -87 -3z"/>
<path d="M2058 1353 c6 -2 18 -2 25 0 6 3 1 5 -13 5 -14 0 -19 -2 -12 -5z"/>
<path d="M2183 1353 c48 -2 126 -2 175 0 48 1 8 3 -88 3 -96 0 -136 -2 -87 -3z"/>
<path d="M2458 1353 c6 -2 18 -2 25 0 6 3 1 5 -13 5 -14 0 -19 -2 -12 -5z"/>
<path d="M2527 1353 c18 -2 50 -2 70 0 21 2 7 4 -32 4 -38 0 -55 -2 -38 -4z"/>
<path d="M888 1189 c-58 -42 -57 -117 2 -204 64 -94 75 -147 44 -208 l-17 -31
24 15 c37 25 69 78 69 116 0 43 -19 87 -64 150 -52 73 -62 105 -42 144 9 18
15 33 14 35 -2 1 -15 -6 -30 -17z m45 -182 c27 -27 60 -105 52 -125 -4 -12
-16 3 -39 51 -18 36 -36 64 -38 61 -8 -7 -38 73 -38 99 1 16 6 11 23 -23 11
-24 30 -53 40 -63z"/>
<path d="M1262 1180 c-57 -56 -49 -114 30 -227 28 -40 33 -57 33 -103 0 -30
-4 -66 -9 -80 l-8 -25 27 25 c37 34 55 72 55 115 0 41 -17 78 -71 154 -41 57
-50 102 -28 143 17 32 4 31 -29 -2z m6 -105 c-3 -3 10 -22 29 -42 42 -47 73
-110 73 -151 0 -45 -17 -48 -23 -3 -2 21 -20 60 -39 87 -30 43 -58 97 -58 109
0 3 5 5 12 5 6 0 9 -2 6 -5z"/>
<path d="M1641 1175 c-47 -54 -43 -101 15 -195 61 -98 69 -127 50 -181 -8 -24
-14 -45 -12 -46 2 -2 20 15 40 37 30 34 36 47 36 86 0 50 -14 83 -71 163 -42
59 -49 97 -25 144 20 38 4 34 -33 -8z m25 -126 c8 -9 11 -19 8 -22 -4 -4 0 -9
9 -13 21 -8 56 -64 56 -89 0 -11 2 -33 6 -50 4 -24 1 -21 -15 15 -12 25 -37
69 -57 98 -22 33 -37 69 -39 95 -4 41 -4 41 7 12 6 -16 18 -37 25 -46z"/>
<path d="M2020 1173 c-46 -52 -40 -104 23 -205 56 -90 64 -122 43 -173 -9 -21
-15 -40 -13 -42 3 -2 21 15 41 37 30 33 36 47 36 84 0 58 -13 89 -62 155 -47
62 -59 117 -34 156 25 38 3 30 -34 -12z m48 -150 c46 -62 66 -108 57 -130 -6
-16 -8 -16 -17 7 -5 13 -16 32 -25 42 -8 9 -12 22 -7 29 4 7 3 10 -4 6 -11 -7
-50 64 -57 104 -3 22 -3 23 8 5 7 -10 27 -39 45 -63z m59 -175 c-3 -8 -6 -5
-6 6 -1 11 2 17 5 13 3 -3 4 -12 1 -19z"/>
</g>
</svg>
