<?xml version="1.0" standalone="no"?>
<!DOCTYPE svg PUBLIC "-//W3C//DTD SVG 20010904//EN"
 "http://www.w3.org/TR/2001/REC-SVG-20010904/DTD/svg10.dtd">
<svg version="1.0" xmlns="http://www.w3.org/2000/svg"
 width="300.000000pt" height="300.000000pt" viewBox="0 0 300.000000 300.000000"
 preserveAspectRatio="xMidYMid meet">
<metadata>
Created by potrace 1.10, written by Peter Selinger 2001-2011
</metadata>
<g transform="translate(0.000000,300.000000) scale(0.100000,-0.100000)"
fill="#000000" stroke="none">
<path d="M1780 2655 l-216 -216 -49 10 c-28 5 -68 12 -90 15 l-41 6 -624 -625
c-344 -344 -625 -628 -625 -633 1 -28 17 -145 22 -158 4 -12 185 163 697 675
643 643 757 749 770 717 2 -6 102 87 222 207 215 213 218 217 184 217 -32 0
-52 -17 -250 -215z m-276 -228 c19 10 -36 -45 -683 -692 -346 -345 -633 -627
-637 -626 -5 0 -9 25 -9 55 l0 54 606 610 607 609 52 -8 c29 -5 58 -6 64 -2z"/>
<path d="M1690 2819 c-31 -14 -96 -70 -210 -183 l-165 -164 -90 -6 c-49 -3
-104 -8 -121 -12 -24 -4 -135 -110 -492 -467 l-461 -462 -11 -86 c-6 -47 -10
-101 -8 -119 3 -31 20 -15 579 547 550 553 640 636 670 617 6 -3 92 75 192
175 100 99 178 181 172 180 -5 0 -30 -9 -55 -20z m-981 -915 l-534 -534 -3 42
c-7 92 -21 75 461 554 442 439 454 450 503 459 123 24 148 54 -427 -521z"/>
<path d="M2005 2600 l-230 -230 -63 25 c-34 14 -70 25 -79 25 -10 0 -127 -109
-263 -245 -220 -220 -246 -243 -252 -223 -6 20 -7 20 -5 -4 2 -24 -60 -90
-467 -497 l-470 -470 13 -43 c7 -24 20 -59 27 -78 l15 -34 767 766 c563 563
774 768 795 772 17 3 27 0 27 -7 0 -7 -353 -365 -784 -796 l-784 -783 39 -67
38 -67 808 808 c766 767 810 809 840 806 30 -3 49 13 266 230 220 219 232 233
213 246 -19 12 -37 -3 -258 -226 l-237 -240 -63 37 c-35 20 -65 39 -68 41 -2
3 101 110 229 238 210 210 231 234 209 239 -12 4 -25 7 -28 7 -3 0 -109 -104
-235 -230z m-332 -226 c26 -9 47 -18 47 -21 0 -2 -136 -140 -302 -305 -167
-166 -500 -497 -740 -736 l-437 -436 -11 30 c-7 16 -12 39 -13 51 -2 16 175
198 701 727 387 388 705 706 706 706 1 0 23 -7 49 -16z m197 -86 c22 -13 40
-26 40 -29 0 -4 -352 -355 -782 -782 -431 -426 -786 -778 -790 -782 -6 -7 -53
73 -46 80 24 27 1533 1535 1535 1535 2 0 22 -10 43 -22z"/>
<path d="M2357 2382 c-130 -130 -237 -240 -237 -244 0 -4 7 -5 16 -1 13 5 15
2 9 -18 -4 -13 -377 -394 -828 -847 l-822 -823 35 -30 c19 -16 45 -37 58 -46
23 -16 28 -12 838 798 448 448 814 817 814 821 0 3 -20 30 -44 60 l-44 53 241
242 c208 209 239 244 228 257 -8 9 -16 16 -20 16 -3 0 -113 -107 -244 -238z
m-159 -374 c12 -14 -82 -111 -783 -810 -438 -436 -801 -794 -808 -795 -7 -2
-25 9 -41 23 l-29 26 72 71 c39 40 401 403 804 807 l732 736 20 -21 c11 -11
26 -28 33 -37z"/>
<path d="M2488 2233 c-131 -131 -238 -241 -238 -245 0 -4 7 -5 16 -1 58 22
-85 -129 -807 -852 l-809 -810 67 -38 67 -38 455 455 c411 409 458 453 479
445 13 -5 22 -5 22 1 0 6 -10 10 -22 10 -17 0 56 79 306 329 l329 329 -36 62
c-21 34 -37 65 -37 68 0 4 106 113 235 242 129 129 235 237 235 241 0 3 -6 13
-12 22 -12 15 -40 -10 -250 -220z m-190 -376 l23 -42 -768 -762 c-422 -419
-772 -762 -777 -763 -5 0 -24 10 -43 21 l-35 22 424 423 c233 233 422 424 421
424 -2 0 159 162 357 360 198 198 364 360 368 360 4 0 17 -19 30 -43z"/>
<path d="M880 2391 c-321 -125 -564 -376 -683 -704 -14 -37 -24 -67 -23 -67 3
0 805 804 803 806 -1 1 -45 -15 -97 -35z m-21 -46 c-51 -56 -604 -603 -607
-600 -10 9 93 183 153 261 101 129 223 227 383 309 65 34 80 40 71 30z"/>
<path d="M1160 2290 c-7 -17 -10 -33 -8 -36 3 -2 11 9 18 26 7 17 10 33 8 36
-3 2 -11 -9 -18 -26z"/>
<path d="M2587 2052 c-125 -125 -227 -231 -227 -236 0 -4 8 -5 18 -1 14 5 15
4 5 -6 -7 -7 -13 -20 -13 -28 0 -9 104 88 230 214 127 126 230 237 230 245 -1
49 -24 31 -243 -188z"/>
<path d="M1178 1418 l-816 -818 45 -55 c25 -30 48 -55 52 -55 4 0 378 372 831
826 l825 826 -45 40 c-25 21 -52 42 -60 46 -11 5 -241 -219 -832 -810z m871
742 l25 -21 -285 -285 c-948 -949 -1320 -1319 -1328 -1322 -4 -1 -19 12 -33
30 l-25 33 795 802 c645 651 798 800 811 793 9 -5 27 -19 40 -30z"/>
<path d="M2650 1828 c-118 -120 -209 -218 -202 -218 10 0 9 -6 -2 -22 -9 -12
-16 -29 -16 -38 0 -8 -310 -325 -690 -705 -379 -379 -688 -690 -687 -691 1 -1
43 -6 92 -13 l90 -11 510 509 c401 400 518 511 547 521 21 6 40 16 43 21 9 13
-2 11 -38 -7 -22 -11 -1 15 71 88 l103 105 -13 92 -13 92 213 213 c204 202
213 214 210 247 l-3 34 -215 -217z m-219 -365 c0 -16 1 -43 2 -61 2 -30 -37
-71 -598 -633 l-600 -599 -55 2 c-30 2 -54 7 -53 11 2 12 1286 1306 1296 1307
4 0 7 -12 8 -27z"/>
<path d="M1600 994 c-421 -419 -762 -765 -759 -768 3 -3 39 -18 80 -32 l74
-25 716 722 c704 709 717 722 708 752 -15 54 -42 117 -48 115 -3 -1 -350 -344
-771 -764z m784 669 l14 -48 -701 -702 c-405 -406 -709 -703 -720 -703 -10 0
-34 7 -54 15 l-37 16 432 432 c237 238 568 568 734 735 166 166 306 302 310
302 4 0 14 -21 22 -47z"/>
<path d="M1151 1714 c0 -11 3 -14 6 -6 3 7 2 16 -1 19 -3 4 -6 -2 -5 -13z"/>
<path d="M2653 1550 c-152 -154 -198 -207 -163 -185 6 3 -1 -15 -15 -42 -18
-34 -192 -215 -598 -620 -637 -638 -595 -584 -426 -562 l86 11 456 457 456
456 10 78 c6 43 11 95 11 115 0 35 11 48 156 192 121 121 161 167 180 209 13
30 23 57 22 60 -2 3 -81 -73 -175 -169z m-219 -367 c-12 -112 20 -74 -462
-555 l-447 -446 -57 -7 c-31 -4 -61 -6 -67 -4 -12 4 1007 1035 1025 1038 7 0
10 -11 8 -26z"/>
<path d="M1240 1520 c0 -5 5 -10 11 -10 5 0 7 5 4 10 -3 6 -8 10 -11 10 -2 0
-4 -4 -4 -10z"/>
<path d="M1360 1371 c0 -5 5 -13 10 -16 6 -3 10 -2 10 4 0 5 -4 13 -10 16 -5
3 -10 2 -10 -4z"/>
<path d="M1525 1240 c3 -5 8 -10 11 -10 2 0 4 5 4 10 0 6 -5 10 -11 10 -5 0
-7 -4 -4 -10z"/>
<path d="M1958 1113 c6 -2 18 -2 25 0 6 3 1 5 -13 5 -14 0 -19 -2 -12 -5z"/>
<path d="M2025 570 c-215 -215 -386 -390 -382 -390 5 0 47 16 95 36 304 126
531 355 652 658 17 43 29 80 27 82 -1 2 -178 -172 -392 -386z m275 183 c-84
-157 -193 -278 -343 -384 -67 -48 -177 -109 -194 -109 -4 0 122 130 282 290
159 159 291 287 293 285 2 -2 -15 -39 -38 -82z"/>
</g>
</svg>
