<?xml version="1.0" standalone="no"?>
<!DOCTYPE svg PUBLIC "-//W3C//DTD SVG 20010904//EN"
 "http://www.w3.org/TR/2001/REC-SVG-20010904/DTD/svg10.dtd">
<svg version="1.0" xmlns="http://www.w3.org/2000/svg"
 width="300.000000pt" height="300.000000pt" viewBox="0 0 300.000000 300.000000"
 preserveAspectRatio="xMidYMid meet">
<metadata>
Created by potrace 1.10, written by Peter Selinger 2001-2011
</metadata>
<g transform="translate(0.000000,300.000000) scale(0.100000,-0.100000)"
fill="#000000" stroke="none">
<path d="M855 2875 c-24 -40 -41 -52 -168 -118 -78 -41 -155 -78 -172 -81 -16
-4 -74 -34 -127 -67 -96 -60 -97 -61 -82 -84 15 -22 13 -25 -35 -70 -28 -26
-51 -55 -51 -64 0 -25 56 -116 88 -142 15 -14 27 -29 25 -34 -15 -46 -200
-936 -224 -1078 -34 -199 -34 -266 0 -342 17 -39 24 -45 74 -59 30 -9 73 -16
95 -16 44 0 102 17 102 31 0 11 4 11 -50 -5 -37 -11 -54 -11 -103 1 -85 19
-95 27 -112 87 -22 77 -21 120 14 316 24 138 163 799 219 1047 9 38 8 43 -10
49 -18 5 -98 116 -98 135 0 4 29 -4 65 -19 52 -20 76 -37 112 -80 75 -88 129
-98 250 -50 41 17 57 19 75 11 21 -10 20 -11 -22 -22 -94 -25 -125 -46 -82
-58 22 -5 23 14 -14 -363 -13 -140 -27 -263 -30 -274 -4 -11 -2 -16 4 -12 5 3
12 16 16 29 8 34 56 510 56 561 l0 44 29 -14 c15 -8 50 -18 76 -23 l48 -9 -7
202 c-5 164 -22 431 -29 470 -1 5 3 10 9 12 5 3 20 -20 32 -49 26 -63 78 -127
127 -157 30 -19 35 -27 35 -61 0 -33 4 -40 25 -45 28 -7 34 -38 10 -48 -22 -8
-19 -53 5 -66 19 -10 20 -21 20 -161 0 -107 3 -148 11 -143 8 4 10 53 8 154
-3 113 -1 151 10 163 13 17 12 21 -14 66 -12 22 -12 26 5 38 24 17 43 74 35
106 -5 20 -1 29 25 47 38 27 90 115 90 153 0 29 14 36 27 14 4 -8 20 -21 34
-31 25 -15 26 -19 18 -64 -14 -76 -26 -513 -14 -509 6 2 13 95 17 233 6 213
14 314 23 314 4 0 187 -82 194 -86 8 -7 -52 -95 -118 -172 -40 -47 -75 -100
-81 -120 -13 -48 -13 -135 0 -127 6 3 10 27 10 53 1 62 27 117 89 186 28 31
67 81 88 111 20 31 41 54 47 51 39 -16 202 -89 205 -92 2 -2 -2 -10 -8 -18 -7
-8 -10 -20 -6 -26 3 -5 -19 -37 -51 -70 -31 -33 -54 -63 -50 -68 5 -4 35 22
68 57 l59 65 42 -43 c23 -23 38 -41 32 -39 -15 4 -105 -33 -105 -43 0 -11 23
-12 35 -1 6 5 24 14 40 21 l30 13 -24 -26 c-14 -14 -20 -26 -15 -26 6 0 23 14
40 31 l29 31 -59 53 c-52 47 -58 56 -46 70 8 9 9 19 4 25 -5 5 -119 60 -254
123 l-245 114 -45 66 -45 67 -152 0 -152 0 -26 -45z m325 20 c0 -15 -82 -166
-106 -194 l-27 -32 -49 48 c-53 51 -92 111 -102 156 l-6 27 145 0 c80 0 145
-2 145 -5z m30 -72 c0 -25 -23 -83 -33 -83 -4 0 -5 -4 -2 -10 3 -5 -17 -34
-46 -63 -41 -42 -52 -62 -55 -93 -8 -73 -10 -77 -37 -81 -15 -2 -27 1 -27 7 0
6 6 8 13 4 8 -6 8 -3 -1 9 -8 9 -12 22 -10 29 5 13 -21 48 -36 48 -5 0 -16 8
-25 19 -9 10 -33 38 -55 62 -42 48 -60 85 -50 101 4 7 2 8 -4 4 -19 -12 -13
17 8 44 l20 25 20 -24 c11 -12 18 -27 15 -31 -3 -4 2 -10 10 -14 8 -3 15 -10
15 -16 0 -19 92 -110 112 -110 21 0 58 29 58 46 0 7 6 14 14 17 8 3 22 26 31
51 10 26 22 43 28 39 6 -3 7 -1 3 5 -8 13 15 43 27 35 4 -2 7 -11 7 -20z
m-435 -115 c4 -35 12 -179 18 -321 l12 -259 -40 7 c-22 3 -54 16 -72 28 l-31
21 58 18 c50 16 58 22 63 48 9 43 -10 129 -36 167 -12 17 -43 55 -68 85 -26
29 -63 78 -83 110 l-36 56 98 51 c53 28 100 50 104 51 3 0 9 -28 13 -62z
m-195 -104 c19 -31 65 -92 102 -137 63 -77 88 -129 88 -187 0 -23 9 -23 -129
10 -47 11 -103 31 -126 45 -57 33 -209 197 -194 208 40 29 203 116 219 116 3
1 21 -24 40 -55z m-195 -180 c74 -86 151 -132 270 -159 l30 -7 -45 -18 c-25
-11 -64 -19 -88 -19 -40 -1 -49 4 -115 67 -48 45 -91 76 -130 92 l-57 24 37
38 c20 21 40 38 44 38 4 0 28 -25 54 -56z m682 -20 c8 -21 -13 -42 -28 -27
-13 13 -5 43 11 43 6 0 13 -7 17 -16z"/>
<path d="M940 2855 c18 -28 23 -30 93 -33 72 -3 74 -2 87 25 8 15 16 30 17 33
2 3 -46 5 -106 5 l-110 0 19 -30z m128 -2 c-15 -2 -42 -2 -60 0 -18 2 -6 4 27
4 33 0 48 -2 33 -4z"/>
<path d="M1463 2363 c15 -2 37 -2 50 0 12 2 0 4 -28 4 -27 0 -38 -2 -22 -4z"/>
<path d="M1553 2363 c9 -2 25 -2 35 0 9 3 1 5 -18 5 -19 0 -27 -2 -17 -5z"/>
<path d="M1392 2318 c-20 -21 -22 -21 -22 -4 0 11 -3 17 -6 13 -7 -7 44 -162
65 -197 8 -14 37 -50 63 -81 46 -54 68 -95 68 -125 0 -14 -2 -13 -16 0 -21 22
-25 21 -69 -14 -58 -46 -67 -39 -40 27 24 57 3 64 -42 13 -42 -47 -109 -90
-140 -90 -17 0 -20 7 -22 62 -1 41 2 64 11 69 10 6 8 9 -6 9 -17 0 -18 5 -12
53 4 28 14 57 22 63 11 9 11 13 3 16 -8 3 -6 9 5 21 10 9 13 17 8 17 -13 0
-28 -20 -38 -53 -8 -24 -27 -36 -124 -78 -63 -27 -132 -63 -154 -81 -31 -25
-42 -29 -56 -20 -29 18 -31 1 -4 -31 30 -36 81 -134 90 -173 16 -77 25 -147
19 -162 -8 -21 -62 60 -117 174 -23 47 -43 82 -46 79 -5 -4 68 -155 124 -257
26 -46 26 -50 29 -283 2 -131 6 -239 9 -242 3 -3 5 109 6 248 1 140 4 272 8
294 7 39 8 40 52 43 25 2 86 -4 137 -13 51 -9 122 -15 158 -13 l65 3 0 -31 c0
-20 -6 -34 -16 -38 -8 -3 -31 -40 -50 -83 -28 -60 -52 -94 -112 -154 -42 -42
-92 -84 -110 -93 -19 -10 -31 -20 -29 -23 11 -10 120 52 168 95 38 34 53 58
79 125 64 167 80 163 80 -24 0 -198 -10 -310 -29 -317 -33 -12 -142 -75 -138
-79 3 -2 37 12 76 31 l71 36 0 -44 c0 -40 -4 -47 -35 -66 -57 -35 -81 -77
-114 -199 -18 -62 -30 -116 -27 -118 2 -2 11 22 20 54 52 185 55 190 99 228
l42 36 2 -28 c2 -15 10 -104 18 -198 8 -93 16 -202 17 -241 l3 -72 -55 -6
c-52 -6 -303 0 -365 9 l-30 5 1 267 c0 148 -1 278 -4 289 -3 19 -9 21 -42 17
-30 -4 -59 3 -127 31 -48 20 -79 29 -69 21 11 -8 40 -22 65 -32 25 -9 50 -23
54 -30 5 -8 29 -13 64 -13 l55 0 -8 -28 c-4 -15 -8 -170 -8 -344 l-1 -317 30
-18 c22 -13 57 -18 133 -21 112 -5 281 5 300 17 7 4 15 36 18 72 l6 64 59 -3
59 -4 0 -57 0 -58 30 5 c18 3 30 0 30 -7 0 -6 5 -11 10 -11 6 0 10 28 10 65 0
45 4 65 13 65 8 0 7 4 -3 10 -12 8 -10 10 10 10 14 0 42 3 64 7 l39 6 -8 -88
c-5 -63 -4 -85 4 -81 7 4 11 40 11 87 l0 79 69 0 c38 0 115 5 172 11 82 8 104
7 110 -3 7 -10 9 -9 9 3 0 11 18 19 65 28 36 7 65 18 65 23 0 6 -8 7 -17 3
-72 -27 -443 -68 -460 -51 -5 4 -7 132 -5 285 3 266 2 280 -22 380 -42 172
-43 229 -8 341 17 52 33 121 37 152 l6 57 47 -14 c73 -20 227 -26 310 -11 l72
13 0 -36 c4 -373 10 -642 16 -666 4 -16 7 -121 7 -232 0 -112 3 -203 7 -203
13 0 20 282 10 380 -17 163 -24 424 -12 416 6 -3 12 1 14 10 2 8 46 38 97 65
52 27 87 49 77 49 -10 0 -54 -20 -99 -45 -44 -25 -82 -43 -85 -41 -2 3 5 20
16 38 12 18 38 64 59 102 21 37 48 80 60 95 l21 26 32 -23 c17 -13 34 -22 36
-19 9 9 -56 48 -74 45 -9 -2 -31 -28 -49 -58 -18 -30 -49 -83 -70 -117 l-38
-61 -6 201 c-5 180 -3 209 14 267 26 90 87 185 87 136 0 -8 4 -16 8 -18 8 -3
92 -125 92 -134 0 -2 20 -37 43 -77 47 -77 82 -140 155 -277 24 -47 62 -116
83 -155 20 -38 47 -101 60 -140 12 -38 29 -82 37 -97 15 -26 14 -33 -19 -125
-32 -92 -34 -106 -34 -228 -1 -126 -2 -132 -33 -192 -18 -35 -29 -63 -24 -63
4 0 22 29 40 65 30 61 32 73 32 166 0 78 6 124 26 198 14 53 28 97 29 99 2 2
2 -79 0 -180 -3 -161 -7 -218 -20 -303 -2 -11 -17 -58 -34 -104 -17 -47 -31
-91 -31 -98 0 -72 86 172 96 272 6 66 6 341 0 430 -8 117 -207 527 -432 891
-27 44 -84 107 -91 100 -3 -3 -20 5 -37 18 -37 28 -132 77 -201 105 -27 10
-68 27 -90 36 l-40 17 19 -20 c10 -12 31 -24 47 -27 16 -4 31 -11 34 -16 4 -5
13 -9 21 -9 17 0 107 -43 179 -84 64 -38 61 -34 47 -48 -9 -9 -24 -4 -62 20
-50 31 -142 73 -232 107 -42 16 -47 21 -53 56 -9 53 -26 50 -19 -3 4 -29 -3
-80 -20 -150 -14 -59 -26 -117 -26 -127 0 -25 -18 -37 -33 -22 -8 8 -8 11 2
11 7 0 9 5 5 11 -4 8 -9 7 -15 -2 -11 -18 -69 38 -101 97 -29 55 -53 58 -67 7
-6 -21 -11 -44 -11 -50 0 -20 -18 -15 -30 8 -8 15 -8 29 -1 51 6 17 11 33 11
34 0 2 -19 4 -42 5 -24 1 -54 5 -68 9 -22 7 -20 8 15 9 22 1 54 -3 72 -8 31
-9 34 -7 79 47 72 88 145 245 124 266 -7 7 -10 5 -10 -7 0 -9 -10 -39 -21 -66
l-22 -49 -149 3 c-82 1 -151 5 -154 8 -3 2 -20 1 -39 -3 -29 -7 -34 -5 -39 14
-11 40 -6 79 12 92 9 7 12 14 7 14 -6 0 -21 -10 -33 -22z m151 -130 c11 -5 17
-5 17 2 0 5 7 10 15 10 14 0 14 -3 0 -29 -14 -28 -14 -30 5 -36 11 -4 35 -3
52 0 26 6 30 5 25 -8 -5 -12 3 -17 31 -20 20 -2 7 -3 -29 -2 -68 3 -111 17
-108 38 4 31 -4 35 -71 42 -39 4 -67 11 -64 16 6 11 100 1 127 -13z m110 -10
c4 -12 4 -24 1 -27 -6 -7 -24 20 -24 37 0 21 17 13 23 -10z m-115 -22 c7 -8
-48 -8 -87 0 -17 4 -31 10 -31 14 0 7 109 -5 118 -14z m79 18 c-3 -3 -12 -4
-19 -1 -8 3 -5 6 6 6 11 1 17 -2 13 -5z m150 0 c-7 -8 -87 -7 -95 0 -3 3 19 6
48 6 29 0 51 -3 47 -6z m-142 -24 c-3 -5 -12 -10 -20 -10 -8 0 -17 5 -20 10
-4 6 5 10 20 10 15 0 24 -4 20 -10z m131 -7 c-7 -7 -77 -5 -85 2 -2 3 17 5 44
5 27 0 45 -3 41 -7z m-186 -34 c9 -6 -11 -7 -50 -3 -36 4 -69 11 -75 16 -12
11 104 -1 125 -13z m90 -30 c29 -5 6 -6 -65 -3 -60 3 -114 10 -120 15 -10 10
103 3 185 -12z m538 -90 c20 -12 49 -31 64 -41 l27 -18 -26 -56 c-14 -30 -30
-82 -36 -114 l-11 -59 -65 -7 c-57 -6 -242 7 -319 22 -30 6 -33 16 -70 184 -1
8 7 2 19 -13 22 -28 90 -77 108 -77 5 0 14 24 20 53 7 28 21 91 32 138 l21 86
99 -38 c55 -21 116 -48 137 -60z m-988 22 c0 -78 -11 -86 -114 -87 -104 -1
-116 -2 -116 -11 0 -5 33 -8 73 -9 113 -2 167 -13 167 -36 0 -48 80 -24 155
48 25 24 47 44 50 44 2 0 -3 -16 -11 -37 -9 -20 -13 -44 -11 -54 8 -30 -78
-102 -152 -127 -52 -18 -80 -21 -159 -17 -95 4 -90 1 16 -11 29 -3 50 -9 48
-12 -2 -4 17 -8 42 -8 26 -1 83 -3 128 -5 l81 -3 -1 -35 -1 -36 -53 -3 c-29
-2 -90 4 -135 12 -45 9 -109 17 -143 18 l-61 2 -17 66 c-9 37 -35 97 -56 134
-44 75 -44 76 -29 76 5 0 27 13 47 30 31 24 219 116 245 119 4 1 7 -25 7 -58z
m427 39 c24 0 42 -4 39 -9 -7 -11 -158 -1 -171 11 -7 7 6 9 39 4 27 -3 69 -6
93 -6z m-2 -70 c-3 -5 -22 -10 -41 -10 -19 0 -34 5 -34 10 0 6 18 10 41 10 24
0 38 -4 34 -10z m110 -55 c2 -11 12 -59 23 -106 l18 -85 -58 -15 c-65 -18 -61
-21 -73 61 -4 25 -11 60 -17 78 -13 43 -4 52 15 15 11 -20 17 -24 20 -13 3 8
13 39 23 69 16 51 18 53 31 35 8 -10 16 -28 18 -39z m-125 25 c-20 -13 -50
-13 -50 0 0 6 15 10 33 10 24 0 28 -3 17 -10z m2 -50 c-4 -25 -9 -30 -31 -29
l-26 1 25 8 c24 8 24 8 3 9 -33 1 -29 29 5 34 15 2 27 5 28 6 0 0 -1 -12 -4
-29z m-75 -2 c5 -7 7 -53 5 -103 l-4 -90 -64 0 -64 0 0 67 0 66 48 35 c52 39
65 43 79 25z m83 -58 c0 -5 -16 -10 -36 -10 -21 0 -33 4 -29 10 3 6 19 10 36
10 16 0 29 -4 29 -10z m-220 -75 l0 -65 -72 1 c-40 1 -86 4 -103 8 -27 6 -26
7 29 24 38 12 74 33 100 58 23 21 42 39 44 39 1 0 2 -29 2 -65z m213 38 c-13
-2 -33 -2 -45 0 -13 2 -3 4 22 4 25 0 35 -2 23 -4z m27 -48 c0 -11 -12 -15
-45 -15 -33 0 -45 4 -45 15 0 11 12 15 45 15 33 0 45 -4 45 -15z m5 -35 c4 -6
-11 -10 -39 -10 -25 0 -48 5 -51 10 -4 6 11 10 39 10 25 0 48 -4 51 -10z m133
-39 c2 -27 0 -29 -50 -34 -54 -5 -71 3 -65 33 2 15 38 27 87 29 21 1 26 -4 28
-28z m42 20 c0 -4 12 -6 26 -3 15 3 25 1 22 -4 -3 -5 37 -10 91 -12 76 -2 99
-6 109 -19 6 -9 12 -12 12 -6 0 12 20 18 93 28 46 7 47 7 47 -19 0 -19 -7 -27
-27 -33 -47 -13 -314 -9 -360 5 -38 11 -43 16 -43 42 0 20 5 30 15 30 8 0 15
-4 15 -9z m-300 -12 c0 -5 5 -7 12 -3 8 5 9 0 5 -17 -4 -13 -7 -31 -7 -39 0
-12 -11 -14 -52 -11 -56 3 -68 12 -68 48 0 17 7 23 33 26 62 8 77 7 77 -4z
m129 -15 c2 -2 -11 -5 -30 -5 l-34 -2 35 -7 c32 -7 31 -8 -14 -7 -39 2 -50 6
-52 20 -2 16 3 17 44 11 26 -4 49 -8 51 -10z m127 -61 c-3 -16 -8 -46 -12 -68
-3 -22 -17 -75 -31 -119 -22 -68 -25 -89 -20 -165 3 -47 17 -133 32 -191 25
-104 25 -107 19 -377 l-7 -273 -43 0 c-23 0 -49 -2 -57 -6 -12 -4 -14 41 -13
313 1 209 -4 367 -13 462 l-15 144 30 148 c32 163 25 153 107 158 26 1 28 -1
23 -26z m-151 8 c40 -9 39 -9 -17 -10 -33 0 -58 3 -58 9 0 12 20 12 75 1z
m-60 -21 c22 0 54 -4 70 -10 25 -8 21 -9 -29 -6 l-58 3 7 -226 7 -226 -29 -36
c-23 -29 -33 -35 -46 -28 -29 17 -60 -8 -55 -42 3 -17 -1 -34 -9 -40 -10 -9
-13 -6 -13 12 0 44 11 64 51 91 21 15 39 33 39 40 0 6 -10 3 -22 -8 -57 -50
-53 -65 -53 223 l0 265 50 -6 c28 -3 68 -5 90 -6z m80 -50 c8 -12 -42 -12 -70
0 -16 7 -11 9 22 9 23 1 45 -3 48 -9z m-6 -26 c2 -2 2 -6 0 -9 -8 -7 -79 7
-79 16 0 7 70 1 79 -7z m-9 -45 c0 -10 -16 -11 -47 -3 -36 10 -27 20 12 16 19
-2 35 -8 35 -13z m-7 -29 c-9 -10 -63 -1 -63 9 0 4 16 5 36 3 20 -2 32 -8 27
-12z m-22 -38 c-13 -2 -27 0 -32 5 -6 6 3 7 23 4 28 -4 29 -6 9 -9z m14 -22
c8 -13 -25 -13 -45 0 -12 8 -9 10 12 10 15 0 30 -4 33 -10z m-5 -40 c0 -5 -9
-10 -20 -10 -11 0 -20 5 -20 10 0 6 9 10 20 10 11 0 20 -4 20 -10z m-10 -30
c12 -8 11 -10 -7 -10 -13 0 -23 5 -23 10 0 13 11 13 30 0z m5 -40 c3 -5 -3
-10 -14 -10 -12 0 -21 5 -21 10 0 6 6 10 14 10 8 0 18 -4 21 -10z m5 -29 c0
-5 -9 -7 -20 -4 -11 3 -20 7 -20 9 0 2 9 4 20 4 11 0 20 -4 20 -9z m0 -31 c12
-8 9 -10 -12 -10 -16 0 -28 5 -28 10 0 13 20 13 40 0z m0 -30 c12 -8 11 -10
-7 -10 -12 0 -25 5 -28 10 -8 13 15 13 35 0z m10 -51 c0 -5 -11 -9 -25 -9 -14
0 -25 6 -25 14 0 9 8 12 25 8 14 -2 25 -8 25 -13z m0 -27 c0 -5 -13 -7 -30 -4
-16 2 -30 6 -30 8 0 2 14 4 30 4 17 0 30 -4 30 -8z m-73 -69 c-9 -59 -3 -474
9 -590 7 -61 6 -63 -16 -63 -22 0 -23 1 -5 20 15 17 16 24 7 45 -14 31 -46 32
-66 3 -14 -20 -14 -24 0 -47 15 -22 15 -24 -1 -18 -9 4 -21 7 -26 7 -5 0 -9
24 -9 53 0 28 -6 117 -14 197 -23 235 -24 295 -2 319 11 12 29 21 41 21 26 0
45 18 45 44 0 15 35 66 45 66 1 0 -2 -26 -8 -57z m80 21 c2 -6 -10 -8 -32 -6
-19 2 -35 8 -35 14 0 13 63 6 67 -8z m-133 -17 c16 -25 -16 -56 -38 -37 -19
15 -20 32 -4 48 15 15 28 11 42 -11z m129 -7 c10 0 16 -4 13 -8 -7 -11 -76 -2
-76 10 0 6 10 8 23 4 12 -3 30 -6 40 -6z m-5 -40 c12 0 22 -6 22 -13 0 -8 -14
-11 -45 -9 -32 3 -45 8 -45 19 0 11 6 14 23 9 12 -3 32 -6 45 -6z m6 -36 c9
-3 16 -10 16 -14 0 -8 -80 6 -89 16 -7 6 55 5 73 -2z m-15 -30 c17 -4 31 -10
31 -14 0 -8 -77 4 -87 14 -8 8 16 8 56 0z m26 -37 c7 -6 -1 -8 -24 -3 -18 3
-40 6 -47 6 -8 0 -14 4 -14 9 0 12 71 2 85 -12z m-5 -38 c11 -6 9 -8 -10 -9
-34 0 -70 11 -70 21 0 9 56 1 80 -12z m10 -30 c0 -11 -16 -11 -59 -3 -46 10
-37 20 14 16 25 -2 45 -8 45 -13z m-3 -33 c12 -12 -3 -15 -45 -9 -23 3 -42 10
-42 16 0 10 76 4 87 -7z m-44 -23 c-7 -2 -21 -2 -30 0 -10 3 -4 5 12 5 17 0
24 -2 18 -5z m44 -9 c-3 -3 -12 -4 -19 -1 -8 3 -5 6 6 6 11 1 17 -2 13 -5z m3
-33 c0 -8 -79 -3 -89 5 -2 2 17 4 42 4 26 0 47 -4 47 -9z m-14 -21 c8 0 14 -7
14 -15 0 -11 -8 -13 -32 -9 -49 9 -58 12 -58 25 0 8 11 9 31 5 17 -3 38 -6 45
-6z m9 -50 c4 -6 -10 -10 -34 -10 -22 0 -43 5 -46 10 -4 6 10 10 34 10 22 0
43 -4 46 -10z m-10 -30 c16 -7 14 -9 -15 -9 -19 0 -42 4 -50 9 -11 7 -8 10 15
9 17 0 39 -4 50 -9z m5 -40 c0 -5 -16 -10 -35 -10 -19 0 -35 5 -35 10 0 6 16
10 35 10 19 0 35 -4 35 -10z m0 -30 c0 -5 -16 -10 -35 -10 -19 0 -35 5 -35 10
0 6 16 10 35 10 19 0 35 -4 35 -10z m-1 -46 c2 -2 -12 -4 -32 -4 -20 0 -37 4
-37 10 0 8 58 3 69 -6z m-4 -24 c4 -6 -7 -10 -24 -10 -17 0 -31 5 -31 10 0 6
11 10 24 10 14 0 28 -4 31 -10z m-95 -35 c17 -20 5 -45 -20 -45 -23 0 -35 22
-26 45 7 19 30 19 46 0z m96 -4 c-5 -8 -56 -3 -56 5 0 2 14 4 31 4 16 0 28 -4
25 -9z m4 -27 c0 -2 -13 -4 -30 -4 -16 0 -30 4 -30 8 0 5 14 7 30 4 17 -2 30
-6 30 -8z m-415 -42 l210 -4 -5 -61 -5 -61 -195 -1 c-239 0 -246 2 -249 90 -1
52 0 57 16 49 10 -4 113 -9 228 -12z m415 8 c0 -5 -13 -8 -30 -7 -39 3 -39 17
0 17 17 0 30 -4 30 -10z m-5 -30 c4 -6 -7 -10 -24 -10 -17 0 -31 5 -31 10 0 6
11 10 24 10 14 0 28 -4 31 -10z m-5 -30 c0 -13 -11 -13 -30 0 -12 8 -11 10 8
10 12 0 22 -4 22 -10z m-2 -27 c-10 -2 -26 -2 -35 0 -10 3 -2 5 17 5 19 0 27
-2 18 -5z"/>
<path d="M1065 1700 c3 -5 8 -10 11 -10 2 0 4 5 4 10 0 6 -5 10 -11 10 -5 0
-7 -4 -4 -10z"/>
<path d="M1275 1670 c3 -5 8 -10 11 -10 2 0 4 5 4 10 0 6 -5 10 -11 10 -5 0
-7 -4 -4 -10z"/>
<path d="M1740 1690 c0 -5 5 -10 11 -10 5 0 7 5 4 10 -3 6 -8 10 -11 10 -2 0
-4 -4 -4 -10z"/>
<path d="M1700 1680 c0 -5 5 -10 11 -10 5 0 7 5 4 10 -3 6 -8 10 -11 10 -2 0
-4 -4 -4 -10z"/>
<path d="M1950 1670 c0 -5 5 -10 11 -10 5 0 7 5 4 10 -3 6 -8 10 -11 10 -2 0
-4 -4 -4 -10z"/>
<path d="M1470 1580 c-20 -20 -19 -29 4 -59 6 -7 10 -28 9 -45 l-2 -31 9 29
c5 16 18 37 29 48 20 18 30 75 12 63 -5 -3 -12 -1 -16 5 -9 15 -23 12 -45 -10z
m60 -24 c0 -20 -25 -37 -44 -30 -19 7 -22 50 -3 57 17 6 47 -11 47 -27z"/>
<path d="M1482 1558 c6 -18 28 -21 28 -4 0 9 -7 16 -16 16 -9 0 -14 -5 -12
-12z"/>
<path d="M1475 1324 c-20 -20 -16 -53 8 -68 39 -24 79 44 41 71 -23 17 -29 16
-49 -3z m53 -30 c4 -27 -26 -40 -46 -20 -21 20 -8 48 20 44 14 -2 24 -11 26
-24z"/>
<path d="M1490 1295 c0 -8 7 -15 15 -15 8 0 15 7 15 15 0 8 -7 15 -15 15 -8 0
-15 -7 -15 -15z"/>
<path d="M1456 754 c-9 -8 -16 -21 -16 -28 0 -15 32 -46 47 -46 13 0 43 33 43
48 0 15 -29 42 -45 42 -7 0 -21 -7 -29 -16z m52 -11 c13 -26 4 -43 -23 -43
-27 0 -40 26 -24 46 16 19 37 17 47 -3z"/>
<path d="M1475 740 c-4 -6 -3 -16 3 -22 6 -6 12 -6 17 2 4 6 3 16 -3 22 -6 6
-12 6 -17 -2z"/>
<path d="M1470 1034 c0 -17 22 -14 28 4 2 7 -3 12 -12 12 -9 0 -16 -7 -16 -16z"/>
<path d="M1505 450 c-7 -11 2 -30 15 -30 4 0 10 6 13 14 6 16 -19 30 -28 16z"/>
<path d="M1105 360 c-3 -5 -1 -10 4 -10 6 0 11 5 11 10 0 6 -2 10 -4 10 -3 0
-8 -4 -11 -10z"/>
<path d="M1851 2268 c0 -20 2 -44 5 -53 8 -19 63 -49 72 -39 4 4 1 9 -5 11
-31 11 -56 42 -63 79 l-8 39 -1 -37z"/>
<path d="M1235 2040 c-3 -5 -1 -10 4 -10 6 0 11 5 11 10 0 6 -2 10 -4 10 -3 0
-8 -4 -11 -10z"/>
<path d="M983 2025 c0 -7 6 -11 14 -8 7 3 13 6 13 8 0 2 -6 5 -13 8 -8 3 -14
-1 -14 -8z"/>
<path d="M953 2005 c0 -8 4 -12 9 -9 5 3 6 10 3 15 -9 13 -12 11 -12 -6z"/>
<path d="M929 2008 c-5 -18 -6 -38 -1 -34 7 8 12 36 6 36 -2 0 -4 -1 -5 -2z"/>
<path d="M895 1981 c-3 -5 -2 -12 3 -15 5 -3 9 1 9 9 0 17 -3 19 -12 6z"/>
<path d="M1245 1910 c3 -5 8 -10 11 -10 2 0 4 5 4 10 0 6 -5 10 -11 10 -5 0
-7 -4 -4 -10z"/>
<path d="M806 1877 c3 -10 9 -15 12 -12 3 3 0 11 -7 18 -10 9 -11 8 -5 -6z"/>
<path d="M787 1851 c-4 -17 -3 -21 5 -13 5 5 8 16 6 23 -3 8 -7 3 -11 -10z"/>
<path d="M666 1657 c3 -10 9 -15 12 -12 3 3 0 11 -7 18 -10 9 -11 8 -5 -6z"/>
<path d="M256 1448 c-65 -215 -131 -531 -124 -598 6 -71 57 -40 76 48 8 34 7
42 -4 42 -8 0 -14 -10 -14 -25 0 -14 -8 -42 -17 -63 l-17 -37 -4 43 c-6 76 92
519 145 658 3 8 0 14 -6 14 -6 0 -22 -37 -35 -82z"/>
<path d="M1833 1522 c-23 -3 -23 -6 -22 -130 0 -82 7 -151 17 -195 l17 -68 85
-34 c46 -19 89 -35 95 -35 5 0 41 20 78 45 l67 45 0 181 c0 135 -3 181 -12
184 -16 5 -295 11 -325 7z m311 -22 c36 -13 -126 -21 -203 -10 -42 6 -79 6
-88 1 -12 -6 -9 -8 13 -9 16 -1 88 -3 159 -4 l130 -4 3 -44 c2 -31 -1 -46 -12
-52 -9 -5 -13 -15 -9 -25 4 -11 3 -14 -5 -9 -8 5 -10 2 -6 -8 5 -14 -9 -16
-107 -16 -77 0 -109 3 -99 10 8 5 10 10 5 10 -6 0 -17 -6 -24 -12 -11 -11 -12
-10 -7 0 6 10 1 11 -18 6 -14 -3 -27 -2 -27 2 -1 5 -3 19 -4 32 -1 12 -6 26
-10 30 -5 4 -5 -1 -2 -11 4 -11 3 -16 -3 -12 -6 4 -10 35 -9 70 l2 64 151 -1
c83 0 160 -4 170 -8z m-164 -190 c132 -5 136 -5 158 18 l22 23 0 -46 c0 -25
-4 -44 -8 -41 -5 3 -9 -1 -9 -9 0 -8 5 -11 10 -8 6 4 7 1 2 -7 -5 -8 -9 -32
-9 -54 -1 -33 -5 -41 -18 -40 -10 1 -16 -2 -13 -6 8 -13 -91 -71 -109 -64 -9
3 -14 10 -11 14 3 5 0 12 -6 16 -8 4 -9 3 -5 -4 10 -17 -2 -15 -69 13 -53 21
-60 28 -58 50 1 14 -2 23 -8 20 -5 -4 -9 1 -9 10 0 9 5 13 10 10 6 -3 10 -1
10 4 0 6 -7 11 -16 11 -12 0 -15 7 -12 29 2 17 1 28 -4 25 -4 -3 -8 16 -8 43
0 45 1 47 13 23 12 -24 16 -25 147 -30z"/>
<path d="M1977 1433 c-14 -18 -15 -27 -7 -44 13 -24 48 -22 64 3 9 15 6 22
-14 41 l-26 24 -17 -24z m43 -23 c0 -27 -19 -35 -38 -17 -12 13 -13 19 -3 31
16 19 41 10 41 -14z"/>
<path d="M1985 1410 c3 -5 10 -10 16 -10 5 0 9 5 9 10 0 6 -7 10 -16 10 -8 0
-12 -4 -9 -10z"/>
<path d="M1855 1350 c3 -5 8 -10 11 -10 2 0 4 5 4 10 0 6 -5 10 -11 10 -5 0
-7 -4 -4 -10z"/>
<path d="M2005 1340 c-3 -5 -1 -10 4 -10 6 0 11 5 11 10 0 6 -2 10 -4 10 -3 0
-8 -4 -11 -10z"/>
<path d="M1873 1277 c118 -76 122 -78 156 -73 19 3 39 10 45 16 8 8 3 8 -19 0
-38 -14 -61 -8 -125 35 -29 19 -57 35 -64 34 -6 0 -3 -6 7 -12z"/>
<path d="M1867 1149 c7 -7 15 -10 18 -7 3 3 -2 9 -12 12 -14 6 -15 5 -6 -5z"/>
<path d="M540 1420 c-8 -5 -12 -12 -9 -15 4 -3 12 1 19 10 14 17 11 19 -10 5z"/>
<path d="M506 1357 c3 -10 9 -15 12 -12 3 3 0 11 -7 18 -10 9 -11 8 -5 -6z"/>
<path d="M472 1270 c0 -14 2 -19 5 -12 2 6 2 18 0 25 -3 6 -5 1 -5 -13z"/>
<path d="M1745 1260 c20 -73 60 -133 136 -205 122 -114 131 -109 15 8 -80 79
-107 113 -121 152 -19 54 -42 88 -30 45z"/>
<path d="M863 1254 c-6 -16 18 -106 36 -134 19 -29 20 -3 1 36 -33 67 -34 89
-8 102 l23 11 -23 0 c-12 1 -25 -6 -29 -15z"/>
<path d="M2275 1243 c3 -16 19 -48 35 -73 15 -25 31 -62 34 -82 4 -21 12 -40
18 -44 8 -5 9 0 5 17 -4 13 -7 33 -7 45 0 12 -11 37 -24 57 -13 19 -30 51 -37
71 -15 42 -34 49 -24 9z"/>
<path d="M456 1237 c3 -10 9 -15 12 -12 3 3 0 11 -7 18 -10 9 -11 8 -5 -6z"/>
<path d="M1071 1194 c0 -11 3 -14 6 -6 3 7 2 16 -1 19 -3 4 -6 -2 -5 -13z"/>
<path d="M960 1180 c0 -11 4 -20 9 -20 5 0 7 9 4 20 -3 11 -7 20 -9 20 -2 0
-4 -9 -4 -20z"/>
<path d="M2423 1118 c-19 -21 -53 -80 -53 -93 0 -16 19 -1 24 19 3 13 19 38
36 56 28 30 34 32 85 28 30 -1 55 0 55 5 0 4 -28 7 -63 7 -53 0 -67 -4 -84
-22z"/>
<path d="M637 1083 c-3 -5 11 -9 32 -10 31 -2 69 -13 186 -58 16 -6 15 -4 -4
10 -50 38 -201 79 -214 58z"/>
<path d="M471 1044 c0 -11 3 -14 6 -6 3 7 2 16 -1 19 -3 4 -6 -2 -5 -13z"/>
<path d="M386 1029 c-4 -8 -2 -27 3 -42 6 -14 13 -90 17 -169 4 -79 8 -145 10
-147 2 -2 4 58 4 135 -1 135 -20 259 -34 223z"/>
<path d="M1036 998 c-3 -13 -7 -86 -11 -163 -3 -77 -8 -155 -11 -172 -6 -30
-4 -33 18 -33 48 0 56 17 67 140 14 151 14 223 -1 238 -21 21 -57 15 -62 -10z
m50 -140 c-8 -182 -12 -205 -38 -214 -11 -3 -21 -4 -24 -2 -2 2 1 31 6 64 6
32 10 100 10 150 0 122 7 154 33 154 20 0 20 -4 13 -152z"/>
<path d="M2133 1003 c-22 -4 -23 -9 -23 -103 0 -106 16 -243 31 -272 10 -18
79 -27 79 -10 0 4 -7 66 -15 137 -8 72 -15 155 -15 186 0 43 -4 58 -16 63 -9
3 -16 5 -17 5 -1 -1 -12 -4 -24 -6z m50 -125 c4 -62 9 -146 13 -185 7 -75 3
-84 -29 -60 -19 14 -37 147 -37 280 0 74 1 77 24 77 22 0 23 -3 29 -112z"/>
<path d="M2380 992 c0 -10 5 -23 11 -29 6 -6 15 -72 20 -150 4 -76 13 -156 20
-178 6 -22 12 -93 13 -157 1 -113 7 -142 21 -97 14 44 6 150 -21 293 -9 43
-17 115 -19 160 -1 44 -6 89 -10 98 -5 14 3 20 46 32 29 9 73 16 98 17 40 0
43 2 22 10 -25 10 -101 0 -153 -20 -26 -10 -28 -9 -28 14 0 14 -4 25 -10 25
-5 0 -10 -8 -10 -18z"/>
<path d="M720 963 c-8 -3 -26 -10 -39 -15 -42 -15 -18 -17 38 -2 32 8 71 11
94 7 29 -4 38 -3 33 5 -7 12 -98 15 -126 5z"/>
<path d="M824 929 c-4 -7 -9 -55 -11 -108 -2 -53 -8 -116 -14 -141 -15 -69
-18 -91 -24 -145 -8 -84 -9 -109 -1 -132 6 -19 1 -25 -31 -41 -51 -26 -115
-40 -208 -48 -63 -5 -77 -4 -73 7 3 8 -7 48 -22 89 -18 48 -30 107 -34 165
-12 152 -26 177 -20 35 4 -110 9 -137 38 -218 19 -52 36 -96 39 -98 11 -12
232 27 278 48 l49 23 4 110 c2 61 11 139 20 175 14 60 31 290 21 290 -2 0 -7
-5 -11 -11z"/>
<path d="M352 868 c-12 -35 -23 -66 -25 -69 -1 -4 2 -8 7 -9 14 -2 48 89 44
117 -2 18 -9 8 -26 -39z"/>
<path d="M22 860 c0 -14 2 -19 5 -12 2 6 2 18 0 25 -3 6 -5 1 -5 -13z"/>
<path d="M2259 428 c-4 -76 -6 -90 -19 -103 -8 -8 -31 -16 -50 -19 -19 -3 -45
-7 -58 -10 -33 -7 -208 -26 -274 -29 -87 -5 -82 -17 5 -17 85 0 361 36 388 51
13 7 18 25 21 79 2 38 0 70 -4 70 -5 0 -8 -10 -9 -22z"/>
<path d="M1870 390 c0 -5 5 -10 10 -10 6 0 10 5 10 10 0 6 -4 10 -10 10 -5 0
-10 -4 -10 -10z"/>
<path d="M1505 360 c-3 -5 -1 -10 4 -10 6 0 11 5 11 10 0 6 -2 10 -4 10 -3 0
-8 -4 -11 -10z"/>
<path d="M787 343 c-5 -7 -6 -17 -3 -21 2 -4 7 -33 11 -63 l6 -55 -48 -21
c-26 -12 -61 -25 -78 -29 -16 -4 -37 -9 -45 -11 -28 -7 -82 -4 -95 7 -7 6 -20
35 -30 65 -19 63 -41 87 -30 34 4 -19 15 -54 25 -79 15 -39 22 -46 52 -51 47
-7 160 17 220 47 43 22 48 28 47 57 -2 52 -23 134 -32 120z"/>
<path d="M2440 337 c0 -6 37 -27 83 -46 90 -36 247 -57 247 -32 0 7 -7 10 -18
7 -41 -13 -166 13 -235 48 -77 41 -77 41 -77 23z"/>
<path d="M2425 259 c-8 -59 3 -77 68 -107 72 -33 139 -45 187 -32 35 9 45 18
61 53 10 23 19 49 19 56 0 24 -23 -4 -36 -42 -20 -59 -110 -68 -214 -20 -62
28 -70 40 -64 94 7 66 -12 64 -21 -2z"/>
<path d="M1490 273 c-41 -8 -48 -23 -9 -23 50 0 84 11 67 21 -14 9 -17 9 -58
2z"/>
<path d="M1660 260 c0 -5 21 -10 48 -9 35 0 42 3 27 9 -28 12 -75 12 -75 0z"/>
</g>
</svg>
