<?xml version="1.0" standalone="no"?>
<!DOCTYPE svg PUBLIC "-//W3C//DTD SVG 20010904//EN"
 "http://www.w3.org/TR/2001/REC-SVG-20010904/DTD/svg10.dtd">
<svg version="1.0" xmlns="http://www.w3.org/2000/svg"
 width="300.000000pt" height="300.000000pt" viewBox="0 0 300.000000 300.000000"
 preserveAspectRatio="xMidYMid meet">
<metadata>
Created by potrace 1.10, written by Peter Selinger 2001-2011
</metadata>
<g transform="translate(0.000000,300.000000) scale(0.100000,-0.100000)"
fill="#000000" stroke="none">
<path d="M1739 2875 c-14 -7 -30 -24 -36 -37 -9 -21 -25 -27 -116 -45 -290
-57 -446 -224 -477 -511 -5 -48 -15 -130 -21 -182 -9 -72 -9 -117 0 -183 12
-87 12 -88 -12 -117 -71 -84 -51 -291 33 -338 17 -9 33 -28 36 -42 44 -215
125 -369 255 -482 l60 -53 -3 -97 c-2 -57 1 -94 6 -90 5 3 6 -3 2 -14 -5 -12
-4 -15 3 -9 12 12 17 183 6 208 -4 10 -38 48 -74 85 -37 37 -77 81 -89 97 -46
60 -131 260 -132 309 0 32 -39 103 -59 109 -54 14 -81 190 -42 281 19 43 41
55 41 22 0 -7 10 -26 21 -40 18 -23 24 -25 33 -14 15 16 60 158 52 165 -3 3
-15 -29 -28 -71 -12 -43 -28 -76 -35 -76 -21 0 -40 51 -47 125 -4 39 -9 88
-12 110 l-5 40 14 -31 c20 -43 63 -74 103 -74 18 0 76 21 136 50 167 81 229
94 453 94 225 1 296 -14 461 -94 122 -60 162 -64 205 -21 16 16 29 24 29 17 0
-7 -3 -16 -7 -20 -4 -4 -9 -42 -10 -85 -2 -87 -15 -131 -38 -131 -16 0 -98
153 -87 164 6 7 -16 26 -31 26 -12 0 97 -199 113 -205 17 -7 39 19 47 58 3 15
9 27 13 27 10 0 20 -26 20 -51 0 -10 5 -19 10 -19 6 0 10 -33 10 -79 0 -44 -4
-83 -10 -86 -5 -3 -10 -15 -10 -25 0 -10 -18 -34 -39 -52 -41 -35 -58 -66 -65
-121 -9 -59 -34 -141 -45 -145 -6 -2 -11 -15 -11 -28 0 -13 -4 -24 -9 -24 -5
0 -11 -8 -15 -17 -14 -43 -78 -126 -153 -200 -35 -35 -63 -68 -64 -75 -1 -7
-1 -51 -1 -98 l1 -85 63 -1 c55 -1 57 0 11 3 l-53 4 0 97 0 97 35 22 c97 63
229 285 263 442 15 69 22 85 44 99 15 9 38 37 53 63 21 39 25 60 25 125 0 77
-26 164 -48 164 -9 0 -6 233 3 257 9 26 -28 252 -54 328 -65 191 -203 322
-405 384 -37 11 -83 21 -102 21 -27 0 -36 6 -49 29 -8 17 -25 37 -37 45 -28
20 -94 20 -129 1z m132 -36 c36 -42 27 -49 -71 -49 -55 0 -90 4 -90 10 0 6 14
25 31 41 28 27 37 31 71 26 23 -3 47 -14 59 -28z m16 -62 c18 -2 34 0 35 4 4
10 123 -15 187 -40 29 -11 67 -31 86 -45 18 -14 38 -26 42 -26 16 0 105 -94
140 -148 46 -72 68 -125 86 -213 20 -93 19 -108 -7 -114 -54 -11 -256 -26
-358 -26 -400 -2 -702 1 -758 6 -228 21 -210 15 -210 73 1 140 68 301 159 384
139 125 315 168 598 145z m-371 -618 c244 -10 356 -10 585 0 156 7 307 15 336
18 l51 5 7 -66 c10 -87 -12 -135 -69 -154 -38 -12 -42 -11 -156 43 -148 69
-250 95 -410 102 -211 10 -356 -19 -525 -104 -99 -49 -139 -56 -179 -29 -36
23 -47 56 -45 138 l2 70 51 -5 c28 -3 187 -11 352 -18z"/>
<path d="M1890 2052 c0 -8 96 -42 148 -52 41 -9 66 -9 78 -2 15 8 11 10 -21 9
-38 -1 -86 6 -129 19 -14 5 -15 8 -6 14 7 5 -4 9 -29 12 -22 2 -41 2 -41 0z"/>
<path d="M1676 2036 c10 -25 -33 -30 -91 -11 -14 4 -12 2 5 -9 30 -18 72 -20
88 -4 14 14 16 38 2 38 -5 0 -7 -6 -4 -14z"/>
<path d="M1770 2005 c44 -39 99 -75 115 -75 9 0 6 56 -6 89 -6 17 -15 31 -20
31 -5 0 -3 -13 6 -30 34 -66 4 -80 -60 -28 -22 18 -44 38 -48 45 -4 7 -15 13
-23 13 -8 0 8 -20 36 -45z"/>
<path d="M1041 2014 c0 -11 3 -14 6 -6 3 7 2 16 -1 19 -3 4 -6 -2 -5 -13z"/>
<path d="M2138 1983 c12 -2 32 -2 45 0 12 2 2 4 -23 4 -25 0 -35 -2 -22 -4z"/>
<path d="M1435 1775 c-22 -21 -25 -33 -25 -92 1 -73 11 -96 51 -112 30 -11 83
8 93 34 3 9 6 47 6 85 0 62 -2 70 -26 89 -35 28 -69 26 -99 -4z m59 -2 c4 -5
13 -8 19 -8 7 -1 11 -6 10 -13 -2 -7 2 -12 7 -12 13 0 13 -106 0 -131 -14 -25
-60 -25 -82 0 -18 22 -24 131 -7 131 6 0 8 4 4 9 -3 6 3 14 12 20 22 13 28 13
37 4z"/>
<path d="M2074 1788 c-30 -14 -44 -50 -44 -113 0 -70 29 -109 81 -107 54 1 79
38 79 115 -1 65 -10 86 -47 105 -26 14 -41 14 -69 0z m60 -22 c7 3 18 -7 24
-21 20 -44 13 -143 -9 -129 -5 3 -9 -2 -9 -10 0 -20 -53 -22 -69 -2 -22 26
-22 154 0 140 5 -3 6 2 3 10 -6 16 25 28 40 15 5 -4 14 -5 20 -3z"/>
<path d="M1720 1463 c-41 -15 -51 -62 -20 -93 17 -17 33 -20 98 -20 83 0 93 4
111 38 14 26 2 55 -29 72 -19 10 -133 13 -160 3z m161 -23 c14 -8 18 -18 15
-37 -3 -14 -7 -27 -9 -29 -3 -3 -113 -7 -154 -5 -27 1 -42 44 -23 66 15 18
140 21 171 5z"/>
<path d="M207 1320 c-38 -35 -67 -72 -89 -118 -30 -60 -33 -75 -33 -157 0 -82
3 -97 32 -155 37 -76 98 -138 167 -173 l49 -25 -2 -306 -2 -306 120 0 121 0 0
308 0 308 35 13 c54 19 150 114 182 179 25 51 28 68 28 157 0 89 -3 106 -28
157 -24 50 -133 168 -155 168 -4 0 -6 -81 -4 -179 l3 -179 -27 -21 c-15 -11
-45 -26 -68 -32 -59 -16 -176 -7 -217 17 l-34 20 -3 187 c-1 103 -6 187 -10
187 -5 0 -33 -23 -65 -50z m43 -156 l0 -157 34 -32 c27 -25 48 -34 102 -43
113 -18 172 -7 232 43 l32 27 0 159 c0 87 4 159 8 159 17 0 81 -78 108 -130
24 -48 27 -66 27 -145 0 -81 -3 -96 -30 -150 -37 -70 -101 -135 -160 -160 -23
-10 -45 -26 -49 -34 -3 -9 -8 -144 -9 -299 -2 -156 -5 -285 -7 -287 -3 -3
-102 -7 -150 -6 l-28 1 1 291 c0 286 -4 319 -33 319 -5 0 -36 18 -68 40 -103
70 -152 166 -151 293 1 62 6 89 27 132 25 54 89 135 106 135 4 0 8 -70 8 -156z"/>
<path d="M1510 1170 c-36 -36 -20 -69 50 -99 103 -44 376 -46 475 -2 54 24 81
61 66 90 -17 31 -46 34 -93 9 -40 -21 -55 -23 -208 -23 -152 0 -168 2 -208 23
-52 27 -57 27 -82 2z m73 -14 c70 -46 335 -46 431 -1 40 19 76 12 76 -15 0
-21 -36 -50 -62 -50 -10 0 -18 -4 -18 -8 0 -14 -121 -32 -209 -32 -89 0 -221
18 -221 31 0 4 -16 13 -35 19 -26 9 -35 17 -35 34 0 13 3 26 7 29 11 12 42 8
66 -7z"/>
<path d="M1965 800 c-13 -6 -15 -9 -5 -9 8 0 22 4 30 9 18 12 2 12 -25 0z"/>
<path d="M1733 773 c9 -2 23 -2 30 0 6 3 -1 5 -18 5 -16 0 -22 -2 -12 -5z"/>
<path d="M1848 773 c6 -2 18 -2 25 0 6 3 1 5 -13 5 -14 0 -19 -2 -12 -5z"/>
<path d="M1838 733 c7 -3 16 -2 19 1 4 3 -2 6 -13 5 -11 0 -14 -3 -6 -6z"/>
<path d="M1100 708 c0 -2 -1 -144 -3 -316 l-2 -312 703 0 702 0 0 315 0 315
-115 0 -115 0 0 -120 0 -120 -470 0 -470 0 0 120 0 120 -115 0 c-63 0 -115 -1
-115 -2z m208 -130 c1 -73 6 -106 16 -116 12 -12 90 -14 472 -13 251 0 466 3
476 7 16 5 18 18 18 115 l0 109 95 0 95 0 0 -285 0 -284 -32 -6 c-38 -7 -338
-2 -338 5 0 3 -90 3 -200 0 -110 -3 -200 -3 -200 0 0 7 -358 2 -370 -5 -5 -3
-57 -5 -115 -4 l-105 1 0 289 0 289 94 0 93 0 1 -102z"/>
<path d="M2185 371 c-126 -32 -168 -102 -105 -174 96 -110 393 -49 363 74 -8
32 -41 68 -79 84 -40 17 -141 26 -179 16z m168 -37 c50 -26 67 -45 67 -76 0
-113 -279 -134 -340 -26 -20 36 -1 71 54 98 52 26 171 28 219 4z"/>
<path d="M1373 693 c15 -2 37 -2 50 0 12 2 0 4 -28 4 -27 0 -38 -2 -22 -4z"/>
<path d="M1005 673 c-58 -24 -139 -79 -175 -119 -91 -104 -120 -190 -120 -354
l0 -120 186 0 c121 0 183 3 179 10 -4 6 -75 10 -180 10 l-174 0 2 124 c2 120
3 125 40 200 59 118 146 198 267 244 30 11 46 21 35 21 -11 0 -38 -7 -60 -16z"/>
<path d="M2554 670 c22 -11 45 -20 52 -20 13 0 99 -57 140 -93 26 -23 90 -126
86 -139 -1 -5 2 -8 7 -8 20 0 37 -159 32 -292 -1 -16 -16 -18 -170 -18 -103 0
-172 -4 -176 -10 -4 -7 58 -10 179 -10 l186 0 0 108 c0 174 -38 279 -137 378
-52 53 -178 124 -217 124 -16 -1 -11 -6 18 -20z"/>
<path d="M1495 640 c10 -11 20 -20 22 -20 2 0 -2 9 -9 20 -7 11 -17 20 -22 20
-5 0 -1 -9 9 -20z"/>
<path d="M2091 643 c-16 -17 -11 -25 8 -14 7 5 12 13 10 19 -2 6 -10 4 -18 -5z"/>
<path d="M1530 600 c8 -5 22 -9 30 -9 10 0 8 3 -5 9 -27 12 -43 12 -25 0z"/>
<path d="M2045 600 c-13 -6 -15 -9 -5 -9 8 0 22 4 30 9 18 12 2 12 -25 0z"/>
<path d="M1591 581 c20 -13 75 -23 63 -12 -5 5 -25 12 -44 15 -25 5 -31 4 -19
-3z"/>
<path d="M1980 580 c-12 -8 -11 -10 8 -10 12 0 22 5 22 10 0 13 -11 13 -30 0z"/>
<path d="M1680 559 c0 -5 9 -9 20 -9 11 0 20 2 20 4 0 2 -9 6 -20 9 -11 3 -20
1 -20 -4z"/>
<path d="M1784 548 c-3 -4 11 -8 30 -8 19 0 37 4 40 8 2 4 -11 8 -30 8 -20 0
-38 -4 -40 -8z"/>
<path d="M1888 553 c6 -2 18 -2 25 0 6 3 1 5 -13 5 -14 0 -19 -2 -12 -5z"/>
</g>
</svg>
