<?xml version="1.0" standalone="no"?>
<!DOCTYPE svg PUBLIC "-//W3C//DTD SVG 20010904//EN"
 "http://www.w3.org/TR/2001/REC-SVG-20010904/DTD/svg10.dtd">
<svg version="1.0" xmlns="http://www.w3.org/2000/svg"
 width="300.000000pt" height="300.000000pt" viewBox="0 0 300.000000 300.000000"
 preserveAspectRatio="xMidYMid meet">
<metadata>
Created by potrace 1.10, written by Peter Selinger 2001-2011
</metadata>
<g transform="translate(0.000000,300.000000) scale(0.100000,-0.100000)"
fill="#000000" stroke="none">
<path d="M2748 2618 c-9 -131 -82 -280 -218 -444 -51 -61 -57 -65 -87 -60 -18
2 -33 1 -33 -5 0 -5 8 -9 18 -10 9 0 25 -2 34 -4 34 -6 221 232 235 299 6 29
15 30 82 14 19 -4 30 52 30 160 1 69 -2 85 -19 102 -11 11 -24 20 -29 20 -4 0
-11 -33 -13 -72z m34 -117 c-3 -53 -6 -61 -24 -61 -16 0 -19 5 -14 23 3 12 11
46 18 76 14 65 24 46 20 -38z"/>
<path d="M2774 2382 c-6 -4 -13 -16 -17 -27 -17 -62 -51 -139 -85 -201 -61
-106 -61 -104 3 -159 94 -81 155 -196 192 -355 23 -102 29 -351 13 -508 -18
-174 -97 -374 -158 -402 -34 -15 -89 -24 -145 -23 -36 0 -55 7 -73 24 -13 12
-22 25 -19 27 3 3 0 11 -6 18 -8 9 -5 18 10 33 12 12 27 21 34 21 24 0 56 45
71 100 8 30 22 79 31 108 15 50 15 55 -1 73 -9 10 -26 21 -38 25 -11 3 -29 13
-38 21 -9 8 -23 13 -30 11 -11 -4 65 -61 94 -70 6 -2 -4 -54 -22 -120 l-33
-116 -38 -11 c-22 -7 -46 -22 -54 -35 -14 -20 -14 -27 0 -59 8 -20 25 -43 37
-51 27 -19 124 -21 196 -5 41 10 53 19 80 58 125 183 169 613 96 921 -26 107
-94 237 -157 299 -31 30 -63 58 -71 63 -14 8 -13 13 8 46 32 51 85 157 103
206 17 48 32 96 30 96 -1 0 -7 -4 -13 -8z"/>
<path d="M727 2369 c-21 -5 -52 -16 -70 -25 -17 -10 -49 -19 -70 -20 -21 -2
-44 -7 -52 -11 -13 -8 -172 -200 -226 -273 -15 -19 -38 -56 -53 -81 l-26 -45
59 7 c122 14 221 67 235 126 17 66 89 195 142 252 54 59 58 61 108 62 28 1 62
5 76 9 36 12 -73 11 -123 -1z m-127 -70 c0 -6 7 -8 16 -5 11 4 9 -2 -7 -25
-28 -39 -83 -151 -99 -203 l-13 -39 -13 31 c-15 37 -31 40 -68 11 -14 -11 -26
-18 -26 -16 0 3 25 46 56 96 64 105 154 192 154 150z m-200 -204 c-7 -9 -14
-29 -15 -46 -2 -26 0 -28 14 -16 30 26 51 27 73 5 l21 -21 -29 -15 c-16 -8
-60 -28 -99 -44 -61 -25 -67 -26 -47 -8 21 19 68 100 58 100 -2 0 -14 -16 -26
-35 -25 -41 -50 -68 -57 -61 -6 6 20 56 44 82 10 12 29 35 42 53 13 17 26 29
29 26 3 -2 -1 -12 -8 -20z"/>
<path d="M854 2337 c-111 -81 -200 -217 -227 -342 -11 -53 -10 -58 27 -147 30
-73 39 -111 43 -175 12 -181 -67 -252 -270 -241 -59 3 -93 11 -122 26 l-40 22
46 -6 c55 -7 126 10 156 38 33 31 16 43 -18 14 -50 -43 -158 -48 -200 -10 -22
20 -39 74 -39 125 l0 36 52 -5 c57 -5 78 10 78 58 0 50 -53 82 -153 94 -67 9
-83 0 -93 -49 -10 -56 25 -105 76 -105 14 0 18 -11 22 -60 3 -41 11 -69 26
-90 22 -29 22 -29 3 -40 -31 -16 -69 -12 -92 11 l-22 22 7 -63 c15 -131 59
-225 119 -256 42 -22 147 -14 204 14 60 31 103 102 103 173 0 26 3 28 48 33
26 3 97 15 157 27 61 12 135 26 165 31 30 5 79 20 109 33 l53 25 -7 -23 c-3
-12 -9 -56 -12 -98 -12 -167 56 -247 217 -257 65 -4 78 -1 102 17 34 27 93
145 108 214 10 50 13 55 48 65 55 17 126 67 172 122 26 31 56 55 85 65 41 16
53 16 189 0 171 -21 228 -14 289 36 90 74 153 266 133 403 -6 39 -11 46 -30
46 -13 0 -168 -77 -344 -170 -326 -173 -366 -189 -503 -205 l-56 -7 -23 69
c-32 97 -77 183 -176 335 -87 134 -115 167 -145 168 -9 0 -45 13 -80 30 -105
49 -115 48 -185 -3z m151 -8 c43 -19 46 -22 31 -38 -22 -25 -21 -112 5 -252
41 -226 49 -285 49 -369 0 -109 -5 -127 -38 -133 -15 -3 -47 -13 -71 -22 -25
-9 -68 -21 -95 -26 -93 -18 -161 -30 -201 -36 -38 -5 -39 -5 -24 13 9 11 27
39 39 64 20 39 22 55 18 140 -3 61 -11 106 -22 127 -9 18 -16 34 -15 35 1 2
-8 26 -20 53 -15 33 -21 62 -18 85 7 53 42 138 81 199 36 55 117 141 134 141
5 0 17 9 27 20 23 26 60 25 120 -1z m119 -53 c25 -10 47 -37 91 -107 32 -52
69 -107 82 -122 46 -57 151 -303 172 -405 13 -63 15 -189 2 -196 -4 -3 -11
-27 -15 -53 -7 -57 -53 -157 -89 -195 -23 -24 -34 -28 -85 -28 -82 0 -155 37
-184 94 -25 49 -29 145 -9 251 7 39 12 109 12 156 -1 78 -9 135 -56 409 -18
104 -19 182 -3 198 16 16 41 15 82 -2z m1247 -199 c10 -119 0 -183 -44 -275
-17 -36 -49 -82 -71 -103 -59 -58 -120 -65 -323 -39 -136 18 -170 7 -258 -81
-38 -38 -95 -82 -126 -99 l-56 -29 -7 102 c-3 56 -8 116 -12 133 l-6 31 78 7
c77 7 176 34 218 60 53 33 136 75 136 68 0 -4 4 -2 8 4 6 10 103 63 345 189
81 43 116 52 118 32z m-2113 -293 c41 -16 66 -52 52 -74 -5 -8 -34 -13 -81
-14 -59 -1 -77 2 -91 16 -18 18 -23 44 -12 72 8 21 80 21 132 0z m8 -325 c12
-20 78 -42 164 -53 94 -13 95 -14 73 -82 -15 -43 -51 -83 -93 -101 -37 -15
-162 -16 -180 -1 -36 30 -74 117 -83 191 l-5 37 39 0 c21 0 41 5 44 10 8 13
32 13 41 -1z"/>
<path d="M704 2039 c-30 -29 -54 -57 -54 -62 0 -6 12 1 28 15 33 32 78 51 103
43 11 -4 26 -18 35 -33 l15 -27 -6 34 c-7 43 -31 81 -51 81 -8 0 -40 -23 -70
-51z"/>
<path d="M174 1869 l-29 -31 38 22 c42 25 55 40 34 40 -7 0 -26 -14 -43 -31z"/>
<path d="M95 1603 c4 -38 11 -72 17 -78 7 -7 9 2 4 30 -3 22 -6 57 -6 78 0 20
-5 37 -11 37 -8 0 -9 -20 -4 -67z"/>
<path d="M742 1364 c45 -63 147 -172 148 -157 0 6 -20 34 -46 61 -25 28 -61
71 -80 96 -46 60 -65 60 -22 0z"/>
<path d="M2367 1268 c-106 -103 -287 -171 -574 -214 -24 -4 -33 -10 -33 -24 0
-35 -31 -99 -51 -105 -11 -4 -31 -17 -45 -30 -26 -24 -167 -99 -180 -95 -4 1
-10 -3 -13 -8 -3 -5 -62 -38 -131 -74 -121 -62 -128 -64 -210 -67 -168 -6
-200 -6 -200 1 0 4 -11 4 -23 -1 -13 -5 -30 -6 -37 -1 -21 13 27 64 80 86 53
22 47 21 108 23 46 1 52 5 137 85 49 47 87 88 83 91 -4 4 -44 -29 -90 -73 -82
-79 -84 -79 -148 -86 -36 -4 -83 -15 -105 -25 -46 -20 -95 -73 -95 -102 0 -18
9 -19 185 -19 l186 0 216 112 c120 62 234 127 253 145 33 29 46 33 131 43 114
13 243 44 323 76 33 13 61 24 63 24 2 0 3 -38 3 -85 0 -83 -1 -85 -24 -85 -59
0 -146 -65 -146 -110 0 -15 11 -20 58 -26 194 -26 309 17 327 123 4 21 25 102
46 181 l39 143 -29 37 c-17 20 -36 53 -43 72 l-13 35 -48 -47z m61 -27 c7 -16
21 -38 31 -50 18 -21 18 -23 -6 -104 -41 -137 -53 -187 -53 -215 0 -38 -33
-88 -72 -109 -34 -17 -171 -28 -234 -18 -59 10 -21 64 60 86 61 16 69 30 70
117 2 109 -4 112 -136 68 -57 -18 -119 -36 -138 -39 -19 -3 -46 -8 -60 -10
-14 -3 -49 -8 -78 -12 l-54 -6 7 33 c10 48 22 56 95 63 35 4 67 8 70 10 3 2
23 6 45 9 50 8 198 58 206 69 3 5 9 8 13 8 12 -3 111 49 138 71 45 38 72 58
78 58 3 0 11 -13 18 -29z"/>
<path d="M721 1010 l-163 -180 -62 0 c-90 0 -135 -16 -184 -66 -59 -59 -54
-74 33 -96 122 -31 184 -33 266 -8 80 24 228 85 324 132 69 35 210 126 241
156 19 18 27 19 63 11 37 -8 44 -7 69 16 l27 25 -39 0 c-96 0 -227 53 -341
140 -36 27 -67 50 -68 50 -1 0 -76 -81 -166 -180z m209 127 c40 -36 150 -102
205 -122 28 -10 52 -20 55 -22 2 -2 -9 -15 -25 -29 -146 -122 -523 -294 -643
-294 -67 0 -177 17 -203 31 -29 15 -5 52 50 80 34 17 65 24 121 25 l75 2 63
69 c111 118 216 234 236 259 24 30 35 30 66 1z"/>
</g>
</svg>
